<svg xmlns="http://www.w3.org/2000/svg" height="1024" preserveAspectRatio="none" style="display: block;" version="1.1" viewBox="0 0 2048 2048" width="1024">
<defs>
	<linearGradient gradientUnits="userSpaceOnUse" id="Gradient1" x1="912.783" x2="895.217" y1="1195.26" y2="1177.74">
		<stop class="stop0" offset="0" stop-color="rgb(243,255,242)" stop-opacity="1"></stop>
		<stop class="stop1" offset="1" stop-color="rgb(255,255,255)" stop-opacity="1"></stop>
	</linearGradient>
	<linearGradient gradientUnits="userSpaceOnUse" id="Gradient2" x1="1061.78" x2="1059.3" y1="569.267" y2="557.934">
		<stop class="stop0" offset="0" stop-color="rgb(3,208,0)" stop-opacity="1"></stop>
		<stop class="stop1" offset="1" stop-color="rgb(8,255,48)" stop-opacity="1"></stop>
	</linearGradient>
</defs>
<path d="M 0 0 L 2048 0 L 2048 2048 L 0 2048 L 0 0 z" fill="rgb(254,255,253)" transform="translate(0,0)"></path>
<path d="M 1092.49 283.902 C 1111.87 283.837 1131.26 283.954 1150.64 284.252 C 1160.19 284.211 1192.5 285.229 1199.33 284.462 L 1204.74 283.987 L 1208.25 284.284 C 1217.32 284.267 1231.97 283.832 1240.61 284.352 C 1251.49 285.238 1267.86 283.512 1280.51 284.787 L 1286.79 284.6 C 1290.91 284.632 1295.3 284.753 1299.39 284.617 L 1304.43 284.593 L 1313.1 284.817 C 1328.04 283.924 1345.15 284.156 1360.27 284.042 C 1361.48 292.867 1361.02 311.251 1360.98 320.692 L 1360.69 387.797 L 1360.81 443.024 C 1360.82 448.407 1361.19 464.879 1360.38 469.358 C 1357.79 470.958 1354.56 470.517 1351.56 470.036 L 1339.94 470.266 L 1308.39 470.341 L 1295.04 470.374 C 1292.97 470.391 1290.9 470.373 1288.83 470.323 L 1269.02 470.164 C 1261.82 470.88 1240.86 470.703 1233.3 470.38 C 1224.92 470.009 1214.37 470.261 1205.8 470.215 L 1179.16 470.323 C 1175.93 470.408 1172.7 470.409 1169.47 470.327 C 1156.27 469.643 1138.57 470.015 1125.23 470.374 C 1125.33 475.134 1125.33 479.125 1125.13 483.88 C 1125.14 488.211 1125.27 493.069 1125.13 497.347 C 1126.14 504.901 1125.71 526.796 1125.74 535.161 L 1125.77 615.78 L 1125.78 663.269 C 1125.78 668.606 1126.08 683.537 1125.18 687.92 L 1118.75 687.059 C 1115.65 688.561 1115.56 688.512 1112.84 690.895 C 1114 695.236 1113.17 694.505 1115.91 697.387 C 1121.54 697.944 1121.39 696.898 1124.22 699.945 C 1126.39 707.102 1125.54 715.193 1125.42 722.86 L 1108.86 723.081 C 1108.88 715.91 1109.2 705.997 1108.43 699.097 C 1105.11 699.006 1101.88 698.441 1099.16 700.041 C 1097.18 711.488 1099.86 734.451 1098.22 748.546 C 1099.86 757.858 1098.82 802.848 1098.72 814.814 L 1085.55 814.756 C 1085.66 805.922 1088.27 795.212 1079.56 790.935 C 1077.95 783.691 1078.45 753.612 1078.16 744.391 C 1077.74 739.037 1077.74 728.601 1078.38 723.338 L 1068.58 723.064 L 1068.05 723.892 C 1068.08 731.899 1068.58 748.284 1067.52 755.562 C 1064.18 756.739 1060.26 756.366 1056.64 756.31 C 1055.35 751.215 1055.68 704.904 1055.72 695.754 C 1055.19 692.848 1055.21 685.218 1055.65 682.284 C 1055.57 675.802 1055.24 662.365 1056.13 656.493 L 1055.76 651.843 C 1053.75 649.138 1055.09 650.277 1050.72 649.406 C 1046.96 649.699 1045.86 649.807 1042.23 650.731 C 1039.99 657.967 1041.36 728.609 1041.39 741.083 L 1025.37 741.049 C 1025.51 698.338 1024.55 654.524 1025.24 612.006 L 1022.42 611.225 C 1020.12 611.845 1017.82 611.897 1015.45 612.109 C 1013 623.627 1014.95 662.676 1014.3 676.611 C 1014.66 689.489 1012.91 703.211 1012.96 715.977 C 1012.98 718.93 1013.06 738.74 1012 739.797 C 1004.07 747.709 1005.9 746.564 1005.96 759.526 L 987.814 759.451 C 987.769 754.517 986.882 738.647 989.156 735.644 C 991.12 735.502 992.926 735.357 994.882 735.134 C 997.186 731.193 996.085 672.318 996.351 661.347 L 984.617 661.104 L 981.639 661.414 L 981.114 661.798 L 981.013 682.768 C 976.759 682.597 965.833 681.614 962.862 683.488 L 962.276 685.843 C 962.555 688.069 962.832 691.077 963.242 693.209 L 980.922 693.214 C 980.953 703.946 980.641 716.302 981.924 726.823 L 969.208 727.347 C 969.284 721.525 970.395 702.606 967.55 698.691 C 964.979 698.868 966.072 698.395 964.224 699.993 L 963.981 713.992 C 960.159 714.025 955.112 713.483 952.156 715.497 C 950.313 718.617 950.971 723.046 951.072 726.853 L 964.268 726.99 C 964.856 736.022 964.174 736.854 968.891 744.337 C 966.848 750.83 956.027 744.58 949.69 749.683 C 951.364 767.486 947.004 767.224 947.2 748.733 C 941.838 748.801 937.741 748.987 932.414 748.396 C 931.977 763.545 932.065 779.525 931.899 794.745 C 928.233 795.161 924.479 795.712 920.812 796.202 C 921.585 759.313 920.804 720.01 920.996 682.751 C 920.62 677.919 920.074 673.207 920.791 668.385 L 920.998 666.796 C 921.059 662.198 921.419 659.285 921.987 654.692 C 919.691 635.97 920.958 586.912 920.968 566.237 L 920.872 550.053 C 920.825 532.863 920.935 515.673 921.202 498.484 C 921.272 490.795 921.793 478.195 920.747 470.934 C 918.15 469.665 913.63 470.061 910.511 470.079 L 903.575 470.102 L 896.054 470.224 C 893.176 470.234 890.208 470.563 887.325 470.8 L 885.972 470.251 L 874.984 470.106 L 865.231 470.152 L 780.451 470.179 L 752.316 470.315 C 744.047 470.453 735.777 470.429 727.509 470.243 C 721.373 470.847 696.578 471.662 691.895 470.064 L 691.163 468.093 L 690.589 334.235 C 690.583 325.666 690.056 289.664 691.472 285.152 C 694.34 283.442 693.929 284.091 698.068 284.464 C 724.137 284.964 752.342 284.286 778.573 284.148 L 862.291 284.361 L 867.757 284.423 C 877.614 284.384 889.165 284.633 898.884 284.194 L 906.009 284.065 C 920.713 284.549 935.748 283.775 950.54 284.237 L 954.67 284.011 L 984.32 283.99 L 1018.06 284.006 L 1027.92 283.978 C 1036.64 283.933 1046.67 284.132 1055.27 283.768 L 1058.95 283.885 C 1061.27 283.935 1063.58 283.967 1065.9 283.981 L 1092.49 283.902 z" fill="rgb(0,200,50)" transform="translate(0,0)"></path>
<path d="M 1110.03 408 C 1112.32 410.638 1111.75 409.168 1112.01 412.47 C 1110.46 414.527 1110.11 414.281 1107.53 415.026 C 1117.94 421.199 1107.47 431.532 1114.56 439.688 C 1112.34 443.184 1110.95 445.797 1109.07 449.497 L 1110.24 452.248 C 1111.07 456.791 1110.92 457.438 1110.53 462.13 C 1107.05 460.876 1107.29 460.787 1103.68 461.368 C 1103.51 457.603 1103.85 456.586 1104.6 452.991 C 1104.51 448.796 1102.97 445.452 1101.56 441.456 C 1099.3 446.959 1099.25 458.77 1098.04 465.396 C 1098.07 469.879 1097.75 471.004 1099.71 474.836 L 1103.18 470.614 C 1109.21 470.232 1116.71 472.739 1120.18 470.433 L 1117.32 467.853 C 1115.09 463.186 1115.54 457.984 1115.89 452.987 C 1118.31 453.9 1118.62 454.442 1120.3 456.407 C 1122.51 455.931 1121.84 456.243 1123.77 455.141 L 1124.16 456.004 C 1125.48 460.943 1124.74 462.031 1123.54 467.133 L 1125.23 470.374 C 1125.33 475.134 1125.33 479.125 1125.13 483.88 C 1119.21 485.736 1119.59 490.927 1117.92 496.495 L 1116.52 496.923 L 1115.32 494.678 C 1112.94 495.851 1113.39 495.87 1111.41 497.931 C 1106.34 497.624 1108.76 498.874 1104.12 499.77 L 1105.22 501.173 L 1109.7 501.077 C 1109.2 503.611 1106.17 505.301 1103.72 507.332 L 1105.67 510.077 C 1104.28 510.619 1103.41 510.971 1101.97 511.4 L 1100.4 511.722 C 1099.98 515.245 1100.64 517.028 1097.16 518.762 L 1097.27 519.529 C 1099.28 520.829 1099.37 520.264 1099.61 522.35 C 1100.4 529.204 1101.53 544.85 1098.4 550.886 L 1096.76 550.746 C 1095.54 548.127 1095.65 548.058 1095.25 545.151 C 1093.19 547.114 1093.32 546.977 1092.14 549.575 L 1090.06 550.419 C 1089.67 542.869 1091.88 539.215 1086.86 533.067 C 1083.71 531.944 1083.74 532.079 1081.56 529.686 C 1079.89 523.778 1079.57 510.578 1081.29 504.525 C 1082.51 500.249 1085.16 505.508 1091.73 503.27 C 1092.49 502.268 1093.25 501.267 1094.02 500.266 C 1092.06 494.337 1090.1 490.352 1090.57 484.38 C 1092.53 481.224 1092.81 481.987 1097.2 480.278 L 1097.58 478.642 C 1095.88 476.002 1094.69 475.836 1091.79 474.618 L 1090.76 474.2 C 1089.06 469.313 1092.9 460.197 1094.27 454.468 C 1092.32 454.633 1093.25 454.777 1091.47 454.057 C 1091.38 446.856 1090.01 441.411 1095.47 436.701 L 1095.49 434.645 C 1092.64 434.308 1093.76 434.967 1091.84 433.174 C 1091.95 430.43 1092.07 427.687 1092.21 424.945 C 1092.53 419.005 1091.78 417.222 1096.1 413.344 L 1097.84 413.645 C 1100.26 417.001 1100.83 421.167 1101.83 425.293 C 1102.23 416.379 1100.41 412.185 1109.08 410.206 L 1110.03 408 z" fill="rgb(0,255,65)" transform="translate(0,0)"></path>
<path d="M 1125.13 497.347 C 1126.14 504.901 1125.71 526.796 1125.74 535.161 L 1125.77 615.78 L 1125.78 663.269 C 1125.78 668.606 1126.08 683.537 1125.18 687.92 C 1123.12 674.764 1127.01 642.477 1123.6 632.477 C 1114.64 631.708 1114.68 627.498 1116.27 619.757 L 1117.24 620.056 L 1120.16 627.588 L 1121.05 627.125 C 1121.66 621.106 1121.58 612.472 1113.18 613.756 C 1110.55 616.288 1110.01 616.408 1106.68 617.375 C 1101.22 615.5 1103.57 609.445 1102.91 604.041 L 1100.93 604.374 C 1099.1 606.917 1100.07 611.096 1099.28 615.589 L 1097.51 616.719 L 1096.21 615.943 L 1095.62 610.036 L 1094.5 609.683 L 1093 612.957 L 1090.98 613.616 C 1090.33 609.519 1089.79 590.795 1091.07 587.162 C 1093.25 586.742 1093.81 586.572 1095.54 585.181 L 1096.12 588.077 C 1102.21 585.303 1095.99 589.79 1102.09 588.954 C 1105.33 583.343 1104.05 569.985 1102.48 563.817 L 1099.91 562.837 L 1097.8 563.659 L 1096.27 562.551 C 1095.42 558.481 1095.3 560.422 1096.62 556.508 L 1098.29 556.135 L 1100.1 558.163 C 1109.25 551.418 1097.8 543.085 1104.11 538.097 C 1110.08 539.217 1120.09 540.335 1125.45 537.266 L 1126.01 534.95 C 1122.74 529.738 1121.69 534.914 1115.4 535.397 C 1114.97 532.885 1114.94 532.213 1114 529.877 L 1112.62 530.343 L 1111.67 534.674 C 1108.64 535.338 1107.02 535.485 1104 535.756 C 1102.6 531.144 1102.52 527.507 1103.96 522.895 L 1105.32 522.223 L 1107.11 524.033 C 1110.06 522.459 1108.98 523.56 1110.52 520.662 C 1114.32 522.558 1119.8 522.718 1123.41 520.464 C 1126.13 514.62 1123.68 504.677 1125.13 497.347 z" fill="rgb(0,255,65)" transform="translate(0,0)"></path>
<path d="M 1113.62 567.618 C 1117.79 569.389 1119.96 566.317 1124.39 568.338 C 1124.91 569.401 1124.71 584.579 1124.38 586.33 C 1117.93 589.719 1115.99 578.803 1114.52 598.738 C 1111.98 599.023 1112.5 598.998 1113.25 595.486 C 1115.79 583.579 1104.49 588.547 1111.96 579.041 C 1112.39 578.49 1112.14 574.681 1109.97 573.567 C 1101.99 569.465 1108.77 571.946 1113.62 567.618 z" fill="rgb(0,200,50)" transform="translate(0,0)"></path>
<path d="M 1119.3 572.779 C 1120.87 574.896 1121.19 575.95 1120.09 578.443 C 1115.98 579.653 1118.45 574.993 1119.3 572.779 z" fill="rgb(0,255,65)" transform="translate(0,0)"></path>
<path d="M 1360.27 284.042 C 1361.48 292.867 1361.02 311.251 1360.98 320.692 L 1360.69 387.797 L 1360.81 443.024 C 1360.82 448.407 1361.19 464.879 1360.38 469.358 C 1357.79 470.958 1354.56 470.517 1351.56 470.036 L 1339.94 470.266 L 1339.98 468.189 L 1340.17 451.983 C 1343.36 450.539 1343.75 450.922 1347.21 451.434 L 1349.22 452.705 C 1349.62 445.355 1350.22 438.256 1349.55 430.925 C 1347.72 434.498 1342.83 445.15 1340.83 447.176 C 1340.91 440.068 1340.1 432.057 1340.3 425.154 C 1340.6 414.871 1341.06 406.155 1340.85 395.806 C 1340.56 390.07 1339.68 384.065 1341.51 378.803 C 1343.91 376.815 1342.64 377.658 1346.33 377.163 C 1345.96 375.605 1345.89 375.71 1345.17 374.256 C 1343.72 374.98 1343.41 375.126 1341.84 375.713 C 1339.93 370.341 1338.79 348.256 1346.96 348.164 C 1348.85 350.509 1348.81 351.583 1349.37 354.46 C 1349.32 351.883 1349.02 350.183 1350.2 347.911 C 1352.26 349.144 1351.55 348.819 1354.03 349.508 L 1355.73 348.065 C 1354.91 346.365 1354.54 345.665 1353.51 344.027 L 1352.65 342.681 C 1352.4 338.513 1352.07 336.857 1352.98 332.864 C 1355.52 330.971 1355.47 331.605 1359.24 331.399 C 1361.49 316.347 1358.6 299.5 1360.27 284.042 z" fill="rgb(0,255,65)" transform="translate(0,0)"></path>
<path d="M 1356.35 423.688 L 1359.63 425.068 C 1359.68 427.673 1359.75 429.914 1359.48 432.531 C 1355.83 431.211 1350.96 428.261 1355.55 424.384 L 1356.35 423.688 z" fill="rgb(0,200,50)" transform="translate(0,0)"></path>
<path d="M 864.4 364.754 C 869.543 367.252 871.594 368.328 873.757 373.502 C 873.399 375.86 873.554 375.684 872.722 377.869 C 872.925 384.288 877.889 383.051 882.923 382.389 C 883.987 384.993 883.518 385.471 883.204 388.526 C 884.996 390.301 886.339 391.329 888.301 392.899 L 888.306 394.024 C 884.101 395.254 884.547 394.402 882.366 397.213 L 882.57 399.462 L 886.526 400.576 C 886.564 403.728 886.35 406.166 887.377 409.143 C 890.444 406.046 889.496 404.526 889.384 400.372 C 891.85 398.683 893.301 399.444 897.045 399.555 L 896.714 409.572 C 896.649 415.037 896.202 434.422 896.783 438.837 C 896.692 449.203 895.978 460.041 896.054 470.224 C 893.176 470.234 890.208 470.563 887.325 470.8 L 885.972 470.251 L 874.984 470.106 L 865.231 470.152 C 863.746 456.341 866.099 445.877 864.849 432.561 C 864.675 430.706 863.911 430.304 863.93 427.02 C 863.812 423.304 863.943 419.006 863.963 415.237 C 867.163 414.997 869.111 414.576 872.158 415.619 L 873.699 415.661 C 876.061 415.195 876.778 415.037 879.032 414.224 C 880.39 410.171 880.846 397.185 878.46 394.049 C 873.778 395.144 870.145 396.068 865.309 396.544 L 864.405 396.625 C 863.07 388.833 865.567 383.53 864.941 380.194 C 863.413 374.328 863.972 370.707 864.4 364.754 z" fill="rgb(0,255,65)" transform="translate(0,0)"></path>
<path d="M 704.712 368.534 C 700.932 365.846 700.52 365.55 699.679 361.612 C 701.746 356.829 700.644 355.66 702.024 351.914 L 703.685 351.519 C 707.13 354.501 704.615 356.26 708.74 360.226 C 709.723 357.898 710.532 355.964 711.382 353.571 C 714.582 355.371 717.87 357.014 719.154 360.447 C 715.149 363.223 714.371 359.992 712.961 362.528 C 717.089 366.131 716.233 360.313 717.197 366.638 C 715.588 369.527 715.385 369.88 713.153 372.562 C 716.463 374.912 716.837 374.044 718.143 377.894 C 723.495 393.666 707.235 404.195 715.866 418.762 C 716.117 424.089 716.068 424.765 714.316 429.791 L 715.134 431.594 C 716.121 436.926 716.314 442.518 715.339 447.874 L 714.042 451.134 C 715.87 453.609 715.306 452.778 718.297 454.429 C 721.288 461.923 715.136 463.034 716.199 469.005 C 718.841 470.228 724.373 470.109 727.509 470.243 C 721.373 470.847 696.578 471.662 691.895 470.064 L 691.163 468.093 C 695.152 468.207 694.777 471.203 698.704 467.642 C 698.647 465.935 698.547 464.313 698.434 462.609 L 703.141 458.775 C 703.384 454.358 699.334 452.163 699.09 447.988 C 698.44 436.906 702.079 423.078 698.956 412.393 C 697.008 405.726 698.641 404.095 703.25 400.383 L 704.327 401.369 C 706.467 407.23 706.029 410.319 705.86 416.438 L 708.088 417.033 L 709.146 416.162 C 710.559 412.027 711.709 403.507 710.329 399.374 C 707.822 397.676 704.369 398.485 700.298 396.889 C 698.669 394.771 699.148 395.948 699.265 393.148 C 707.241 391.188 698.109 381.172 700.044 371.035 C 702.466 370.438 702.98 370.341 704.712 368.534 z" fill="rgb(0,255,65)" transform="translate(0,0)"></path>
<path d="M 706.005 458.272 C 707.426 460.369 706.174 466.244 702.481 468.2 C 697.61 462.337 701.699 463.456 706.005 458.272 z" fill="rgb(72,249,122)" transform="translate(0,0)"></path>
<path d="M 906.009 284.065 C 920.713 284.549 935.748 283.775 950.54 284.237 C 945.268 285.155 928.936 284.94 927.693 285.507 C 927.685 285.943 927.642 286.57 927.904 286.966 C 929.7 289.678 929.328 295.03 928.598 297.986 C 927.653 301.812 928.908 305.812 926.828 308.912 C 925.637 310.689 924.758 311.719 926.212 313.979 C 929.288 317.927 925.595 322.942 926.624 327.487 C 926.746 328.027 927.065 329.413 926.779 330.084 C 926.325 331.181 922.191 330.696 924.708 332.924 C 925.091 333.263 926.335 333.73 926.538 334.408 C 927.385 337.782 927.634 344.815 926.315 348.345 C 924.941 352.022 928.766 360.83 924.502 362.85 C 922.003 364.033 919.057 366.057 918.032 362.981 L 917.545 362.771 C 916.431 363.531 913.942 368.609 909.268 363.009 C 906.767 360.012 912.029 350.051 908.625 345.496 C 906.835 342.778 909.289 328.338 908.674 326.999 C 906.253 321.73 911.641 314.363 911.21 312.684 C 902.69 308.276 912.154 308.037 912.698 306.998 C 912.62 306.885 912.553 306.762 912.462 306.657 C 912.326 306.5 911.681 306.431 911.486 306.409 C 910.87 306.341 910.189 306.339 909.601 306.118 C 908.856 305.839 909.066 305.966 908.693 305.317 C 909.079 304.022 910.568 303.666 911.174 302.525 C 910.524 301.403 907.646 300.942 907.044 300.024 C 904.965 296.858 905.884 287.582 906.009 284.065 z" fill="rgb(0,255,65)" transform="translate(0,0)"></path>
<path d="M 916.07 314.467 C 918.776 316.014 918.262 327.633 917.669 329.495 L 917.582 329.526 C 917.311 329.277 917.468 329.472 917.135 328.797 C 915.83 328.468 912.652 327.911 911.635 327.422 C 910.544 325.32 914.927 316.595 916.07 314.467 z" fill="rgb(0,200,50)" transform="translate(0,0)"></path>
<path d="M 1240.61 284.352 C 1251.49 285.238 1267.86 283.512 1280.51 284.787 C 1273.22 285.486 1267.26 285.184 1259.98 285.302 C 1259.91 289.255 1260.36 294.766 1259.51 298.394 C 1259.25 299.501 1252.66 298.115 1252.02 299.128 C 1249.98 302.347 1253.5 302.519 1255.49 302.618 C 1256.48 302.828 1259.16 303.27 1259.67 304.393 C 1260.82 307.074 1260.1 310.338 1259.85 313.043 C 1259.55 316.233 1259.32 316.333 1256.01 316.204 C 1250.91 316.005 1252.19 320.18 1256.05 321.18 C 1256.85 321.386 1259.14 320.894 1259.78 321.983 C 1260.78 324.226 1259.71 327.349 1259.69 329.492 C 1259.65 332.726 1259.83 334.639 1259.76 337.983 C 1259.66 342.236 1260.42 343.849 1259.72 348.949 C 1254.17 348.104 1250.89 345.138 1249.03 348.369 C 1249.86 353.875 1250.25 363.208 1249.29 368.615 C 1248.28 374.273 1254.47 383.936 1243.83 382.741 C 1236.18 374.028 1240.9 370.9 1244.31 367.882 C 1245.48 366.849 1241.76 353.835 1241.82 347.917 L 1241.13 345.612 C 1241.65 344.441 1242.1 343.639 1242.6 342.638 C 1243.5 342.507 1244.03 342.992 1244.78 343.468 L 1245.55 343.444 L 1245.54 343.452 C 1248.73 340.006 1245.1 336.652 1241.73 335.348 C 1240.43 330.492 1240.96 328.239 1241.13 323.457 C 1241.32 317.903 1243.04 321.321 1245.48 318.729 C 1245.54 318.405 1245.55 318.574 1245.46 318.222 C 1244.46 317.321 1243.05 317.393 1241.87 316.799 C 1241.28 315.663 1241.35 313.829 1240.8 312.448 C 1238.43 306.522 1245.12 308.542 1245.5 308.489 C 1243.79 304.847 1243.96 307.616 1245.56 303.354 C 1245.72 299.698 1241.94 303.329 1240.11 299.404 C 1237.46 293.702 1241.66 287.884 1240.61 284.352 z" fill="rgb(0,255,65)" transform="translate(0,0)"></path>
<path d="M 907.286 435.017 C 912.843 436.929 911.895 435.723 915.169 439.642 C 917.682 448.025 908.827 449.623 915.931 458.588 L 917.253 458.751 L 918.885 455.168 L 920.411 454.652 L 923.664 456.499 C 925.069 454.359 924.851 454.302 926.915 452.843 C 927.728 456.118 929.206 501.868 928.06 503.204 C 917.59 515.411 929.611 520.692 927.199 525.196 C 919.942 538.743 930.838 537.339 926.395 549.892 C 923.665 550.772 923.751 550.582 920.872 550.053 C 920.825 532.863 920.935 515.673 921.202 498.484 C 921.272 490.795 921.793 478.195 920.747 470.934 C 918.15 469.665 913.63 470.061 910.511 470.079 L 903.575 470.102 C 904.037 464.399 905.253 459.842 906.532 454.298 C 906.449 447.965 905.978 441.121 907.286 435.017 z" fill="rgb(0,255,65)" transform="translate(0,0)"></path>
<path d="M 1058.17 654.958 L 1059.34 655.184 C 1061.01 655.452 1061.24 656.347 1061.93 657.833 C 1058.84 663.802 1063.09 664.531 1066.39 665.934 C 1066.22 666.616 1065.52 671.286 1064.85 671.363 C 1061.73 671.72 1061.4 673.658 1061.9 676.502 C 1062.36 679.125 1060.52 679.258 1060.09 681.004 C 1060.57 682.351 1065.62 682.803 1067.08 683.132 C 1067.25 686.262 1067.09 690.027 1066.99 693.2 C 1064.59 693.488 1065.44 692.52 1063.5 691.963 C 1061.9 692.396 1061.49 694.332 1060.08 694.859 C 1057.86 694.518 1057.12 691.462 1055.72 695.754 C 1055.19 692.848 1055.21 685.218 1055.65 682.284 C 1055.57 675.802 1055.24 662.365 1056.13 656.493 L 1058.17 654.958 z" fill="rgb(0,255,65)" transform="translate(0,0)"></path>
<path d="M 1055.27 283.768 L 1058.95 283.885 C 1061.27 283.935 1063.58 283.967 1065.9 283.981 C 1068.87 290.734 1068.43 292.702 1067.92 300.483 C 1062.45 306.828 1064.6 302.086 1059.19 304.75 L 1057.62 305.584 C 1054.87 301.493 1055.52 289.603 1055.27 283.768 z" fill="rgb(0,255,65)" transform="translate(0,0)"></path>
<path d="M 1240.92 459.566 C 1245.26 464.531 1242.47 463.001 1243.66 468.397 L 1243.71 468.367 C 1244.13 466.611 1243.67 462.839 1244.44 461.712 L 1244.52 461.672 L 1245.06 461.949 C 1247.38 461.816 1244.49 459.433 1250.43 459.33 C 1257.62 459.206 1253.28 461.392 1259.57 463.436 L 1259.72 465.184 C 1259.93 471.729 1262.42 469.443 1269.02 470.164 C 1261.82 470.88 1240.86 470.703 1233.3 470.38 C 1243.85 468.776 1237.91 469.823 1240.92 459.566 z" fill="rgb(0,255,65)" transform="translate(0,0)"></path>
<path d="M 1015.45 612.109 C 1018.12 609.488 1016.86 606.062 1017.28 600.958 C 1017.68 596.021 1010.99 576.266 1024.85 585.203 C 1027.01 586.594 1026.01 593.907 1025.84 596.303 C 1017.32 598.922 1019.89 601.444 1019.63 610.302 C 1020.34 610.88 1021.59 611.027 1022.42 611.225 C 1020.12 611.845 1017.82 611.897 1015.45 612.109 z" fill="rgb(0,255,65)" transform="translate(0,0)"></path>
<path d="M 1173.23 453.163 C 1177.27 453.706 1175.74 457.015 1175.54 460.901 L 1175.58 462.386 C 1175.59 463.456 1175.48 465.432 1176.97 465.414 C 1178.98 464.192 1177.66 457.877 1179.18 457.555 C 1184.45 456.438 1179.78 468.798 1179.16 470.323 C 1175.93 470.408 1172.7 470.409 1169.47 470.327 C 1170.26 467.119 1171.04 465.56 1170.76 462.308 C 1170.96 457.992 1170.05 455.96 1173.23 453.163 z" fill="rgb(0,255,65)" transform="translate(0,0)"></path>
<path d="M 1078.16 744.391 C 1081.42 746.698 1082.78 747.2 1081.97 751.469 C 1080.96 756.766 1083.75 766.111 1080.48 769.86 C 1079.05 772.569 1080.48 785.309 1079.56 790.935 C 1077.95 783.691 1078.45 753.612 1078.16 744.391 z" fill="rgb(0,255,65)" transform="translate(0,0)"></path>
<path d="M 983.803 647.685 C 984.954 654.75 985.414 653.36 984.617 661.104 L 981.639 661.414 C 978.923 659.922 974.603 653.923 974.935 650.884 L 974.906 651.247 C 975.081 650.42 974.997 649.719 975.699 649.266 C 979.921 649.07 975.215 654.432 983.803 647.685 z" fill="rgb(0,255,65)" transform="translate(0,0)"></path>
<path d="M 1287.76 460.426 L 1288.29 461.326 C 1292.43 468.68 1294.75 456.696 1294.64 456.769 C 1295.31 456.834 1299.88 461.707 1296.61 462.547 C 1295.69 462.782 1295.28 468.769 1295.04 470.374 C 1292.97 470.391 1290.9 470.373 1288.83 470.323 C 1288.79 466.28 1288.61 464.378 1287.76 460.426 z" fill="rgb(0,255,65)" transform="translate(0,0)"></path>
<path d="M 920.998 666.796 C 922.189 667.334 922.523 667.41 923.817 667.793 C 927.524 673.059 926.953 677.069 922.64 681.866 L 920.996 682.751 C 920.62 677.919 920.074 673.207 920.791 668.385 L 920.998 666.796 z" fill="rgb(164,252,186)" transform="translate(0,0)"></path>
<path d="M 920.998 666.796 C 922.189 667.334 922.523 667.41 923.817 667.793 C 922.608 672.191 922.037 677.327 922.64 681.866 L 920.996 682.751 C 920.62 677.919 920.074 673.207 920.791 668.385 L 920.998 666.796 z" fill="rgb(72,249,122)" transform="translate(0,0)"></path>
<path d="M 932.414 748.396 C 938.248 747.433 944.445 746.836 949.69 749.683 C 951.364 767.486 947.004 767.224 947.2 748.733 C 941.838 748.801 937.741 748.987 932.414 748.396 z" fill="rgb(0,255,65)" transform="translate(0,0)"></path>
<path d="M 763.628 320.202 C 763.738 317.565 763.431 317.136 764.875 315.051 C 769.097 314.381 773.848 316.539 779.913 317.108 L 781.305 317.23 C 782.326 320.717 782.235 320.865 782.332 324.338 C 779.701 329.142 778.453 328.864 773.181 329.606 C 777.056 331.16 778.709 331.511 781.742 334.228 C 783.533 340.445 782.068 341.169 778.609 346.629 C 783.025 355.88 781.35 351.092 779.924 358.985 C 776.091 380.207 780.511 404.672 778.854 426.15 C 779.043 434.179 779.154 442.211 779.186 450.242 C 771.567 444.218 776.292 443.137 775.609 434.644 C 772.161 433.276 773.817 433.248 770.474 434.596 C 768.714 437.788 768.244 444.518 768.13 448.296 L 767.926 439.688 C 767.983 435.418 769.019 423.422 768.532 420.944 C 770.103 416.409 767.852 414.265 773.25 411.389 L 773.71 409.085 L 770.59 409.682 C 769.128 407.977 768.918 407.825 767.129 406.448 L 765.363 408.037 C 761.531 405.631 766.452 380.354 764.854 374.333 C 762.881 373.348 762.576 372.968 761.366 371.128 C 763.486 369.712 763.168 370.004 765.025 368.2 C 765.583 359.518 771.204 345.038 767.798 338.719 C 762.944 337.626 761.825 337.78 756.812 338.12 C 759.486 337.482 759.428 337.668 761.409 335.826 C 761.631 333.171 761.509 331.595 763.128 329.332 L 763.442 326.146 L 763.957 320.79 L 763.628 320.202 z" fill="rgb(0,255,65)" transform="translate(0,0)"></path>
<path d="M 772.592 364.651 C 761.451 354.487 779.115 355.482 778.221 363.009 C 776.258 363.489 774.519 364.052 772.592 364.651 z" fill="rgb(72,249,122)" transform="translate(0,0)"></path>
<path d="M 775.171 333.57 C 779.505 336.374 778.998 338.318 777.063 342.668 C 771.362 340.625 773.514 340.172 775.171 333.57 z" fill="rgb(0,200,50)" transform="translate(0,0)"></path>
<path d="M 906.777 431.639 C 905.618 422.105 907.303 411.14 906.801 401.502 C 907.062 399.846 909.305 399.24 910.431 398.446 C 912.859 396.732 912.162 389.955 911.487 387.487 C 909.959 387.643 910.116 390.269 908.629 390.452 C 904.464 385.655 911.956 383.641 911.979 382.633 C 911.15 381.196 907.82 381.523 907.343 380.636 C 906.118 378.395 905.557 369.206 908.532 368.079 C 915.551 365.42 916.504 371.033 916.896 371.245 C 919.032 370.435 918.575 368.361 922.996 369.117 C 923.288 369.167 925.461 368.428 925.702 369.192 C 926.75 373.067 926.199 378.462 925.282 382.346 C 924.486 385.72 928.191 391.259 925.475 395.011 C 922.113 398.865 923.743 398.364 926.467 401.143 C 927.869 402.573 927.208 412.095 925.491 414.011 C 925.211 414.337 924.93 414.664 924.65 414.991 C 924.838 416.058 925.839 415.925 925.925 416.596 C 926.555 421.528 927.399 426.56 925.282 431.179 C 923.576 431.114 921.87 431.073 920.164 431.056 C 919.052 430.389 918.396 429.924 917.956 428.667 L 917.553 427.617 C 917.221 427.357 916.889 427.098 916.557 426.838 C 913.833 427.16 921.592 431.047 906.777 431.639 z" fill="rgb(0,255,65)" transform="translate(0,0)"></path>
<path d="M 917.553 427.617 C 918.42 421.908 916.972 416.509 919.38 414.319 C 921.709 415.252 920.489 428.454 920.164 431.056 C 919.052 430.389 918.396 429.924 917.956 428.667 L 917.553 427.617 z" fill="rgb(72,249,122)" transform="translate(0,0)"></path>
<path d="M 1246.28 388.519 C 1249.55 389.966 1248.8 390.306 1251.31 392.418 C 1251.47 392.401 1254.91 388.532 1256.25 387.702 L 1257.97 386.651 C 1260.7 392.533 1261.76 400.927 1258.45 406.83 C 1257.36 408.79 1245.88 410.752 1250.47 412.939 C 1252.83 411.726 1259.51 412.668 1259.84 414.009 C 1261.11 419.166 1260.83 430.148 1259.2 435.365 C 1258.58 434.273 1257.97 433.153 1257.3 432.093 C 1256.28 431.85 1255.93 432.529 1255.43 432.908 C 1249.92 437.046 1252.4 422.426 1250.93 420.495 C 1251.33 421.024 1250.33 416.668 1249.05 417.959 C 1246.31 422.459 1250.41 432.696 1246.58 436.187 C 1246.08 436.653 1245.85 437.342 1245.97 438.016 C 1246.07 438.626 1247.03 438.705 1247.46 438.73 C 1250.14 438.889 1249.35 442.419 1250.56 443.925 C 1251.11 444.013 1250.87 444.058 1251.31 443.857 C 1252.05 442.83 1251.35 441.357 1252.21 440.075 C 1252.92 439.744 1257.72 439.764 1259.05 439.627 C 1261.28 445.27 1260.5 450.438 1258.96 456.207 C 1254.5 455.962 1253.13 454.88 1248.91 455.908 C 1240.59 456.008 1243.02 456.223 1240.97 448.891 C 1243.55 446.701 1243.21 448.358 1246.73 446.147 C 1246.41 445.751 1246.09 445.355 1245.77 444.958 C 1243.9 441.315 1241.96 448.26 1240.11 445.634 C 1237.93 442.544 1239 438.25 1239.72 434.541 C 1240.25 431.813 1241.37 425.744 1240.95 423.04 C 1238.9 419.318 1240.05 416.14 1240.29 412.007 C 1240.31 411.572 1241.12 411.244 1241.4 411.144 C 1241.58 410.916 1241.77 410.687 1241.96 410.459 C 1240.87 406.448 1242.35 399.405 1241.99 394.975 C 1241.81 392.722 1244.84 390.152 1246.28 388.519 z" fill="rgb(0,255,65)" transform="translate(0,0)"></path>
<path d="M 1057.44 307.492 C 1060.48 312.112 1063.8 310.018 1069.74 309.987 C 1071.01 317.789 1071.02 320.223 1066.4 326.28 C 1066.7 328.895 1066.72 328.108 1068.82 329.272 C 1072.78 331.47 1067.49 336.434 1068.26 337.956 C 1071.2 343.712 1069.23 358.382 1068.84 365.195 C 1059.92 359.683 1068.16 357.225 1065.06 352.976 C 1065.04 352.959 1056.04 353.801 1054.82 353.722 L 1053.59 350.098 C 1052.77 344.929 1051.76 333.309 1054.96 328.84 C 1056.44 328.547 1057.16 328.12 1058.26 327.094 L 1059.5 326.021 L 1056.3 324.738 C 1051.03 320.45 1049.88 316.669 1055.65 312.083 L 1057.21 310.808 C 1057.19 309.036 1057.16 309.197 1057.44 307.492 z" fill="rgb(0,255,65)" transform="translate(0,0)"></path>
<path d="M 977.874 485.402 C 981.763 487.352 981.802 487.114 983.994 490.708 C 984.976 501.7 971.747 502.022 985.47 509.458 C 986.293 512.434 986.268 510.938 985.245 514.09 C 983.266 514.75 982.73 514.934 980.924 516.052 C 980.955 530.897 981.015 545.657 980.482 560.496 C 980.157 569.526 982.27 590.874 980.185 598.972 C 976.168 594.561 977.503 588.972 977.669 582.392 C 978.137 575.295 977.523 567.552 977.578 560.327 C 977.721 541.739 977.727 522.083 976.835 503.579 C 976.16 499.236 975.034 488.723 977.874 485.402 z" fill="rgb(0,255,65)" transform="translate(0,0)"></path>
<path d="M 1055.24 456.466 C 1054.53 452.45 1052.65 447.996 1055.97 445.175 C 1058.65 448.305 1058.95 448.674 1061.03 452.194 C 1062.1 452.572 1062.73 448.367 1068.2 446.888 C 1069.36 454.019 1069.01 455.137 1068.18 462.089 C 1062.64 463.06 1065.47 460.589 1060.75 456.362 C 1057.53 459.377 1057.94 462.083 1059.29 466.095 C 1061.81 473.555 1062.95 462.079 1067.26 469.565 C 1067.39 477.441 1072.34 472.187 1068.98 485.928 C 1063.29 485.865 1062.46 482.532 1059.76 485.745 C 1059.49 486.065 1055.99 485.52 1055.2 485.532 C 1054.57 480.973 1051.98 471.566 1054.56 467.701 C 1056.58 464.668 1055.68 460.353 1055.24 456.466 z" fill="rgb(0,255,65)" transform="translate(0,0)"></path>
<path d="M 1288.84 381.663 C 1290.16 381.589 1291.48 381.536 1292.8 381.504 C 1293.66 382.893 1294.3 384.082 1295.06 385.513 C 1298.17 386.796 1300.29 384.545 1304.27 383.581 L 1304.76 385.263 C 1306.84 391.554 1306.39 393.197 1303.94 399.721 C 1304.11 406.178 1304.41 408.569 1303.81 414.96 C 1296.56 414.989 1297.34 410.184 1297.46 403.806 C 1296.79 402.559 1296.08 401.933 1295.11 400.865 C 1294.79 406.822 1296.81 414.684 1289.79 414.175 C 1289.93 408.343 1289.6 406.741 1290.6 401.028 C 1290.35 394.326 1287.53 402.277 1288.05 388.209 C 1288.1 385.416 1288.33 384.424 1288.84 381.663 z" fill="rgb(0,255,65)" transform="translate(0,0)"></path>
<path d="M 1105.25 291.159 C 1109.6 291.254 1110.3 289.3 1113.06 292.304 C 1113.72 292.473 1114.39 292.645 1115.05 292.814 C 1117.42 291.899 1115.51 290.942 1120.92 289.838 C 1126.35 297.065 1125.83 296.803 1123.35 305.223 L 1119.99 305.856 C 1117.47 306.317 1116.38 306.074 1113.82 305.9 L 1111.81 305.78 C 1106.77 305.855 1108.35 296.659 1105.25 291.159 z" fill="rgb(0,255,65)" transform="translate(0,0)"></path>
<path d="M 1017.15 501.581 C 1024.67 502.48 1028.18 503.134 1026.66 512.988 C 1025.74 517.746 1025.91 515.859 1023.41 517.648 C 1019.58 520.39 1025.6 528.697 1022.42 529.948 C 1021.47 529.579 1019.61 528.552 1018.59 528.64 C 1018.12 529.225 1017.3 530.446 1016.56 530.598 C 1015.37 530.125 1015.89 521.766 1016.44 520.642 C 1016.61 520.295 1021.03 520.943 1019.04 517.921 C 1017.9 517.503 1016.22 518.059 1015.97 516.992 C 1014.82 511.957 1015.19 506.388 1017.15 501.581 z" fill="rgb(0,255,65)" transform="translate(0,0)"></path>
<path d="M 1016.34 534.484 C 1021.75 535.034 1023.72 533.413 1024.54 538.941 C 1026.01 548.853 1020.82 546.358 1021.65 555.495 C 1022.23 561.861 1021.86 571.93 1021.66 578.743 C 1014.26 579.271 1020.38 562.98 1018.14 557.511 C 1017.17 555.134 1022.95 551.835 1015.79 548.138 C 1013.99 547.215 1016.07 536.221 1016.34 534.484 z" fill="rgb(0,255,65)" transform="translate(0,0)"></path>
<path d="M 1198.91 412.903 C 1202.6 413.176 1205.9 413.781 1209.44 413.98 C 1215.87 420.402 1204.24 426.871 1207.04 434.779 C 1207.3 435.522 1207.02 449.142 1206.97 450.767 C 1204.47 449.757 1203.3 449.565 1203.27 446.576 C 1203.21 442.251 1203.2 437.926 1203.24 433.601 C 1203.23 431.968 1203.4 428.402 1202.56 427.004 C 1200.88 424.207 1205.57 421.922 1205.63 420.439 L 1205.14 420.067 C 1202.14 419.742 1199.93 420.28 1197 420.814 C 1197.65 417.416 1197.83 416.144 1198.91 412.903 z" fill="rgb(0,255,65)" transform="translate(0,0)"></path>
<path d="M 1014.88 467.577 C 1017.06 469.43 1017.47 469.559 1017.51 472.539 C 1017.73 469.773 1021.45 471.069 1022.91 471.652 L 1022.39 472.106 C 1022.49 472.073 1022.58 472.039 1022.68 472.005 L 1022.55 471.921 L 1023.21 471.565 L 1023.32 471.215 C 1025.13 469.823 1024.73 470.119 1027.06 469.128 C 1027.96 492.94 1021.72 471.316 1020.83 487.501 C 1020.8 488.131 1021.28 495.692 1017.58 492.469 C 1015.02 490.229 1021.06 483.11 1014.29 480.341 C 1013.1 479.74 1013.78 470.731 1014.88 467.577 z" fill="rgb(0,255,65)" transform="translate(0,0)"></path>
<path d="M 1059.48 431.044 C 1058.23 430.909 1056.98 430.773 1055.73 430.637 C 1054.82 429.887 1054.64 424.105 1054.77 423.5 C 1055.49 421.67 1053.84 412.141 1055.43 411.246 C 1057.83 409.894 1061.05 411.683 1059.63 415.398 C 1058.25 419.024 1057.47 420.427 1059.99 422.636 C 1062.08 422.014 1064.06 421.429 1066.18 420.862 C 1068.76 424.582 1070.78 428.66 1067.98 433.044 L 1065.89 434.098 C 1063.69 433.156 1061.55 431.755 1059.48 431.044 z" fill="rgb(0,255,65)" transform="translate(0,0)"></path>
<path d="M 1123.41 386.287 C 1107.57 381.655 1117.82 383.468 1114.96 372.481 C 1113.49 366.821 1116.95 360.483 1122.97 359.589 C 1122.93 368.472 1123.58 377.721 1123.41 386.287 z" fill="rgb(0,255,65)" transform="translate(0,0)"></path>
<path d="M 714.163 314.758 C 717.417 318.032 716.175 329.875 714.356 330.874 C 705.657 335.651 711.692 324.523 707.934 322.453 C 706.651 321.745 704.448 323.43 703.906 324.577 C 703.65 325.864 708.409 333.199 702.873 331.496 C 701.804 331.161 701.239 323.656 701.188 322.586 C 701.358 321.364 705.226 319.993 704.474 318.66 C 703.789 317.447 697.114 317.242 701.837 314.404 C 709.865 317.706 705.907 316.388 714.163 314.758 z" fill="rgb(0,255,65)" transform="translate(0,0)"></path>
<path d="M 1208.15 452.05 C 1216.23 457.911 1213.51 463.471 1206.03 468.573 C 1196.65 462.227 1199.25 464.023 1198.83 453.42 C 1203.29 452.121 1203.45 452.457 1208.15 452.05 z" fill="rgb(0,255,65)" transform="translate(0,0)"></path>
<path d="M 754.736 354.621 C 764.688 349.513 760.172 364.979 759.949 370.791 C 760.024 374.498 760.123 378.125 760.101 381.841 L 753.726 380.665 C 753.855 374.652 753.448 359.485 754.736 354.621 z" fill="rgb(0,255,65)" transform="translate(0,0)"></path>
<path d="M 1020.15 367.421 C 1019.03 367.184 1015.31 366.678 1014.68 365.859 C 1013.23 364.767 1014.27 353.735 1014.42 353.642 C 1022.28 348.859 1029.32 352.265 1024.54 365.407 C 1022.9 366.021 1021.74 366.636 1020.15 367.421 z" fill="rgb(0,255,65)" transform="translate(0,0)"></path>
<path d="M 779.657 466.996 C 776.556 468.293 774.882 467.196 772.931 464.525 C 771.223 462.223 770.532 459.323 771.018 456.499 C 771.868 451.322 775.433 450.392 779.877 451.147 C 783.615 458.979 782.224 458.393 779.657 466.996 z" fill="rgb(0,255,65)" transform="translate(0,0)"></path>
<path d="M 1112.99 508.039 C 1120.95 512.828 1112.43 493.464 1119.55 502.554 C 1119.37 502.327 1120.14 516.928 1118.26 517.557 C 1116.58 519.752 1115.36 515.6 1114.05 514.944 C 1112.56 517.051 1112.52 517.125 1110.77 518.833 C 1109.95 518.671 1109.13 518.524 1108.31 518.394 C 1105.63 517.985 1105.55 518.039 1103.71 516.163 C 1104.71 511.408 1104.59 510.849 1108.8 514.332 C 1108.99 510.113 1107.74 505.712 1112.99 508.039 z" fill="rgb(0,255,65)" transform="translate(0,0)"></path>
<path d="M 1089.7 573.184 C 1090.94 569.246 1090.33 566.785 1099.37 568.478 C 1100.53 568.694 1099.86 576.527 1099.92 576.999 C 1099.34 579.722 1099.99 585.019 1096.15 584.17 C 1091.81 579.837 1090.76 582.211 1089.97 575.094 L 1089.7 573.184 z" fill="rgb(0,255,65)" transform="translate(0,0)"></path>
<path d="M 1294.88 308.057 C 1294.43 312.157 1296.03 317.118 1292.51 318.71 C 1284.09 322.529 1283.86 305.483 1286.94 303.677 L 1288.98 303.714 C 1294.39 303.781 1293.9 301.506 1294.88 308.057 z" fill="rgb(0,255,65)" transform="translate(0,0)"></path>
<path d="M 964.777 487.072 C 965.973 487.104 971.27 487.006 971.816 487.586 C 973.723 489.609 972.481 501.43 972.149 503.3 C 960.682 504.784 964.423 498.272 964.777 487.072 z" fill="rgb(0,255,65)" transform="translate(0,0)"></path>
<path d="M 1258.97 383.082 C 1249.5 380.563 1259.07 370.416 1251.65 366.674 C 1249.61 365.645 1257.58 358.026 1256.5 356.5 C 1253.83 352.703 1256.07 348.926 1258.45 352.783 C 1257.96 362.111 1258.73 373.577 1258.97 383.082 z" fill="rgb(0,255,65)" transform="translate(0,0)"></path>
<path d="M 1024.43 384.861 C 1033.64 396.01 1015.92 403.784 1015.87 391.024 L 1015.86 386.387 C 1015.87 382.876 1018.21 384.481 1020.54 384.984 C 1022.55 384.758 1022.67 384.623 1024.43 384.861 z" fill="rgb(0,255,65)" transform="translate(0,0)"></path>
<path d="M 1019.48 418.278 L 1019.22 416.289 C 1018.65 411.992 1013.63 404.03 1021.01 401.137 C 1023.84 400.026 1026.65 402.429 1026.64 405.494 C 1026.61 413.593 1023.5 412.647 1022.48 420.623 C 1021.86 417.926 1022.09 409.39 1019.48 418.278 z" fill="rgb(0,255,65)" transform="translate(0,0)"></path>
<path d="M 1286.23 419.04 C 1288.23 419.026 1293.71 418.264 1296.29 418.086 C 1296.08 419.608 1294.03 433.569 1297.5 431.54 C 1298.14 431.934 1298.43 432.589 1298.35 433.291 C 1297.76 433.874 1290.63 432.975 1290.1 432.463 C 1289.66 428.566 1298.05 422.917 1284.2 425.425 C 1283.87 422.608 1282.18 417.836 1286.23 419.04 z" fill="rgb(0,255,65)" transform="translate(0,0)"></path>
<path d="M 1202.99 398.216 C 1204.13 398.199 1205.51 398.233 1206.61 398.073 L 1207.86 398.948 C 1211.83 401.541 1210.93 405.554 1210.21 409.559 L 1209.95 411.109 C 1199.26 410.661 1209.12 403.159 1199.14 408.466 C 1198.98 403.232 1196.37 399.878 1201.48 398.622 L 1202.99 398.216 z" fill="rgb(0,255,65)" transform="translate(0,0)"></path>
<path d="M 1123.24 415.384 C 1121.51 414.962 1115.75 414.281 1115.38 412.739 C 1112.87 402.178 1115.89 400.27 1123.9 402.391 C 1124 407.636 1124.44 410.352 1123.24 415.384 z" fill="rgb(0,255,65)" transform="translate(0,0)"></path>
<path d="M 1189.9 393.288 C 1201.14 392.153 1195.57 396.3 1196.17 404.012 C 1196.44 407.451 1193.8 413.417 1190.32 409.493 C 1190.69 409.993 1188.81 402.79 1188.73 402.529 C 1189.32 400.58 1189.33 399.064 1189.89 397.236 L 1189.9 393.288 z" fill="rgb(0,255,65)" transform="translate(0,0)"></path>
<path d="M 1120.13 435.636 C 1126.82 436.826 1125.17 442.71 1123.34 448.141 C 1115.09 448.036 1113.97 449.012 1114.83 439.826 C 1117.08 436.948 1116.98 436.787 1120.13 435.636 z" fill="rgb(0,255,65)" transform="translate(0,0)"></path>
<path d="M 980.771 363.483 L 981.776 365.003 C 985.557 370.529 984.594 375.049 984.159 381.581 C 981.845 381.78 974.977 382.82 976.38 377.35 C 977.442 373.208 979.733 376.776 980.921 377.137 C 981.902 376.811 982.046 375.013 981.716 374.17 C 981.166 372.77 976.24 372.636 975.781 372.144 C 973.538 369.737 979.551 364.445 980.771 363.483 z" fill="rgb(0,255,65)" transform="translate(0,0)"></path>
<path d="M 1197.99 375.936 C 1197.95 364.28 1197.49 365.823 1209.15 366.327 C 1210.07 369.268 1210.15 369.471 1210.36 372.622 C 1206.4 374.722 1202.93 377.021 1197.99 375.936 z" fill="rgb(0,255,65)" transform="translate(0,0)"></path>
<path d="M 953.363 597.073 C 954.426 590.569 952.432 581.074 956.955 578.059 C 958.065 578.7 959.78 579.773 960.917 580.245 C 960.737 592.481 963.638 593.012 953.363 597.073 z" fill="rgb(0,255,65)" transform="translate(0,0)"></path>
<path d="M 968.064 643.649 C 975.901 645.431 970.364 654.122 972.066 662.837 C 966.912 665.614 968.236 661.596 965.952 657.881 C 967.036 652.037 966.97 650.582 967.206 644.573 L 968.064 643.649 z" fill="rgb(0,255,65)" transform="translate(0,0)"></path>
<path d="M 1110.39 323.707 C 1111.23 324.609 1111.88 325.389 1112.67 326.333 C 1112.32 329.823 1112.19 331.659 1111.33 335.031 C 1109.71 334.934 1103.31 335.079 1103.16 334.264 C 1100.73 321.591 1106.61 324.254 1110.39 323.707 z" fill="rgb(0,255,65)" transform="translate(0,0)"></path>
<path d="M 1171.53 392.695 C 1171.72 391.321 1173.18 379.642 1175.44 380.038 C 1178.86 380.639 1181.24 381.697 1181.4 385.415 L 1180.31 388.911 C 1179.23 394.79 1177.35 392.643 1171.53 392.695 z" fill="rgb(0,255,65)" transform="translate(0,0)"></path>
<path d="M 979.874 398.65 L 983.19 399.899 C 984.427 404.88 984.45 408.365 983.068 413.287 C 981.714 413.332 980.425 413.306 979.071 413.294 C 976.021 407.327 975.787 408.729 975.923 401.451 C 977.603 400.055 977.973 399.626 979.874 398.65 z" fill="rgb(0,255,65)" transform="translate(0,0)"></path>
<path d="M 1305.8 347.616 C 1300.55 347.386 1295.76 349.426 1297.85 342.013 C 1299.79 335.135 1297.62 336.591 1305.92 335.287 C 1306.71 340.87 1306.94 342.265 1305.8 347.616 z" fill="rgb(0,255,65)" transform="translate(0,0)"></path>
<path d="M 1205.12 351.094 L 1208.45 352.341 C 1210.91 355.157 1210.04 358.257 1209.49 361.765 L 1208.5 362.09 C 1204.05 363.592 1203.44 362.404 1200.67 358.586 C 1197.52 354.248 1202.7 352.774 1205.12 351.094 z" fill="rgb(0,255,65)" transform="translate(0,0)"></path>
<path d="M 1083.11 367.771 C 1083.57 367.66 1086.35 366.694 1086.67 366.751 C 1086.83 366.922 1087 367.093 1087.16 367.264 C 1087.08 371.945 1087.02 376.602 1089.45 380.757 L 1089.32 381.786 C 1087.38 383.098 1087.39 383.108 1085.8 384.746 L 1082.73 384.282 C 1082.29 378.649 1082.21 373.347 1083.11 367.771 z" fill="rgb(0,255,65)" transform="translate(0,0)"></path>
<path d="M 975.82 634.232 C 977.216 629.873 976.304 626.951 980.95 626.149 L 981.08 627.058 C 981.401 628.861 983.106 637.953 983.413 640.111 C 983.509 640.786 976.623 643.026 975.707 641.483 C 975.144 640.063 975.901 636.415 975.82 634.232 z" fill="rgb(0,255,65)" transform="translate(0,0)"></path>
<path d="M 1054.93 567.397 C 1058.23 566.237 1062.53 566.617 1060.16 559.967 C 1058.71 555.899 1064.23 556.435 1063.45 560.947 C 1063.46 560.92 1065.43 567.795 1069.25 565.27 C 1069.56 566.135 1069.64 566.642 1069.82 567.53 L 1068.16 568.231 C 1063.86 570.153 1060.48 570.759 1055.81 570.277 C 1055.57 569.142 1055.55 568.254 1054.93 567.397 z" fill="url(#Gradient2)" transform="translate(0,0)"></path>
<path d="M 926.456 439.496 C 926.197 441.828 926.583 449.301 925.044 450.52 L 924.982 450.42 L 924.61 450.775 C 923.589 448.826 923.551 444.652 922.504 443.804 C 921.775 444.368 921.362 447.545 920.954 448.505 C 921.014 449.338 919.185 451.187 918.57 450.064 C 917.836 448.623 917.69 441.325 918.124 439.995 C 920.545 432.578 921.875 439.454 922.424 440.774 L 922.6 440.846 C 923.22 440.512 924.656 437.455 925.41 436.429 L 926.456 439.496 z" fill="rgb(0,255,65)" transform="translate(0,0)"></path>
<path d="M 773.08 293.874 C 774.446 293.869 775.681 293.847 777.05 293.94 C 777.447 300.624 778.152 301.752 777.107 308.334 C 768.757 306.38 775.315 304.465 769.061 298.62 C 770.446 297.057 771.833 295.552 773.08 293.874 z" fill="rgb(0,255,65)" transform="translate(0,0)"></path>
<path d="M 1171.4 317.375 C 1171.49 314.452 1172.24 310.325 1172.26 307.899 C 1172.31 303.855 1182.24 305.7 1179.9 309.456 C 1178.12 310.243 1175.48 311.092 1174.59 312.839 C 1175.61 315.583 1183.71 311.707 1179.65 316.655 C 1178.19 318.425 1173.59 317.472 1171.4 317.375 z" fill="rgb(0,255,65)" transform="translate(0,0)"></path>
<path d="M 957.83 659.26 C 958.592 661.616 958.571 661.52 958.776 663.891 C 958.637 667.487 958.631 669.283 958.859 672.851 C 957.565 672.692 952.156 672.709 952.088 671.45 C 951.483 660.229 950.4 662.465 957.83 659.26 z" fill="rgb(254,255,253)" transform="translate(0,0)"></path>
<path d="M 1055.64 490.023 L 1059.81 490.423 C 1060.23 493.665 1061.02 496.673 1061.55 500.019 C 1059.57 503.071 1060.75 503.02 1057.42 504.999 C 1052.99 500.312 1054.11 496.374 1055.64 490.023 z" fill="rgb(0,255,65)" transform="translate(0,0)"></path>
<path d="M 1096.09 355.998 C 1098.05 349.818 1095.54 333.957 1098.48 330.926 L 1098.69 330.887 C 1100.57 332.788 1101.28 356.179 1097.63 358.936 L 1096.09 355.998 z" fill="rgb(0,255,65)" transform="translate(0,0)"></path>
<path d="M 1067.56 489.417 C 1070.48 494.246 1069.45 500.117 1067.8 505.274 C 1064.53 503.719 1064.47 503.934 1063.2 500.496 C 1064.14 495.418 1063.36 495.563 1063.02 490.39 L 1067.56 489.417 z" fill="rgb(0,255,65)" transform="translate(0,0)"></path>
<path d="M 980.163 334.171 C 981.957 334.125 983.062 334.101 984.872 334.221 C 985.316 339.352 985.659 346.129 985.318 351.292 L 985.251 352.408 L 979.88 350.128 C 979.877 343.753 983.527 341.181 980.163 334.171 z" fill="rgb(0,255,65)" transform="translate(0,0)"></path>
<path d="M 956.838 414.616 C 959.096 415.486 961.14 416.199 963.431 416.964 C 963.32 417.629 957.877 429.372 957.254 430.018 C 954.239 424.098 953.667 420.467 956.838 414.616 z" fill="rgb(0,255,65)" transform="translate(0,0)"></path>
<path d="M 1122.68 324.835 C 1123.13 328.678 1123.47 330.074 1122.9 333.83 C 1117.35 332.571 1114.08 334.716 1113.64 328.385 L 1113.5 326.785 C 1117.57 324.456 1117.75 325.194 1122.68 324.835 z" fill="rgb(0,255,65)" transform="translate(0,0)"></path>
<path d="M 1298.16 302.371 C 1301.42 302.174 1306.88 302.017 1305.57 307.426 C 1302.8 318.904 1302.19 307.923 1297.67 313.041 C 1297.34 310.877 1297.94 304.659 1298.16 302.371 z" fill="rgb(0,255,65)" transform="translate(0,0)"></path>
<path d="M 1089.62 667.157 C 1095.92 669.724 1095.01 679.06 1092.88 681.408 L 1092.81 681.259 L 1092.73 681.235 C 1091.24 682.357 1091.44 682.458 1089.41 682.42 C 1087.51 680.355 1088.53 673.264 1088.7 670.457 C 1089.1 669.229 1089.32 668.419 1089.62 667.157 z" fill="rgb(0,255,65)" transform="translate(0,0)"></path>
<path d="M 966.926 398.724 C 976.792 400.444 974.762 404.516 971.528 413.686 C 969.369 412.82 968.024 412.119 968.437 409.485 C 969.124 405.101 967.394 402.779 966.926 398.724 z" fill="rgb(0,255,65)" transform="translate(0,0)"></path>
<path d="M 966.952 632.563 C 972.372 622.634 972.404 630.627 973.614 636.157 C 971.393 640.386 972.348 640.325 967.905 642.76 C 966.917 638.611 967.372 636.922 966.952 632.563 z" fill="rgb(0,255,65)" transform="translate(0,0)"></path>
<path d="M 967.46 455.045 C 968.641 449.593 967.929 449.247 974.094 450.431 C 972.743 453.831 971.33 457.19 972.499 460.995 C 974.8 468.477 968.468 469.165 969.115 461.511 C 969.228 460.179 967.898 456.481 967.46 455.045 z" fill="rgb(0,255,65)" transform="translate(0,0)"></path>
<path d="M 968.057 418 C 973.644 410.74 975.91 427.699 968.473 433.031 C 968.053 427.482 968.276 423.404 968.057 418 z" fill="rgb(0,255,65)" transform="translate(0,0)"></path>
<path d="M 1119.92 435.364 C 1117.73 434.298 1114.79 432.647 1116.66 429.936 C 1120.05 425.022 1113.01 417.331 1122.8 420.361 C 1122.7 420.776 1122.21 422.486 1122.21 422.696 C 1122.2 423.723 1119.91 426.173 1120.35 426.854 C 1122.79 430.618 1123.4 430.541 1119.92 435.364 z" fill="rgb(0,255,65)" transform="translate(0,0)"></path>
<path d="M 709.909 335.205 C 719.23 339.091 715.184 349.819 711.084 349.572 L 709.94 349.536 C 710.258 347.947 712.195 343.722 711.378 342.599 C 711.185 342.336 710.863 342.199 710.539 342.242 C 709.757 342.344 709.811 343.712 709.048 344.306 C 707.154 343.832 709.536 336.582 709.909 335.205 z" fill="rgb(0,255,65)" transform="translate(0,0)"></path>
<path d="M 958.277 646.836 C 959.462 647.578 960.644 648.266 961.848 648.977 C 961.597 650.344 960.109 655.645 961.091 656.898 C 965.127 662.042 965.05 663.056 958.776 663.891 C 958.571 661.52 958.592 661.616 957.83 659.26 C 957.599 656.011 958.05 650.217 958.277 646.836 z" fill="rgb(0,255,65)" transform="translate(0,0)"></path>
<path d="M 1055.66 521.394 C 1052.45 513.361 1051.44 509.161 1059.78 507.176 C 1059.98 513.705 1057.85 510.808 1057.03 513 C 1057.54 515.281 1065.56 518.856 1055.66 521.394 z" fill="rgb(0,255,65)" transform="translate(0,0)"></path>
<path d="M 966.609 605.31 C 971.298 592.693 973.964 601.05 974.636 609.141 C 969.013 610.853 969.691 609.336 966.609 605.31 z" fill="rgb(0,255,65)" transform="translate(0,0)"></path>
<path d="M 1303.11 416.956 C 1307.37 420.973 1306.97 422.748 1304.08 427.823 C 1297.33 424.478 1298.82 425.502 1298.04 418.507 L 1303.11 416.956 z" fill="rgb(0,255,65)" transform="translate(0,0)"></path>
<path d="M 863.943 402.09 C 864.496 401.341 865.109 400.109 866.054 399.817 C 867.346 400.334 874.254 411.089 864.039 414.197 L 863.943 402.09 z" fill="rgb(0,255,65)" transform="translate(0,0)"></path>
<path d="M 1108.69 673.206 L 1110.33 673.627 C 1116.9 674.905 1113.84 677.16 1114.1 684.155 L 1113.98 685.219 C 1106.93 681.913 1107.43 680.648 1108.69 673.206 z" fill="rgb(0,255,65)" transform="translate(0,0)"></path>
<path d="M 968.004 367.219 C 972.861 363.201 971.692 374.533 972.035 376.524 C 972.691 380.334 971.578 381.868 968.015 382.121 C 968.367 376.336 967.666 372.852 968.004 367.219 z" fill="rgb(0,255,65)" transform="translate(0,0)"></path>
<path d="M 1055.31 616.163 C 1059.64 618.911 1068.42 618.46 1057.44 625.633 C 1055.85 626.503 1056.01 626.477 1054.31 626.819 C 1054.11 622.208 1053.4 619.954 1055.31 616.163 z" fill="rgb(0,255,65)" transform="translate(0,0)"></path>
<path d="M 1053.82 591.805 C 1054.52 590.47 1055.1 589.145 1055.57 587.712 C 1058.69 585.055 1061.46 592.497 1060.41 594.523 C 1059.79 595.731 1058.02 597.472 1057.04 598.953 L 1055.75 599.098 C 1054.57 595.946 1054.44 595.112 1053.82 591.805 z" fill="rgb(0,255,65)" transform="translate(0,0)"></path>
<path d="M 1111.9 340.264 C 1102.05 355.977 1097.56 334.134 1111.61 338.969 L 1111.9 340.264 z" fill="rgb(0,255,65)" transform="translate(0,0)"></path>
<path d="M 1111.85 356.806 C 1106.93 357.368 1098.14 358.471 1103.99 349.192 C 1105.07 347.476 1108.12 351.911 1107.69 353.335 C 1107.47 354.046 1110.33 354.092 1111.79 354.114 L 1111.85 356.806 z" fill="rgb(0,255,65)" transform="translate(0,0)"></path>
<path d="M 1054.14 432.912 C 1058.18 433.022 1059.32 436.735 1060.8 440.253 C 1058.76 443.829 1058.27 442.858 1054.14 443.474 C 1054.02 439.741 1054.04 436.641 1054.14 432.912 z" fill="rgb(0,255,65)" transform="translate(0,0)"></path>
<path d="M 974.058 473.931 C 973.727 476.272 973.83 481.425 972.391 483.354 C 972.136 483.696 968.969 484.062 968.466 483.386 C 968.502 482.233 971.725 476.167 969.964 471.917 C 969.552 470.922 970.988 469.86 973.232 470.623 L 974.058 473.931 z" fill="rgb(0,255,65)" transform="translate(0,0)"></path>
<path d="M 1082.33 549.621 C 1082.15 547.536 1080.14 537.525 1083.98 537.062 C 1084.58 536.985 1085.17 537.219 1085.56 537.682 C 1087.06 539.468 1085.86 547.19 1085.22 549.486 L 1082.33 549.621 z" fill="rgb(0,255,65)" transform="translate(0,0)"></path>
<path d="M 1054.53 386.831 L 1056.24 387.366 C 1059.71 388.421 1059.52 387.661 1060.91 391.182 C 1062.77 399.484 1058.38 397.424 1054.03 393.008 C 1054.17 390.947 1054.34 388.887 1054.53 386.831 z" fill="rgb(0,255,65)" transform="translate(0,0)"></path>
<path d="M 969.089 384.302 C 973.814 387.671 975.422 393.332 970.173 397.073 L 968.974 397.179 C 967.725 392.612 967.909 388.843 969.089 384.302 z" fill="rgb(0,255,65)" transform="translate(0,0)"></path>
<path d="M 1097.18 291.132 C 1098.17 290.512 1098.33 290.623 1099.51 291.055 C 1101.94 312.456 1094.74 308.13 1096.94 292.898 L 1097.18 291.132 z" fill="rgb(72,249,122)" transform="translate(0,0)"></path>
<path d="M 1306.14 350.304 C 1305.86 356.102 1305.76 356.382 1299.99 356.05 L 1298.1 355.96 C 1294.73 349.022 1302.09 350.275 1306.14 350.304 z" fill="rgb(0,255,65)" transform="translate(0,0)"></path>
<path d="M 1193 379.697 C 1197.59 380.925 1196.98 387.228 1195.42 389.821 C 1194.99 389.899 1195.22 389.902 1194.73 389.772 C 1192.11 387.217 1197.65 386.431 1188.83 385.377 L 1189.24 383.994 C 1189.92 382.381 1190.26 381.027 1191.91 380.243 L 1193 379.697 z" fill="rgb(0,255,65)" transform="translate(0,0)"></path>
<path d="M 1284.79 442.104 C 1289.46 443.459 1298.34 443.942 1288.53 450.917 C 1285.76 447.67 1283.75 446.305 1284.79 442.104 z" fill="rgb(0,255,65)" transform="translate(0,0)"></path>
<path d="M 957.793 518.109 C 963.13 518.217 962.779 521.005 961.228 526.121 L 960.14 529.64 C 956.583 526.102 956.029 524.609 957.476 519.334 L 957.793 518.109 z" fill="rgb(0,255,65)" transform="translate(0,0)"></path>
<path d="M 972.723 615.549 L 972.734 617.094 C 971.518 623.628 969.579 631.275 965.982 619.731 C 968.377 616.098 968.519 616.42 972.723 615.549 z" fill="rgb(0,255,65)" transform="translate(0,0)"></path>
<path d="M 1115.08 353.092 C 1115.16 351.088 1114.12 344.881 1121.33 348.64 C 1121.63 348.799 1121.52 355.184 1121.53 356.518 L 1121.12 356.23 C 1119.65 355.177 1118.27 354.219 1116.55 353.632 L 1115.08 353.092 z" fill="rgb(0,255,65)" transform="translate(0,0)"></path>
<path d="M 977.462 613.508 C 978.621 610.911 979.121 610.795 981.423 609.088 C 980.919 614.253 980.944 616.968 981.116 622.216 C 975.809 621.714 977.318 621.853 976.133 616.558 L 977.462 613.508 z" fill="rgb(0,255,65)" transform="translate(0,0)"></path>
<path d="M 1181.1 396.754 L 1180.9 397.938 C 1180.66 399.616 1174.16 405.007 1172.1 405.032 C 1172.12 402.549 1172.16 400.421 1172.3 397.932 C 1176.18 397.718 1177.23 397.533 1181.1 396.754 z" fill="rgb(0,255,65)" transform="translate(0,0)"></path>
<path d="M 955.335 613.163 C 957.542 614.377 963.488 617.454 964.844 619.301 C 958.471 619.534 960.855 620.543 956.37 621.299 C 954.671 616.974 953.125 616.856 955.335 613.163 z" fill="rgb(0,255,65)" transform="translate(0,0)"></path>
<path d="M 981.734 319.907 C 984.42 319.303 983.976 320.074 985.055 322.697 C 984.825 325.52 984.67 328.349 984.592 331.18 C 980.961 330.661 981.215 330.642 980.709 327.163 C 980.783 323.468 980.733 323.41 981.734 319.907 z" fill="rgb(0,255,65)" transform="translate(0,0)"></path>
<path d="M 1019.88 345.024 C 1020.42 338.619 1018.46 337.479 1023.73 334.563 C 1023.88 337.169 1022.75 356.323 1019.88 345.024 z" fill="rgb(0,255,65)" transform="translate(0,0)"></path>
<path d="M 1296.73 324.93 C 1301.08 319.918 1302.29 321.113 1306.12 325.923 C 1302.32 330.286 1299.24 329.348 1296.73 324.93 z" fill="rgb(0,255,65)" transform="translate(0,0)"></path>
<path d="M 1066.99 506.139 C 1071 510.417 1069.29 513.764 1068.74 519.737 C 1063.97 518.869 1065.82 509.347 1066.99 506.139 z" fill="rgb(0,255,65)" transform="translate(0,0)"></path>
<path d="M 954.583 548.567 C 969.444 552.076 959.177 554.305 953.637 557.149 C 953.891 554.282 954.206 551.421 954.583 548.567 z" fill="rgb(0,255,65)" transform="translate(0,0)"></path>
<path d="M 955.636 328.589 C 956.236 321.452 953.738 318.723 960.939 319.124 L 960.756 321.012 C 960.398 325.826 959.197 326.018 956.625 330.335 L 955.636 328.589 z" fill="rgb(0,255,65)" transform="translate(0,0)"></path>
<path d="M 955.95 345.714 C 956.953 345.819 963.489 345.879 963.556 346.283 C 964.716 353.381 957.647 350.741 956.242 350.595 C 956.123 348.969 956.025 347.342 955.95 345.714 z" fill="rgb(0,255,65)" transform="translate(0,0)"></path>
<path d="M 1111.81 359.003 C 1111.96 363.197 1112.92 370.019 1110.86 373.182 C 1109.23 372.372 1109.23 371.494 1109.31 369.52 C 1109.64 361.624 1105.88 364.284 1111.81 359.003 z" fill="rgb(0,255,65)" transform="translate(0,0)"></path>
<path d="M 1121.9 319.406 C 1116.97 317.903 1116.29 309.538 1120.49 308.094 L 1122.03 307.525 C 1121.96 311.485 1121.92 315.445 1121.9 319.406 z" fill="rgb(0,255,65)" transform="translate(0,0)"></path>
<path d="M 1182.51 439.7 C 1181 454.447 1172.4 436.346 1181.7 436.286 L 1182.51 439.7 z" fill="rgb(0,255,65)" transform="translate(0,0)"></path>
<path d="M 702.114 335.209 C 707.504 337.25 705.35 341.9 704.916 347.46 C 700.699 344.168 702.104 340.467 702.114 335.209 z" fill="rgb(0,255,65)" transform="translate(0,0)"></path>
<path d="M 981.527 362.607 C 977.482 360.733 977.72 355.411 980.29 352.457 C 981.867 350.645 982.506 358.502 983.041 360.292 C 982.502 361.058 982.03 361.819 981.527 362.607 z" fill="rgb(0,255,65)" transform="translate(0,0)"></path>
<path d="M 970.67 340.884 C 965.766 340.256 965.209 331.511 975.09 335.508 C 972.267 337.756 971.853 337.698 970.67 340.884 z" fill="rgb(0,255,65)" transform="translate(0,0)"></path>
<path d="M 957.553 449.294 C 959.518 450.321 960.853 451.113 962.723 452.262 C 962.179 454.293 961.779 456.197 961.34 458.243 C 957.168 458.846 957.478 452.216 957.553 449.294 z" fill="rgb(0,255,65)" transform="translate(0,0)"></path>
<path d="M 970.951 581.259 C 966.903 579.134 968.053 574.243 971.078 571.943 C 972.058 576.331 972.07 576.55 972.145 581.002 L 970.951 581.259 z" fill="rgb(0,255,65)" transform="translate(0,0)"></path>
<path d="M 966.506 533.003 C 968.162 531.439 969.444 530.279 971.222 528.82 C 970.963 532.335 971.028 533.652 971.275 537.206 C 968.472 536.169 966.188 536.257 966.506 533.003 z" fill="rgb(0,255,65)" transform="translate(0,0)"></path>
<path d="M 1117.15 638.413 C 1121.17 641.225 1120.02 642.888 1119.23 647.694 C 1114.91 647.922 1116.99 642.428 1117.15 638.413 z" fill="rgb(72,249,122)" transform="translate(0,0)"></path>
<path d="M 1189.31 370.908 C 1191.85 370.335 1198.87 375.005 1191.16 375.927 C 1188.98 374.104 1189.4 373.799 1189.31 370.908 z" fill="rgb(0,255,65)" transform="translate(0,0)"></path>
<path d="M 1118.82 677.241 C 1119.22 677.201 1119.63 677.162 1120.04 677.122 C 1120.04 677.575 1120.08 677.282 1119.84 678.067 C 1119.31 678.65 1118.96 679.191 1118.54 679.284 C 1118.38 678.732 1118.74 677.631 1118.82 677.241 z" fill="rgb(0,255,65)" transform="translate(0,0)"></path>
<path d="M 800.739 1421.44 C 870.146 1418.21 943.77 1451.32 955.742 1525.72 C 960.892 1557.72 959.011 1590.89 959.019 1623.3 L 959.513 1763.21 L 889.897 1763.53 C 889.81 1748.12 890.038 1732.49 890.128 1717.07 C 881.26 1736.19 862.911 1748.9 843.986 1756.65 C 777.09 1784.05 691.84 1768.09 661.676 1696.98 C 651.49 1665.62 651.172 1626.47 671.768 1599.02 C 705.85 1554.16 765.471 1544.99 818.32 1547.88 C 848.233 1549.52 868.406 1551.24 892.966 1569.49 C 888.455 1526.1 870.598 1494.94 824.713 1486.15 C 778.963 1477.39 741.235 1490.63 703.166 1515.6 C 694.635 1501.38 680.499 1471.75 671.328 1460.72 C 706.364 1435.93 758.234 1423.62 800.739 1421.44 z" fill="rgb(0,200,50)" transform="translate(0,0)"></path>
<path d="M 805.396 1601.42 C 838.997 1600.43 861.832 1606.16 891.576 1620.23 C 894.136 1673.84 865.177 1700.11 814.242 1706.91 C 789.215 1707.67 762.289 1707.73 742.882 1690.49 C 714.144 1664.96 724.453 1623.15 758.987 1609.84 C 776.101 1603.24 787.774 1602.43 805.396 1601.42 z" fill="rgb(254,255,253)" transform="translate(0,0)"></path>
<path d="M 1367.84 1311.02 L 1438.22 1311.16 C 1439.68 1399.4 1437.94 1488.49 1439.01 1577.08 C 1453.46 1563.9 1466.48 1549.6 1480.48 1536.11 C 1517.87 1500.07 1554.49 1462.21 1592.6 1427.03 L 1682.24 1427.09 C 1659.79 1450.82 1632.71 1476.05 1609.2 1498.78 L 1533.81 1572.45 C 1561.13 1604.78 1590.04 1644.26 1617.25 1678.06 L 1685.39 1763.66 C 1655.32 1762.92 1624.01 1763.56 1593.75 1763.42 C 1579.47 1746.77 1562.72 1723.67 1549.12 1705.95 C 1527.53 1678.26 1506.17 1650.38 1485.06 1622.32 C 1469.6 1639.41 1454.46 1651.68 1438.35 1667.64 C 1438.48 1699.55 1438.41 1731.45 1438.13 1763.36 C 1414.47 1763.35 1390.82 1763.47 1367.17 1763.71 L 1367.84 1311.02 z" fill="rgb(0,200,50)" transform="translate(0,0)"></path>
<path d="M 1177.75 1421.43 C 1179.73 1421.29 1181.71 1421.23 1183.69 1421.23 C 1219.58 1421.31 1250.52 1433 1276.12 1458.38 C 1322.96 1504.81 1314.87 1568.88 1314.89 1629.59 L 1314.96 1763.37 C 1291.01 1763.31 1267.05 1763.43 1243.1 1763.74 L 1243.33 1634.26 C 1243.42 1578.1 1253.68 1515.64 1188.95 1490.76 C 1167.78 1482.63 1146.1 1487.37 1126.49 1497.02 C 1075.05 1525.8 1081.93 1573.56 1081.76 1624.46 C 1081.75 1629.14 1081.76 1633.89 1081.75 1638.57 L 1081.64 1763.16 L 1010.57 1763.43 L 1009.97 1427.18 L 1080.52 1427.33 C 1080.78 1439.38 1080.73 1451.43 1080.36 1463.47 C 1107.4 1437.09 1140.55 1424.27 1177.75 1421.43 z" fill="rgb(0,200,50)" transform="translate(0,0)"></path>
<path d="M 369.146 1311.07 C 405.294 1312.11 445.764 1311.04 482.264 1311.05 L 717.009 1311.37 L 717.086 1378.88 L 581.278 1379.04 L 581.065 1627.5 L 581.092 1763.22 L 504.962 1763.16 L 504.769 1378.99 L 369.334 1378.99 L 369.146 1311.07 z" fill="rgb(0,200,50)" transform="translate(0,0)"></path>
<path d="M 1056 1109.7 C 1056.02 1101.45 1056.05 1090.89 1056.28 1082.85 C 1056.8 1064.32 1053.05 1073.81 1047.81 1068.61 C 1047.11 1064.36 1046.89 1066.37 1048.54 1062.37 C 1052.45 1060.01 1061.45 1060.93 1066.84 1060.94 C 1066.73 1072.58 1065.91 1099.82 1067.23 1110.61 C 1080.2 1119.17 1093.55 1127.14 1107.24 1134.5 C 1109.6 1135.78 1111.95 1136.99 1114.23 1138.42 C 1137.75 1147.77 1196.16 1196.56 1213.04 1216.07 C 1196.18 1216.09 1178.87 1215.9 1162.07 1216.68 C 1150.22 1204.91 1143.61 1193.69 1129.24 1181.9 C 1112.7 1181.31 1095.28 1181.37 1078.67 1181.18 C 1082.65 1191.6 1085.95 1204.97 1088.96 1215.9 L 1039.5 1216.17 C 1038.13 1204.63 1036.99 1193.11 1036.38 1181.51 C 1035.13 1157.64 1038.18 1145.39 1029.52 1123.05 C 1029.46 1120.85 1029.24 1119.63 1028.87 1117.47 C 1033.28 1119.6 1037.09 1121.79 1041.74 1119.9 C 1042.55 1121.39 1042.79 1121.58 1043.93 1123.04 C 1050.06 1124.36 1050.18 1132.16 1052.58 1138.26 L 1053.34 1141.12 C 1059.03 1141.09 1064.72 1140.98 1070.4 1140.8 C 1077.79 1138.79 1084.9 1141.87 1088.95 1136.66 C 1080.94 1131.33 1072.19 1123.78 1064.64 1117.61 L 1056 1109.7 z" fill="rgb(0,255,65)" transform="translate(0,0)"></path>
<path d="M 1088.95 1136.66 C 1093.41 1138.09 1097.34 1138.74 1101.91 1139.68 L 1103.18 1141.39 C 1093.67 1141.89 1080.37 1141.07 1070.4 1140.8 C 1077.79 1138.79 1084.9 1141.87 1088.95 1136.66 z" fill="rgb(222,255,229)" transform="translate(0,0)"></path>
<path d="M 1028.87 1117.47 C 1033.28 1119.6 1037.09 1121.79 1041.74 1119.9 C 1042.55 1121.39 1042.79 1121.58 1043.93 1123.04 C 1038.29 1124.21 1036.04 1124.16 1030.32 1123.18 L 1029.52 1123.05 C 1029.46 1120.85 1029.24 1119.63 1028.87 1117.47 z" fill="rgb(245,254,246)" transform="translate(0,0)"></path>
<path d="M 1052.58 1138.26 L 1053.34 1141.12 C 1050.6 1141.42 1045.64 1142.28 1043.41 1140 C 1043.41 1139.89 1043.42 1139.79 1043.42 1139.68 C 1046.12 1138.31 1048.92 1139.66 1052.58 1138.26 z" fill="rgb(164,252,186)" transform="translate(0,0)"></path>
<path d="M 1064.75 1146.6 C 1077.28 1146.77 1089.41 1146.58 1102.04 1146.96 C 1107.23 1152.88 1117.03 1163.76 1121.59 1169.76 C 1108.44 1170.48 1086.08 1169.37 1072.39 1168.92 C 1069.3 1161.25 1067.38 1154.4 1064.75 1146.6 z" fill="rgb(254,255,253)" transform="translate(0,0)"></path>
<path d="M 977.235 1128.78 C 971.128 1129.05 961.346 1130.4 956.668 1127.02 L 957.138 1126.8 L 957.037 1127.82 L 956.44 1126.82 C 966.411 1123.01 988.053 1124.47 999.76 1123.19 L 990.073 1143.69 L 989.796 1145.5 C 978.309 1167.1 959.879 1194.32 946.688 1216.24 C 902.447 1217.95 850.875 1216.8 805.859 1216.91 C 821.133 1205.06 859.489 1175.08 876.396 1174.61 C 892.606 1174.16 917.667 1175.12 934.991 1174.81 C 942.081 1169.15 945.904 1164.52 950.958 1157.17 C 935.744 1156.96 919.189 1158.17 903.104 1158.05 C 914.375 1150 925.542 1142.55 936.712 1134.27 C 940.937 1134.03 955.488 1132.49 958.065 1133.59 C 956.627 1135.18 955.317 1136.5 953.796 1138.01 L 954.272 1139.49 C 966.31 1137.91 968.802 1137.98 977.235 1128.78 z" fill="rgb(0,255,65)" transform="translate(0,0)"></path>
<path d="M 936.813 1147.42 C 940.215 1146.01 947.49 1142.33 950.779 1142.32 C 961.043 1143.85 978.125 1142.47 990.073 1143.69 L 989.796 1145.5 C 984.054 1146.86 942.644 1148.24 936.813 1147.42 z" fill="rgb(245,254,246)" transform="translate(0,0)"></path>
<path d="M 904.552 1181.41 C 911.06 1180.65 924.038 1180.96 930.72 1181 C 922.357 1188.43 920.068 1192.55 909.25 1192.99 C 899.131 1193.1 889.01 1193.08 878.891 1192.93 C 883.228 1189.19 886.706 1186.2 891.192 1182.65 C 895.764 1182.07 899.987 1181.81 904.552 1181.41 z" fill="url(#Gradient1)" transform="translate(0,0)"></path>
<path d="M 585.889 1213.77 C 595.253 1211.67 615.882 1204.58 624.27 1202.86 C 655.745 1196.4 858.963 1122.15 881.512 1135.65 L 880.996 1137.99 L 882.327 1140.57 C 877.837 1141.59 872.679 1141.82 869.046 1143.09 C 867.911 1141.16 868.146 1141.2 866.225 1140.37 C 857.344 1141.81 850.791 1143.79 842.208 1146.28 C 846.923 1148.85 854.047 1146.84 854.964 1148.7 C 854.723 1149.16 854.483 1149.27 854.055 1149.63 C 842.895 1153.79 830.72 1154.4 819.534 1157.31 C 803.417 1161.49 783.689 1167.1 768.211 1173.31 C 771.632 1175.13 774.538 1174.69 778.477 1175.13 C 792.438 1174.75 806.394 1174.26 820.346 1173.65 C 821.681 1174.67 822.047 1175.27 823.197 1176.63 C 805.956 1180.58 790.106 1184.24 773.293 1189.85 C 765.925 1198.6 761.836 1207.45 755.72 1216.91 L 586.748 1217.13 L 585.889 1213.77 z" fill="rgb(0,200,50)" transform="translate(0,0)"></path>
<path d="M 854.055 1149.63 C 849.157 1148.77 834.332 1149.42 833.22 1148.68 C 832.175 1146.58 841.012 1146.4 842.208 1146.28 C 846.923 1148.85 854.047 1146.84 854.964 1148.7 C 854.723 1149.16 854.483 1149.27 854.055 1149.63 z" fill="rgb(222,255,229)" transform="translate(0,0)"></path>
<path d="M 754.332 1178.36 C 758.643 1176.64 763.772 1174.05 768.211 1173.31 C 771.632 1175.13 774.538 1174.69 778.477 1175.13 C 770.86 1176.5 762.127 1177.3 754.332 1178.36 z" fill="rgb(222,255,229)" transform="translate(0,0)"></path>
<path d="M 866.225 1140.37 C 872.813 1139.44 872.953 1141.03 880.996 1137.99 L 882.327 1140.57 C 877.837 1141.59 872.679 1141.82 869.046 1143.09 C 867.911 1141.16 868.146 1141.2 866.225 1140.37 z" fill="rgb(72,249,122)" transform="translate(0,0)"></path>
<path d="M 1357.22 1163.39 C 1356.17 1163.14 1354.07 1162.9 1353.65 1161.66 C 1355.03 1160.11 1363.99 1161.53 1366.04 1161.87 C 1378.12 1162 1390.22 1162.17 1402.3 1161.94 C 1431.7 1161.38 1461.73 1170.25 1490.73 1175.94 C 1551.04 1187.76 1611.65 1203.81 1672.17 1214.29 L 1668.53 1217.07 C 1640.85 1216.61 1603.25 1219.5 1576.5 1215.23 C 1547.56 1210.62 1515.98 1193.89 1486.31 1189.98 C 1465.65 1187.26 1446.03 1192.01 1425.5 1190.43 C 1417.01 1189.69 1401.33 1183.28 1392.84 1180.06 C 1406.07 1177.9 1443.09 1179.52 1452.69 1176.59 C 1450.53 1175.62 1451.97 1176.08 1449.76 1175.55 C 1432.96 1171.49 1433.93 1168.36 1415.63 1169.19 L 1413.85 1169.73 C 1410.4 1170.77 1409.32 1169.45 1408.94 1173.49 C 1387.21 1176.4 1377.02 1170.94 1357.22 1163.39 z" fill="rgb(0,200,50)" transform="translate(0,0)"></path>
<path d="M 1408.94 1173.49 C 1407.76 1172.85 1401.1 1170.6 1401.59 1169.29 L 1401.7 1169.25 L 1402 1169.5 C 1403.23 1168.32 1412.75 1169.16 1415.63 1169.19 L 1413.85 1169.73 C 1410.4 1170.77 1409.32 1169.45 1408.94 1173.49 z" fill="rgb(245,254,246)" transform="translate(0,0)"></path>
<path d="M 1357.22 1163.39 C 1356.17 1163.14 1354.07 1162.9 1353.65 1161.66 C 1355.03 1160.11 1363.99 1161.53 1366.04 1161.87 C 1362.12 1162.18 1360.64 1161.77 1357.22 1163.39 z" fill="rgb(0,255,65)" transform="translate(0,0)"></path>
<path d="M 382.357 1213.77 C 430.564 1206.48 480.367 1190.78 528.761 1183.61 C 539.777 1181.98 565.387 1182.26 577.093 1182.16 L 672.835 1181.95 C 636.405 1205.01 600.582 1190.62 557.978 1195.81 C 535.704 1198.53 500.911 1212.89 482.999 1215.5 C 462.523 1218.48 407.106 1218.04 384.832 1217.35 L 382.357 1213.77 z" fill="rgb(0,200,50)" transform="translate(0,0)"></path>
<path d="M 1180.88 1144.88 L 1182.11 1144.97 C 1196.54 1145.91 1219.58 1142.24 1230.78 1144.19 C 1262.95 1149.78 1297.86 1167.92 1327.19 1181.19 C 1352.85 1192.76 1378.71 1203.88 1404.76 1214.54 C 1406 1214.86 1407.07 1214.98 1407.96 1215.9 L 1407.97 1216.45 C 1406.86 1217.55 1362.23 1216.87 1356.91 1216.12 C 1329.47 1216.82 1297.91 1175.47 1267.54 1179.9 C 1254.14 1181.86 1238.11 1170.38 1227.7 1162.25 L 1252.89 1162.05 L 1255.75 1159.12 C 1234.37 1153.73 1234.42 1146.75 1209.09 1149.45 L 1207.13 1152.99 C 1210.12 1153.62 1214.14 1154.1 1215.66 1156.83 C 1214.93 1157.38 1214.29 1157.95 1213.39 1158.14 C 1197.24 1161.54 1192.31 1156.17 1180 1149.6 L 1179.64 1149.36 C 1174.39 1145.95 1175.37 1145.66 1180.88 1144.88 z" fill="rgb(0,255,65)" transform="translate(0,0)"></path>
<path d="M 1404.76 1214.54 C 1406 1214.86 1407.07 1214.98 1407.96 1215.9 L 1407.97 1216.45 C 1406.86 1217.55 1362.23 1216.87 1356.91 1216.12 C 1366.97 1215.14 1399.42 1217.1 1404.76 1214.54 z" fill="rgb(0,200,50)" transform="translate(0,0)"></path>
<path d="M 1255.75 1159.12 C 1258.33 1159.63 1260.99 1159.75 1262.98 1161.47 C 1262.45 1162.49 1253.95 1162.06 1252.89 1162.05 L 1255.75 1159.12 z" fill="rgb(222,255,229)" transform="translate(0,0)"></path>
<path d="M 1207.13 1152.99 C 1197.23 1150.88 1205.19 1150.07 1209.09 1149.45 L 1207.13 1152.99 z" fill="rgb(222,255,229)" transform="translate(0,0)"></path>
<path d="M 1180 1149.6 L 1179.64 1149.36 C 1174.39 1145.95 1175.37 1145.66 1180.88 1144.88 C 1180.61 1146.46 1180.32 1148.03 1180 1149.6 z" fill="rgb(0,200,50)" transform="translate(0,0)"></path>
<path d="M 1025.69 918.424 L 1037.92 918.737 L 1037.56 1055.13 C 1037.57 1072.43 1037.57 1089.83 1037.83 1107.14 C 1037.91 1112.78 1037.72 1115.56 1041.74 1119.9 C 1037.09 1121.79 1033.28 1119.6 1028.87 1117.47 C 1024.11 1105.87 1025.69 1055.69 1025.71 1040.62 L 1025.69 918.424 z" fill="rgb(0,255,65)" transform="translate(0,0)"></path>
<path d="M 951.084 772.289 L 963.863 772.78 L 963.791 923.039 L 950.979 923.138 L 951.084 772.289 z" fill="rgb(0,200,50)" transform="translate(0,0)"></path>
<path d="M 1112.84 992.16 L 1125.47 992.198 L 1125.41 1067.85 C 1125.36 1076.53 1124.5 1104.26 1125.86 1111.33 C 1137.02 1110.98 1188.55 1122.85 1193.3 1130.72 C 1164.99 1132.48 1153.53 1121.08 1126.5 1113.52 C 1122.71 1112.79 1116.92 1111.11 1113.02 1110.11 L 1112.84 992.16 z" fill="rgb(0,255,65)" transform="translate(0,0)"></path>
<path d="M 1122.74 819.483 L 1124.36 819.494 C 1125.14 820.929 1126.34 943.816 1124.76 953.099 C 1122.16 954.24 1117.82 953.944 1114.78 953.962 L 1113.01 953.64 L 1111.99 951.988 L 1111.98 858.656 C 1111.98 852.617 1111.54 824.874 1112.52 821.151 C 1115.32 819.33 1119.24 819.622 1122.74 819.483 z" fill="rgb(0,200,50)" transform="translate(0,0)"></path>
<path d="M 921.455 986.081 L 933.94 986.147 C 933.826 1026.46 934.517 1070.17 933.22 1110.14 C 918.575 1120.58 914.65 1124.03 896.861 1126.65 C 895.317 1125.93 894.61 1126.09 894.217 1124.37 C 905.555 1120.67 912.307 1115.13 921.995 1108.4 C 919.658 1071.84 921.631 1023.75 921.455 986.081 z" fill="rgb(0,255,65)" transform="translate(0,0)"></path>
<path d="M 952.197 986.58 L 966.037 986.603 C 966.326 1027.64 965.974 1068.68 964.981 1109.71 C 958.039 1111.13 954.296 1112.32 947.559 1114.58 C 943.459 1116.45 938.914 1118.17 934.707 1119.86 C 941.645 1112.94 943.883 1111.74 952.697 1108.52 L 952.197 986.58 z" fill="rgb(0,255,65)" transform="translate(0,0)"></path>
<path d="M 1052.96 765.101 L 1068.1 764.979 C 1068.34 789.19 1069.13 832.39 1067.68 855.811 C 1064.74 855.923 1056.74 857.101 1054.49 855.061 C 1051.74 852.573 1052.82 775.058 1052.96 765.101 z" fill="rgb(0,200,50)" transform="translate(0,0)"></path>
<path d="M 1053.51 916.945 L 1067.45 917.062 C 1067.01 945.754 1067.32 974.353 1067.01 1002.98 C 1062.78 1003.02 1058.55 1002.99 1054.33 1002.9 C 1053.45 975.594 1053.25 944.374 1053.51 916.945 z" fill="rgb(0,255,65)" transform="translate(0,0)"></path>
<path d="M 845.055 1123.36 C 848.539 1122.91 853.071 1122.16 856.482 1122.08 L 855.084 1122.26 L 859.15 1122.55 C 853.732 1125.29 847.735 1126.28 841.758 1127.65 C 812.657 1136.89 707.041 1163.75 681.072 1162.4 C 697.027 1157.18 712.51 1151.72 728.828 1147.63 C 767.175 1138.02 806.283 1131.12 845.055 1123.36 z" fill="rgb(0,255,65)" transform="translate(0,0)"></path>
<path d="M 981.538 1057.99 L 1007.35 1058.14 C 1007.66 1072.34 1008.59 1094.2 1006.72 1108.38 C 1006.42 1110.71 1002.55 1115.38 1000.98 1117.26 C 996.437 1119.84 992.9 1119.89 987.778 1120.72 C 984.954 1122.28 983.109 1122.32 982.345 1118.94 L 981.982 1117.48 C 982.939 1116.39 987.404 1113.26 989.254 1111.64 C 990.295 1112.19 990.947 1112.65 991.918 1113.3 C 993.435 1112.01 996 1109.81 995.957 1107.5 C 995.713 1094.55 996.494 1081.06 995.444 1068.27 C 994.51 1067.15 991.301 1067.28 990.647 1068.28 C 988.522 1071.52 991.752 1079.29 986.048 1080 C 982.689 1080.42 981.488 1079.88 981.483 1076.51 L 981.538 1057.99 z" fill="rgb(0,255,65)" transform="translate(0,0)"></path>
<path d="M 989.254 1111.64 C 990.295 1112.19 990.947 1112.65 991.918 1113.3 L 990.495 1115.64 C 987.027 1117.36 983.407 1118.56 987.778 1120.72 C 984.954 1122.28 983.109 1122.32 982.345 1118.94 L 981.982 1117.48 C 982.939 1116.39 987.404 1113.26 989.254 1111.64 z" fill="rgb(245,254,246)" transform="translate(0,0)"></path>
<path d="M 990.838 988.938 L 1005.23 988.978 C 1005.12 1009.19 1005.45 1029.73 1005.13 1049.87 C 1000.38 1050.02 995.636 1050.06 990.89 1049.98 L 990.838 988.938 z" fill="rgb(0,255,65)" transform="translate(0,0)"></path>
<path d="M 1025.35 844.909 L 1037.96 844.922 C 1038.07 863.458 1038.81 890.572 1037.82 908.54 C 1033.79 908.574 1029.59 908.747 1025.59 908.696 C 1025.52 887.793 1024.96 865.756 1025.35 844.909 z" fill="rgb(0,200,50)" transform="translate(0,0)"></path>
<path d="M 1242.61 1132.84 C 1247.27 1132.05 1247.93 1132.09 1252.6 1132.88 C 1275.98 1133.22 1300.64 1144.14 1323.69 1148.52 C 1336.73 1151 1348.64 1148.19 1360.85 1151.3 L 1361.92 1155.26 C 1352.77 1155.64 1330.45 1156.93 1322.13 1155.46 C 1299.94 1151.55 1275.82 1142.21 1253.39 1136.09 L 1242.76 1133.71 L 1242.61 1132.84 z" fill="rgb(0,255,65)" transform="translate(0,0)"></path>
<path d="M 1086.71 1112.08 C 1086.83 1106.66 1084.26 1093.37 1090.44 1093.3 C 1092.95 1093.28 1095.47 1093.22 1097.98 1093.12 C 1097.9 1099.64 1097.79 1104.32 1097.3 1110.82 C 1108.39 1114.76 1118.43 1118.46 1129.26 1123.51 C 1139.81 1126.69 1158 1134.03 1169.53 1138.14 C 1149.21 1138.07 1143.44 1139.76 1124.69 1129.27 C 1110.9 1123.93 1101.4 1116.58 1086.71 1112.08 z" fill="rgb(0,255,65)" transform="translate(0,0)"></path>
<path d="M 1129.26 1123.51 C 1139.81 1126.69 1158 1134.03 1169.53 1138.14 C 1149.21 1138.07 1143.44 1139.76 1124.69 1129.27 C 1124.66 1128.75 1124.64 1128.24 1124.61 1127.72 C 1126.39 1128.72 1153.43 1141.69 1153.8 1134.95 C 1152.25 1132.76 1130.69 1126.23 1128.88 1124.22 C 1129.01 1123.98 1129.13 1123.75 1129.26 1123.51 z" fill="rgb(0,200,50)" transform="translate(0,0)"></path>
<path d="M 988.733 807.495 C 996.262 807.798 1005.51 807.667 1013.11 807.652 C 1013.06 813.784 1013.46 831.145 1012.59 837.505 C 1012.28 838.033 1010.91 838.185 1010.53 838.216 C 1001.05 838.982 1003.04 837.283 1003.02 826.75 C 1003.02 825.986 1003.39 820.806 1002.33 820.464 C 989.546 816.36 1006.06 843.915 988.503 837.979 C 987.582 836.715 987.891 829.5 987.937 829.001 C 988.512 822.777 986.843 813.169 988.733 807.495 z" fill="rgb(0,255,65)" transform="translate(0,0)"></path>
<path d="M 1085.43 906.033 C 1091.07 906.521 1093.22 906.414 1098.68 906.198 C 1098.88 921.931 1098.94 937.666 1098.87 953.4 C 1094.42 953.261 1090.1 953.238 1085.66 953.194 C 1085.44 938.118 1085.01 920.987 1085.43 906.033 z" fill="rgb(0,255,65)" transform="translate(0,0)"></path>
<path d="M 920.185 902.283 L 931.998 902.858 C 932.005 920.934 932.355 936.096 932.7 953.914 C 928.486 953.914 924.272 953.875 920.059 953.799 C 919.985 939.351 919.292 916.172 920.185 902.283 z" fill="rgb(0,255,65)" transform="translate(0,0)"></path>
<path d="M 1023.97 786.499 C 1031.02 786.722 1038.07 786.752 1045.12 786.589 C 1045.19 794.557 1045.89 808.363 1044.59 816.317 C 1044.47 817.056 1037.7 817.225 1037 815.962 C 1035.29 812.843 1035.84 806.573 1035.72 802.751 C 1035.7 801.718 1035.99 799.231 1034.63 798.76 C 1031.98 799.427 1030.65 818.004 1023.5 817.063 C 1023.13 817.014 1021.56 816.89 1021.47 816.329 C 1020.09 807.135 1022.69 795.927 1023.97 786.499 z" fill="rgb(0,200,50)" transform="translate(0,0)"></path>
<path d="M 988.786 924.158 C 993.547 924.278 998.309 924.331 1003.07 924.318 L 1003.07 964.745 L 988.833 964.901 C 988.95 951.32 988.934 937.739 988.786 924.158 z" fill="rgb(0,255,65)" transform="translate(0,0)"></path>
<path d="M 1085.95 987.279 C 1090.4 987.298 1094.26 987.385 1098.72 987.605 C 1098.92 1001.85 1098.99 1016.09 1098.93 1030.33 C 1094.62 1030.34 1090.31 1030.31 1086 1030.22 C 1085.93 1016.66 1085.49 1000.66 1085.95 987.279 z" fill="rgb(0,255,65)" transform="translate(0,0)"></path>
<path d="M 1085.31 835.139 L 1098.67 835.212 C 1098.81 840.835 1099.33 871.319 1098.55 875.558 C 1092.49 875.151 1091.26 875.35 1085.37 875.844 C 1085.53 862.248 1085.23 848.714 1085.31 835.139 z" fill="rgb(0,200,50)" transform="translate(0,0)"></path>
<path d="M 988.445 860.295 C 992.629 860.31 996.813 860.286 1001 860.224 C 1000.97 865.869 1001.87 896.742 999.834 899.232 C 995.888 899.418 992.237 899.592 988.279 899.599 C 988.494 886.499 988.549 873.397 988.445 860.295 z" fill="rgb(0,200,50)" transform="translate(0,0)"></path>
<path d="M 987.961 767.998 L 1005.03 767.934 L 1005.01 796.481 C 999.335 796.401 993.66 796.401 987.987 796.482 L 987.961 767.998 z" fill="rgb(0,200,50)" transform="translate(0,0)"></path>
<path d="M 1108.49 731.12 L 1125.28 730.944 C 1125.21 736.248 1125.53 753.809 1124.8 757.886 C 1118.68 758.197 1113.87 758.778 1107.81 759.419 C 1107.89 750.568 1107.43 739.63 1108.49 731.12 z" fill="rgb(0,200,50)" transform="translate(0,0)"></path>
<path d="M 1087.32 1045.05 C 1106.31 1044.83 1097.49 1044.94 1099.27 1064.52 C 1099.93 1071.7 1091.75 1065.58 1089.1 1068.31 C 1087.55 1069.9 1087.94 1076.48 1087.79 1078.99 C 1085.43 1081.06 1079.7 1086.77 1079.94 1079.01 C 1080.11 1073.6 1079.23 1066.25 1080.6 1061.32 C 1080.92 1060.13 1085.99 1061.41 1086.75 1060.35 C 1087.98 1057 1087.23 1048.76 1087.32 1045.05 z" fill="rgb(0,255,65)" transform="translate(0,0)"></path>
<path d="M 954.395 931.177 C 958.031 931.171 961.603 931.224 965.249 931.186 C 965.164 938.506 965.154 945.827 965.22 953.147 C 954.375 955.004 950.804 953.71 955.293 965.813 C 951.715 966.163 948.168 966.558 944.572 966.519 C 944.568 961.082 944.285 955.413 944.858 949.975 C 945.541 943.485 953.996 949.496 954.521 947.805 C 955.738 943.883 955.059 935.293 954.395 931.177 z" fill="rgb(0,255,65)" transform="translate(0,0)"></path>
<path d="M 1027.88 750.862 C 1032.94 750.892 1038 750.886 1043.06 750.844 L 1043.08 776.79 C 1038.05 776.894 1033.01 776.931 1027.98 776.9 C 1028.01 768.22 1027.97 759.541 1027.88 750.862 z" fill="rgb(0,200,50)" transform="translate(0,0)"></path>
<path d="M 925.426 815.153 C 926.212 815.2 932.863 815.236 932.678 816.602 C 931.356 826.321 938.103 835.482 928.156 838.751 C 927.041 838.629 921.533 838.527 921.238 837.426 C 919.594 831.301 920.084 822.949 920.757 816.627 C 920.851 815.737 924.98 815.232 925.426 815.153 z" fill="rgb(0,200,50)" transform="translate(0,0)"></path>
<path d="M 1054.93 1040.09 C 1054.85 1030.49 1052.31 1027.94 1062.53 1028.79 C 1069.22 1029.35 1067.25 1034.81 1067.11 1041.29 C 1067.02 1043.07 1067.84 1049.96 1065.53 1049.95 C 1053.79 1049.9 1054.72 1051.38 1054.93 1040.09 z" fill="rgb(0,255,65)" transform="translate(0,0)"></path>
<path d="M 1107.64 768.007 C 1111.67 768.108 1117.97 766.566 1117.87 770.96 C 1117.7 778.046 1117.66 785.597 1117.53 792.668 C 1115.87 792.808 1108.63 793.534 1108.22 792.603 C 1106.9 789.55 1107.58 770.952 1107.64 768.007 z" fill="rgb(0,255,65)" transform="translate(0,0)"></path>
<path d="M 872.908 1155.46 C 881.4 1154.49 867.742 1162.96 866.107 1164.49 C 855.744 1163.2 851.231 1163.13 840.75 1163.01 C 840.177 1162.97 833.315 1162.21 836.194 1160.34 C 844.105 1155.2 863.99 1156.35 872.908 1155.46 z" fill="rgb(0,255,65)" transform="translate(0,0)"></path>
<path d="M 1055.47 862.993 L 1067.94 862.915 C 1067.93 865.46 1068.58 875.328 1067.2 877.235 C 1065.81 879.168 1060.67 875.589 1061.55 880.047 C 1061.43 880.985 1061.32 881.926 1061.23 882.869 C 1060.95 886.049 1060.12 889.755 1056.39 887.262 C 1054.82 886.213 1055.43 865.673 1055.47 862.993 z" fill="rgb(0,200,50)" transform="translate(0,0)"></path>
<path d="M 920.552 845.038 L 933.204 844.996 L 933.098 860.344 C 929.405 860.898 926.086 861.115 922.413 861.802 C 922.646 863.281 923.585 868.963 921.427 869.834 C 918.753 868.722 920.089 848.168 920.552 845.038 z" fill="rgb(0,200,50)" transform="translate(0,0)"></path>
<path d="M 956.544 1120.08 C 960.866 1117.93 968.91 1113.51 973.563 1112.43 C 982.017 1110.46 981.52 1096.84 989.254 1111.64 C 987.404 1113.26 982.939 1116.39 981.982 1117.48 C 972.938 1120.64 966.057 1120.1 956.544 1120.08 z" fill="rgb(0,255,65)" transform="translate(0,0)"></path>
<path d="M 902.995 1132.53 L 904.431 1131.66 L 905.857 1130.77 C 914.937 1125.2 922.383 1124.78 932.62 1123.49 C 927.675 1127.52 922.639 1131.44 917.516 1135.24 C 915.069 1135.73 899.666 1136.6 898.858 1135.36 C 899.611 1133.82 901.435 1133.19 902.995 1132.53 z" fill="rgb(0,255,65)" transform="translate(0,0)"></path>
<path d="M 1199.32 1131.9 C 1209.77 1132.11 1220.37 1134.85 1229.61 1134.93 L 1229.1 1137.23 C 1218.52 1140.88 1209.78 1138.2 1199.52 1135.49 L 1199.32 1131.9 z" fill="rgb(0,255,65)" transform="translate(0,0)"></path>
<path d="M 882.327 1140.57 C 883.48 1140.29 892.296 1137.85 892.901 1138.6 C 896.403 1142.95 891.86 1144.47 888.004 1143.88 C 884.658 1143.36 871.094 1146.05 868.707 1145.06 C 868.533 1144.48 868.899 1143.62 869.046 1143.09 C 872.679 1141.82 877.837 1141.59 882.327 1140.57 z" fill="rgb(0,255,65)" transform="translate(0,0)"></path>
<path d="M 820.346 1173.65 C 821.9 1173.2 834.754 1172.28 837.63 1171.98 C 832.455 1174.52 829.151 1175.93 823.197 1176.63 C 822.047 1175.27 821.681 1174.67 820.346 1173.65 z" fill="rgb(0,255,65)" transform="translate(0,0)"></path>
<path d="M 366.379 1217.21 C 371.553 1215.93 377.079 1214.49 382.357 1213.77 L 384.832 1217.35 C 377.919 1217.63 373.283 1217.54 366.379 1217.21 z" fill="rgb(0,255,65)" transform="translate(0,0)"></path>
<path d="M 1672.17 1214.29 C 1675.65 1214.24 1683.19 1215.85 1686.76 1216.56 C 1680.27 1216.93 1675.08 1217.19 1668.53 1217.07 L 1672.17 1214.29 z" fill="rgb(0,255,65)" transform="translate(0,0)"></path>
<path d="M 1229.61 1134.93 C 1231.66 1133.72 1239.88 1133.22 1242.61 1132.84 L 1242.76 1133.71 L 1241.21 1134.17 C 1236.91 1135.54 1233.96 1135.42 1229.1 1137.23 L 1229.61 1134.93 z" fill="rgb(245,254,246)" transform="translate(0,0)"></path>
<path d="M 1360.85 1151.3 C 1369.65 1153.01 1376.09 1155.7 1361.92 1155.26 L 1360.85 1151.3 z" fill="rgb(0,200,50)" transform="translate(0,0)"></path>
<path d="M 586.748 1217.13 C 585.124 1217.26 579.736 1218.2 578.628 1217.21 C 578.11 1215.41 584.836 1214.11 585.889 1213.77 L 586.748 1217.13 z" fill="rgb(0,255,65)" transform="translate(0,0)"></path>
<path d="M 896.861 1126.65 C 891.107 1127.83 885.378 1126.46 894.217 1124.37 C 894.61 1126.09 895.317 1125.93 896.861 1126.65 z" fill="rgb(72,249,122)" transform="translate(0,0)"></path>
<path d="M 1193.3 1130.72 C 1195.3 1131.14 1197.3 1131.54 1199.32 1131.9 L 1199.52 1135.49 C 1195.84 1133.6 1196.08 1133.79 1193.3 1130.72 z" fill="rgb(0,200,50)" transform="translate(0,0)"></path>
<path d="M 968.418 731.354 C 969.832 732.525 969.131 733.335 968.445 734.796 C 965.789 733.624 966.569 733.123 968.418 731.354 z" fill="rgb(0,200,50)" transform="translate(0,0)"></path>
<metadata><recraft-signature>{"signed_by": "recraft", "signature_b64": "hFqFnMYVBqxaE7ZuVrLYWQl1Cq6Y2rJk6TKyhwLFCLRRDSEWFhlYHbyjCAtPKkFVCLQfGbCXMUT+QmTCmeMbDQ==", "signing_algo": "Ed25519", "generation_timestamp": 1772834335, "identifier": "c69456b7-df1c-4788-a7e0-c03794598ac2"}</recraft-signature></metadata></svg>