<svg xmlns="http://www.w3.org/2000/svg" height="1024" preserveAspectRatio="none" style="display: block;" version="1.1" viewBox="0 0 2048 2048" width="1024">
<path d="M 0 0 L 2048 0 L 2048 2048 L 0 2048 L 0 0 z" fill="rgb(255,255,255)" transform="translate(0,0)"></path>
<path d="M 565.134 900.858 C 572.194 888.857 644.433 814.195 657.312 804.674 C 665.415 798.684 675.249 794.415 684.983 791.924 C 703.845 787.098 725.114 788.907 744.475 788.96 L 810.537 789.105 C 835.686 789.068 862.697 786.984 887.541 789.301 C 894.114 789.914 900.04 791.147 905.726 794.637 C 919.597 803.151 1003.07 888.87 1012.9 903.048 C 1016.52 908.265 1019.04 914.645 1020.39 920.851 C 1020.92 923.292 1021.17 925.786 1021.38 928.27 C 1021.7 930.292 1021.99 932.321 1022.24 934.353 C 1021.19 981.304 1022.44 1028.58 1021.86 1075.56 C 1021.79 1081.1 1021.46 1088.26 1022.04 1093.64 L 1021.66 1113.39 C 1021.67 1129.49 1021.42 1160.08 1019.21 1175.19 C 1017.32 1199.57 1009.74 1221.48 990.702 1237.87 C 976.009 1250.72 956.703 1257.01 937.258 1255.29 C 920.735 1253.97 905.454 1246 894.908 1233.22 C 890.862 1228.42 887.614 1223.01 885.29 1217.18 C 875.704 1198.56 879.348 1140.11 879.533 1115.98 L 685.956 1116.09 C 685.908 1166.66 699.371 1226.17 642.543 1250.42 C 625.317 1257.72 605.878 1257.77 588.613 1250.57 C 563.674 1240.16 545.507 1214.11 544.599 1187.1 C 544.088 1171.91 544.301 1156.66 544.318 1141.45 L 544.452 1057.58 L 544.454 987.366 C 544.45 967.659 542.35 943.921 550.284 925.83 C 552.355 919.99 560.495 904.833 565.134 900.858 z" fill="rgb(0,255,65)" transform="translate(0,0)"></path>
<path d="M 550.284 925.83 L 550.168 926.648 C 549.354 932.018 546.45 940.89 546.289 945.133 C 545.62 962.869 545.896 981.406 545.922 999.145 L 546.047 1102.98 L 545.858 1155.99 C 545.813 1167.35 545.313 1182.2 546.821 1193.21 C 548.367 1204.65 552.739 1215.53 559.543 1224.86 C 597.04 1277.18 677.017 1254.8 684.437 1191.68 C 683.826 1187.3 683.938 1168.27 684.03 1162.97 C 684.258 1149.81 683.477 1134.73 684.115 1121.83 C 683.874 1118.75 683.478 1117.6 684.99 1114.93 C 688.241 1113.04 693.273 1113.93 697.263 1114.16 C 720.394 1112.65 758.202 1114.21 783.067 1114.13 L 844.74 1113.95 C 853.483 1113.94 867.956 1113.53 876.262 1114.17 L 879.846 1114.53 C 883.48 1120.71 879.103 1187.92 881.116 1199.28 C 882.084 1204.74 884.61 1211.79 885.29 1217.18 C 875.704 1198.56 879.348 1140.11 879.533 1115.98 L 685.956 1116.09 C 685.908 1166.66 699.371 1226.17 642.543 1250.42 C 625.317 1257.72 605.878 1257.77 588.613 1250.57 C 563.674 1240.16 545.507 1214.11 544.599 1187.1 C 544.088 1171.91 544.301 1156.66 544.318 1141.45 L 544.452 1057.58 L 544.454 987.366 C 544.45 967.659 542.35 943.921 550.284 925.83 z" fill="rgb(2,65,7)" transform="translate(0,0)"></path>
<path d="M 697.263 1114.16 C 720.394 1112.65 758.202 1114.21 783.067 1114.13 L 844.74 1113.95 C 853.483 1113.94 867.956 1113.53 876.262 1114.17 C 847.39 1116.15 809.625 1114.95 779.872 1115.22 C 758.875 1115.41 716.924 1116.22 697.263 1114.16 z" fill="rgb(7,126,9)" transform="translate(0,0)"></path>
<path d="M 684.115 1121.83 C 685.124 1127.41 686.126 1188.67 684.437 1191.68 C 683.826 1187.3 683.938 1168.27 684.03 1162.97 C 684.258 1149.81 683.477 1134.73 684.115 1121.83 z" fill="rgb(0,200,50)" transform="translate(0,0)"></path>
<path d="M 565.134 900.858 C 572.194 888.857 644.433 814.195 657.312 804.674 C 665.415 798.684 675.249 794.415 684.983 791.924 C 703.845 787.098 725.114 788.907 744.475 788.96 L 810.537 789.105 C 835.686 789.068 862.697 786.984 887.541 789.301 C 894.114 789.914 900.04 791.147 905.726 794.637 C 919.597 803.151 1003.07 888.87 1012.9 903.048 C 1016.52 908.265 1019.04 914.645 1020.39 920.851 C 1020.92 923.292 1021.17 925.786 1021.38 928.27 C 1018.61 919.484 1015.1 906.811 1007.46 898.735 C 975.526 865.006 939.279 826.242 904.912 795.496 C 898.547 789.801 858.4 790.914 848.963 790.932 L 786.485 791.01 L 729.419 791.012 C 717.916 791.009 701.013 790.415 690.058 792.52 C 676.652 795.073 664.134 801.049 653.72 809.868 C 644.735 817.553 632.582 830.909 624.046 839.8 L 585.461 879.602 C 579.342 885.999 571.657 895.516 565.134 900.858 z" fill="rgb(0,0,0)" transform="translate(0,0)"></path>
<path d="M 1019.21 1175.19 C 1016.75 1158.94 1020.7 1139.78 1019.7 1123.15 C 1019.45 1119.08 1020.55 1117.3 1021.66 1113.39 C 1021.67 1129.49 1021.42 1160.08 1019.21 1175.19 z" fill="rgb(0,200,50)" transform="translate(0,0)"></path>
<path d="M 658.475 1022.08 C 668.481 1021.31 687.048 1021.85 697.795 1021.81 L 775.676 1021.6 L 857.419 1021.72 C 873.644 1021.77 890.908 1021.51 906.988 1022.62 C 915.47 1023.68 926.093 1024.36 933.113 1029.51 C 941.654 1035.77 940.845 1047.1 933.501 1054.09 C 921.671 1065.35 903.528 1065.12 888.25 1065.39 L 604.855 1066.24 C 623.907 1053.35 639.655 1034.12 658.475 1022.08 z" fill="rgb(0,0,0)" transform="translate(0,0)"></path>
<path d="M 669.882 845.87 C 674.88 841.324 684.993 831.918 691.441 831.35 C 716.187 829.168 746.562 829.865 771.309 829.84 L 850.7 829.835 C 865.69 829.846 880.608 829.692 895.687 830.156 C 905.564 830.414 910.237 831.687 917.26 838.754 C 925.863 847.412 926.314 867.87 916.966 875.405 C 908.435 882.281 885.484 879.785 874.634 879.581 C 861.285 879.44 847.936 879.39 834.587 879.43 L 670.279 879.37 L 637.542 879.579 C 647.133 867.577 658.855 856.598 669.882 845.87 z" fill="rgb(0,0,0)" transform="translate(0,0)"></path>
<path d="M 687.505 925.489 L 841.42 924.972 C 847.134 924.996 880.681 923.661 882.616 927.464 L 881.493 929.719 C 881.14 941.153 881.226 951.858 881.367 963.283 C 883.843 966.652 882.096 977.897 881.645 982.388 C 816.476 982.221 752.907 980.642 687.591 982.473 L 687.505 925.489 z" fill="rgb(255,255,255)" transform="translate(0,0)"></path>
<path d="M 687.505 925.489 L 841.42 924.972 C 847.134 924.996 880.681 923.661 882.616 927.464 L 881.493 929.719 L 880.419 927.367 C 860.031 926.416 834.168 927.094 813.458 927.075 L 689.558 927.267 C 689.654 944.781 689.915 962.565 689.783 980.056 L 881.366 980.007 L 881.367 963.283 C 883.843 966.652 882.096 977.897 881.645 982.388 C 816.476 982.221 752.907 980.642 687.591 982.473 L 687.505 925.489 z" fill="rgb(0,200,50)" transform="translate(0,0)"></path>
<path d="M 923.936 1109.66 C 925.519 1098.9 931.834 1089.46 940.668 1083.58 C 955.662 1073.6 964.038 1068.64 977.363 1056.3 C 979.242 1098.71 977.444 1142.06 978.264 1184.5 C 978.439 1193.56 977.146 1207.16 970.224 1212.97 C 949.371 1230.47 930.952 1220.7 923.164 1198.88 C 922.385 1186.85 923.299 1166.66 923.067 1154.19 C 922.909 1145.68 922.458 1116.63 923.936 1109.66 z" fill="rgb(0,0,0)" transform="translate(0,0)"></path>
<path d="M 923.164 1198.88 C 922.385 1186.85 923.299 1166.66 923.067 1154.19 C 922.909 1145.68 922.458 1116.63 923.936 1109.66 C 925.187 1120.26 924.043 1136.54 924.207 1148.33 C 934.158 1147.96 941.28 1147.57 951.419 1148.62 C 952.435 1160.77 954.084 1184.89 949.402 1195.94 C 947.432 1200.59 926.529 1192.74 923.164 1198.88 z" fill="rgb(2,65,7)" transform="translate(0,0)"></path>
<path d="M 592.884 1092.68 L 620.099 1092.99 L 643.451 1093.34 L 644.02 1164.47 C 644.062 1172.12 644.594 1194.51 643.174 1201.34 C 635.586 1225.18 596.41 1225.35 592.68 1199.48 C 590.903 1187.16 591.682 1172.96 591.839 1160.42 L 592.884 1092.68 z" fill="rgb(0,0,0)" transform="translate(0,0)"></path>
<path d="M 925.825 921.64 C 928.406 914.649 933.42 908.812 940.248 905.622 C 947.259 902.346 957.696 902.465 964.744 905.541 C 969.373 907.561 973.468 911.381 975.048 916.269 C 979.202 929.116 976.736 998.816 976.164 1016.2 C 957.166 1007.81 932.105 1003.19 926.247 981.867 C 925.218 970.581 923.916 931.699 925.825 921.64 z" fill="rgb(0,0,0)" transform="translate(0,0)"></path>
<path d="M 926.247 981.867 C 925.218 970.581 923.916 931.699 925.825 921.64 C 926.178 925.942 926.108 929.788 926.435 933.968 C 935.256 934.016 944.04 933.918 952.857 934.208 C 953.927 947.766 954.158 968.294 953.452 981.925 C 944.416 982.242 935.188 983.078 926.247 981.867 z" fill="rgb(2,65,7)" transform="translate(0,0)"></path>
<path d="M 592.945 1018.94 C 592.903 990.573 592.043 962.4 594.503 934.122 C 597.33 901.627 642.738 903.902 645.112 929.629 C 646.509 940.359 647.494 988.542 641.923 995.278 C 633.21 1005.84 606.315 1015.31 592.945 1018.94 z" fill="rgb(0,0,0)" transform="translate(0,0)"></path>
<path d="M 1027.84 844.567 C 1031.83 826.061 1043.77 809.873 1059.6 799.678 C 1074.38 790.338 1092.28 787.282 1109.33 791.188 C 1134.05 796.733 1151.12 820.299 1169.47 837.567 C 1213.44 879.39 1257.01 921.645 1300.15 964.327 L 1346.3 1009.34 C 1348.74 1011.71 1361.16 1023.37 1362.18 1024.99 C 1365.89 1027.33 1369.65 1031.18 1372.92 1034.23 L 1372.97 910.859 C 1372.96 894.707 1371.83 855.657 1374.9 842.657 C 1378.96 803.208 1434.33 776.96 1467.9 796.983 C 1483.66 806.387 1494.81 816.095 1500.79 833.948 C 1505.73 847.452 1506.07 865.626 1505.85 880.032 C 1505.39 909.85 1507.73 942.003 1505.94 971.623 C 1506.98 999.348 1505.52 1032.17 1505.51 1060.51 C 1505.5 1082.22 1506.36 1113.43 1505.05 1134.34 C 1506.17 1143.65 1505.13 1196.98 1503.09 1205.23 C 1500.3 1219.39 1492.56 1232.09 1481.26 1241.07 C 1467.26 1252.11 1449.47 1257.19 1431.75 1255.21 C 1403.09 1252.22 1381.87 1229.2 1362.59 1210.07 L 1331.02 1178.68 C 1321.03 1168.73 1294.89 1144.05 1286.83 1134.08 C 1282.4 1130.72 1279.01 1127.21 1275.08 1123.34 C 1237.77 1086.5 1200.9 1048.49 1162.03 1013.33 L 1161.99 1130.84 C 1162.05 1151.66 1165.51 1201.99 1154.49 1218.13 C 1151.49 1226.54 1140.14 1239.74 1132.14 1243.56 C 1130.85 1244.63 1130.34 1245.12 1128.99 1245.93 C 1114.09 1254.79 1096.28 1257.34 1079.5 1253.03 C 1065.99 1249.58 1049.44 1240.37 1042.1 1228.17 C 1021.87 1214.97 1025.92 1152.95 1025.74 1131.73 C 1023.73 1128.81 1024.57 1070.41 1024.47 1061.7 C 1024.22 1069.09 1023.48 1086.63 1022.04 1093.64 C 1021.46 1088.26 1021.79 1081.1 1021.86 1075.56 C 1022.44 1028.58 1021.19 981.304 1022.24 934.353 C 1024.49 940.65 1023.17 984.233 1024.14 996.907 C 1025.17 981.357 1022.22 940.225 1025.88 928.369 C 1026.85 903.731 1024.01 867.451 1027.84 844.567 z" fill="rgb(0,255,65)" transform="translate(0,0)"></path>
<path d="M 1160.88 1009.26 C 1192.39 1038.64 1222.94 1068.45 1253.19 1099.12 C 1260.1 1106.12 1282.65 1127.6 1286.83 1134.08 C 1282.4 1130.72 1279.01 1127.21 1275.08 1123.34 C 1237.77 1086.5 1200.9 1048.49 1162.03 1013.33 L 1161.99 1130.84 C 1162.05 1151.66 1165.51 1201.99 1154.49 1218.13 C 1155.6 1213.06 1158.42 1206.41 1158.72 1201.45 C 1162.59 1138 1157.78 1072.72 1160.88 1009.26 z" fill="rgb(0,200,50)" transform="translate(0,0)"></path>
<path d="M 1022.24 934.353 C 1024.49 940.65 1023.17 984.233 1024.14 996.907 C 1025.17 981.357 1022.22 940.225 1025.88 928.369 C 1026.15 941.782 1025.6 958.964 1026.26 971.607 C 1025.92 1007.86 1025.79 1044.12 1025.87 1080.37 C 1025.85 1093.97 1026.61 1119.06 1025.74 1131.73 C 1023.73 1128.81 1024.57 1070.41 1024.47 1061.7 C 1024.22 1069.09 1023.48 1086.63 1022.04 1093.64 C 1021.46 1088.26 1021.79 1081.1 1021.86 1075.56 C 1022.44 1028.58 1021.19 981.304 1022.24 934.353 z" fill="rgb(231,216,234)" transform="translate(0,0)"></path>
<path d="M 1372.92 1034.23 L 1372.97 910.859 C 1372.96 894.707 1371.83 855.657 1374.9 842.657 C 1376.39 857.345 1375.56 902.64 1375.35 919.36 C 1374.89 956.627 1376.67 1001.69 1374.01 1038 C 1370.21 1034.21 1364.89 1029.42 1362.18 1024.99 C 1365.89 1027.33 1369.65 1031.18 1372.92 1034.23 z" fill="rgb(0,200,50)" transform="translate(0,0)"></path>
<path d="M 1500.79 833.948 C 1505.73 847.452 1506.07 865.626 1505.85 880.032 C 1505.39 909.85 1507.73 942.003 1505.94 971.623 C 1504 964.937 1504.86 944.671 1504.74 936.595 C 1504.27 905.306 1505.14 872.357 1501.37 841.345 C 1500.89 837.397 1500.49 838.281 1500.79 833.948 z" fill="rgb(0,200,50)" transform="translate(0,0)"></path>
<path d="M 1025.88 928.369 C 1026.85 903.731 1024.01 867.451 1027.84 844.567 C 1028.7 851.018 1027.55 968.875 1026.79 971.133 L 1026.26 971.607 C 1025.6 958.964 1026.15 941.782 1025.88 928.369 z" fill="rgb(0,200,50)" transform="translate(0,0)"></path>
<path d="M 1042.1 1228.17 L 1044.02 1229.49 C 1046.81 1231.41 1049.59 1235.07 1052.39 1237.36 C 1068.92 1250.91 1089.09 1255.9 1109.98 1251.68 C 1118.64 1249.94 1124.3 1245.76 1132.14 1243.56 C 1130.85 1244.63 1130.34 1245.12 1128.99 1245.93 C 1114.09 1254.79 1096.28 1257.34 1079.5 1253.03 C 1065.99 1249.58 1049.44 1240.37 1042.1 1228.17 z" fill="rgb(7,126,9)" transform="translate(0,0)"></path>
<path d="M 1503.09 1205.23 C 1502.03 1196.59 1502.83 1183.19 1503.51 1174.34 C 1503.97 1168.31 1502.25 1136.71 1505.05 1134.34 C 1506.17 1143.65 1505.13 1196.98 1503.09 1205.23 z" fill="rgb(0,200,50)" transform="translate(0,0)"></path>
<path d="M 1169.75 899.89 C 1176.35 904.097 1183.21 910.771 1189.02 916.165 C 1217.67 942.781 1244.93 970.845 1273.05 998.025 L 1343.33 1065.61 C 1355.17 1077.02 1369.95 1090.01 1380.42 1102.13 L 1380.43 1126.15 C 1381.05 1139.18 1380.82 1154.38 1380.92 1167.58 C 1351.47 1141.51 1318.26 1106.4 1290 1078.05 C 1246.29 1034.21 1200.35 990.288 1157.35 946.026 C 1158.07 935.769 1156.07 912.19 1159.42 905.034 C 1163.06 903.324 1166.24 901.832 1169.75 899.89 z" fill="rgb(0,0,0)" transform="translate(0,0)"></path>
<path d="M 1066.2 969.583 C 1064.55 930.7 1066.38 887.703 1067.16 848.617 C 1067.39 837.066 1084.56 827.565 1095.56 828.261 C 1124.72 830.109 1120.58 862.085 1120.49 882.664 L 1120.22 938.096 C 1120.23 956.39 1121.57 977.108 1118.94 994.924 C 1117.41 1005.26 1102.8 1013.42 1092.87 1012.65 C 1065.36 1010.51 1065.4 990.388 1066.2 969.583 z" fill="rgb(0,0,0)" transform="translate(0,0)"></path>
<path d="M 1117.96 1056.72 C 1118.1 1057.13 1118.26 1057.53 1118.4 1057.95 C 1120.75 1065.05 1119.73 1181.2 1118.53 1194.59 C 1118.16 1198.76 1117.21 1202.8 1115.24 1206.52 C 1112.34 1212 1107.52 1215.78 1101.6 1217.56 C 1093.75 1219.91 1084.24 1219.19 1077.15 1214.94 C 1072.95 1212.43 1068.98 1208.15 1067.8 1203.28 C 1064.48 1189.44 1066.46 1159.46 1066.39 1143.84 C 1066.29 1118.97 1064.61 1093.08 1066.64 1068.32 C 1067.12 1062.5 1067.63 1055.7 1071.06 1050.81 C 1075.18 1044.95 1081.74 1041.66 1088.72 1040.66 C 1097.23 1039.44 1103.49 1041.24 1110.37 1046.23 C 1114.04 1050.37 1115.38 1051.71 1117.96 1056.72 z" fill="rgb(0,0,0)" transform="translate(0,0)"></path>
<path d="M 1468.07 1008.1 C 1464.15 1029 1434.83 1013.91 1428.81 1002.04 C 1426.24 996.969 1419.58 988.498 1419.44 982.395 C 1418.45 938.187 1416.97 893.367 1418.93 849.222 C 1420.24 843.264 1426.94 836.471 1431.73 833.825 C 1446.78 825.523 1461.13 834.861 1468.91 848.098 C 1469.13 853.466 1468.93 859.074 1468.85 864.465 C 1469.07 897.595 1469.13 930.727 1469 963.858 C 1469 970.828 1469.4 1002.88 1468.07 1008.1 z" fill="rgb(0,0,0)" transform="translate(0,0)"></path>
<path d="M 1417.34 1059.65 C 1418.08 1053.98 1419.15 1048.6 1423.87 1044.83 C 1427.59 1041.84 1432.41 1041.51 1436.97 1042.16 C 1446.41 1043.51 1454.53 1050.59 1459.72 1058.26 C 1462.84 1062.85 1465.39 1068.06 1466.38 1073.55 C 1468.47 1085.13 1469.18 1189.52 1466.41 1200.5 C 1465.14 1205.52 1461.27 1209.93 1456.82 1212.45 C 1449.74 1216.44 1439.6 1216.78 1431.99 1214.22 C 1426.97 1212.53 1421.93 1208.55 1419.75 1203.63 C 1414.62 1192.1 1418.08 1129.48 1417.67 1111.97 C 1417.29 1094.98 1418.07 1076.17 1417.34 1059.65 z" fill="rgb(0,0,0)" transform="translate(0,0)"></path>
<path d="M 1417.34 1059.65 C 1417.67 1060.56 1418.13 1063.25 1418.9 1063.77 C 1419.26 1064.01 1420.77 1063.61 1420.99 1063.58 C 1425.5 1063.35 1435.01 1062.27 1438.92 1064.3 C 1439.9 1064.81 1440.75 1066.48 1440.77 1067.46 C 1441.11 1082.21 1441.37 1098.21 1441.31 1112.9 C 1432.03 1112.87 1426.61 1112.43 1417.67 1111.97 C 1417.29 1094.98 1418.07 1076.17 1417.34 1059.65 z" fill="rgb(2,65,7)" transform="translate(0,0)"></path>
<path d="M 1552.91 799.923 C 1562.31 790.281 1588.82 787.142 1601.69 789.932 C 1622.02 794.286 1636.73 804.304 1648.02 821.865 C 1653.05 829.54 1656.56 838.111 1658.36 847.111 C 1664.79 879.598 1658.66 923.489 1660.71 956.766 C 1661.28 965.988 1657.49 992.196 1666.14 996.922 C 1670.94 996.354 1674.99 991.815 1678.82 988.379 C 1718.81 950.072 1759.89 913.293 1800.28 875.421 L 1844.57 833.844 C 1866.55 813.251 1888.61 787.806 1921.35 789.164 C 1949.03 790.312 1975.44 805.521 1986.11 832.069 C 1992.51 848.013 1988.5 873.917 1977.71 887.485 C 1967.09 900.844 1949.5 915.14 1936.65 927.409 C 1909.62 952.872 1883.08 978.846 1857.04 1005.32 C 1861.86 1010.2 1881.72 1028.86 1884.18 1032.92 C 1894.82 1040.82 1924.57 1070.88 1935.39 1081.35 L 1976.2 1121.09 C 1993.34 1137.86 2009 1149.17 2012.92 1174.34 C 2015.84 1192.39 2011.47 1210.87 2000.78 1225.7 C 1989.29 1241.37 1974.11 1250.64 1954.91 1253.89 C 1935.1 1257.24 1916.92 1249.86 1901.89 1238.05 C 1889.92 1228.64 1811.83 1153.61 1808.81 1148.08 C 1800.52 1142 1782.24 1122.04 1774.99 1114.29 C 1766.05 1116.58 1702.19 1115.2 1689.57 1114.87 C 1678.82 1115.04 1668.07 1115.13 1657.32 1115.12 L 1657.59 1156.89 C 1657.71 1178.66 1660.03 1208.69 1644.44 1226.07 C 1638.05 1237.62 1616.55 1251.59 1603.52 1253.1 C 1591.91 1255.77 1583.87 1255.96 1572.48 1252.99 C 1558.02 1252.02 1535.94 1232.79 1529.95 1220.05 C 1516.75 1205.91 1519.81 1167.42 1519.8 1148.3 L 1519.71 1065.96 L 1519.33 915.118 C 1519.31 901.186 1518.19 853.39 1520.94 841.869 C 1523.85 826.553 1539.13 807.034 1552.91 799.923 z" fill="rgb(0,255,65)" transform="translate(0,0)"></path>
<path d="M 1884.18 1032.92 C 1894.82 1040.82 1924.57 1070.88 1935.39 1081.35 L 1976.2 1121.09 C 1993.34 1137.86 2009 1149.17 2012.92 1174.34 C 2015.84 1192.39 2011.47 1210.87 2000.78 1225.7 C 1989.29 1241.37 1974.11 1250.64 1954.91 1253.89 C 1935.1 1257.24 1916.92 1249.86 1901.89 1238.05 C 1889.92 1228.64 1811.83 1153.61 1808.81 1148.08 C 1813.02 1149.03 1824.62 1161.8 1828.37 1165.6 C 1840.35 1177.68 1852.46 1189.62 1864.71 1201.43 C 1896.5 1232.38 1933.89 1273.81 1981.23 1241.72 C 1996.96 1230.97 2007.66 1214.31 2010.92 1195.55 C 2013.27 1182.64 2011.22 1168.51 2005.13 1156.9 C 1994.55 1136.75 1927.83 1076.8 1908.87 1058.53 C 1900.97 1050.92 1890.76 1042.72 1884.63 1033.63 C 1884.48 1033.4 1884.33 1033.16 1884.18 1032.92 z" fill="rgb(7,126,9)" transform="translate(0,0)"></path>
<path d="M 1520.94 841.869 C 1521.89 851.423 1521.39 868.384 1521.39 878.441 L 1521.36 943.463 C 1521.3 1025.67 1520.36 1114.31 1522.32 1197.08 C 1522.44 1201.93 1529.78 1214.75 1529.95 1220.05 C 1516.75 1205.91 1519.81 1167.42 1519.8 1148.3 L 1519.71 1065.96 L 1519.33 915.118 C 1519.31 901.186 1518.19 853.39 1520.94 841.869 z" fill="rgb(0,200,50)" transform="translate(0,0)"></path>
<path d="M 1601.69 789.932 C 1622.02 794.286 1636.73 804.304 1648.02 821.865 C 1653.05 829.54 1656.56 838.111 1658.36 847.111 C 1664.79 879.598 1658.66 923.489 1660.71 956.766 C 1661.28 965.988 1657.49 992.196 1666.14 996.922 C 1670.94 996.354 1674.99 991.815 1678.82 988.379 C 1677.32 992.769 1671.23 998.675 1666.45 999.278 C 1655.11 995.703 1658.73 972.058 1658.65 962.356 C 1658.4 940.34 1658.28 918.322 1658.31 896.304 C 1658.29 882.499 1658.9 863.184 1656.82 849.947 C 1655.62 841.932 1653 834.195 1649.09 827.095 C 1637.84 806.67 1623.03 797.754 1601.44 791.468 L 1601.69 789.932 z" fill="rgb(7,126,9)" transform="translate(0,0)"></path>
<path d="M 1654.86 1113.14 C 1662.27 1113.52 1684.27 1113.41 1689.57 1114.87 C 1678.82 1115.04 1668.07 1115.13 1657.32 1115.12 L 1657.59 1156.89 C 1657.71 1178.66 1660.03 1208.69 1644.44 1226.07 C 1645.92 1220.72 1652.65 1210.39 1653.33 1204.98 C 1656.8 1177.53 1655 1141.09 1654.86 1113.14 z" fill="rgb(7,126,9)" transform="translate(0,0)"></path>
<path d="M 1654.86 1113.14 C 1658.14 1112.97 1668.51 1112.62 1670.95 1112.87 C 1682.44 1114.04 1772.01 1111.54 1774.78 1113.73 L 1774.99 1114.29 C 1766.05 1116.58 1702.19 1115.2 1689.57 1114.87 C 1684.27 1113.41 1662.27 1113.52 1654.86 1113.14 z" fill="rgb(0,200,50)" transform="translate(0,0)"></path>
<path d="M 1552.91 799.923 C 1562.31 790.281 1588.82 787.142 1601.69 789.932 L 1601.44 791.468 C 1587.2 790.864 1575.28 790.184 1562.02 796.526 C 1558.23 798.342 1557.03 799.452 1552.91 799.923 z" fill="rgb(0,200,50)" transform="translate(0,0)"></path>
<path d="M 1572.48 1252.99 C 1577.47 1252.7 1598.66 1252.59 1603.52 1253.1 C 1591.91 1255.77 1583.87 1255.96 1572.48 1252.99 z" fill="rgb(0,200,50)" transform="translate(0,0)"></path>
<path d="M 1920.46 822.827 C 1937.21 822.653 1958.36 848.336 1943.33 863.523 C 1936.18 870.752 1929.22 877.974 1921.94 885.101 L 1877.19 928.066 C 1861.97 942.645 1826.54 978.751 1811.05 989.466 C 1799.1 990.13 1783.71 989.802 1771.5 989.873 L 1740.8 990.075 C 1753.96 980.373 1770.96 962.617 1783.37 950.93 L 1879.4 859.674 C 1890.04 849.674 1909.14 830.453 1920.46 822.827 z" fill="rgb(0,0,0)" transform="translate(0,0)"></path>
<path d="M 1627.83 1021.08 C 1694.26 1019.78 1762.53 1022.68 1829.08 1022.87 C 1843.35 1022.91 1863.55 1029.48 1848.52 1046.55 C 1837.05 1059.57 1820.4 1064.46 1803.67 1065.65 C 1742.86 1066.85 1681.57 1065.2 1620.73 1065.93 C 1607.29 1066.09 1590.87 1065.09 1577.77 1066.9 C 1588.76 1055.81 1615.99 1030.79 1627.83 1021.08 z" fill="rgb(0,0,0)" transform="translate(0,0)"></path>
<path d="M 1563.03 860.055 C 1562.73 850.648 1562.86 844.591 1569.92 836.952 C 1575.12 831.424 1582.4 828.315 1589.99 828.374 C 1597.22 828.352 1604.17 831.185 1609.32 836.259 C 1616.19 843.132 1617.21 850.072 1617.13 859.17 L 1617.28 910.182 C 1617.24 937.884 1617.6 966.976 1616.83 994.556 C 1603.64 1003.93 1578.7 1015.42 1563.75 1023.05 C 1562.66 1016.48 1563.16 981.676 1563.15 973.585 L 1563.03 860.055 z" fill="rgb(0,0,0)" transform="translate(0,0)"></path>
<path d="M 1563.03 860.055 C 1569.46 861.837 1583.11 858.525 1587.6 861.41 C 1593.09 869.544 1590.91 901.367 1589.72 911.682 C 1581.47 911.768 1572.61 912.041 1564.42 911.52 C 1564.28 917.557 1564.21 923.595 1564.21 929.634 C 1571.8 927.709 1582.89 928.143 1590.9 928.332 C 1591.22 944.755 1591.89 962.662 1591.08 978.932 C 1582.31 979.135 1573.15 979.49 1564.4 979.525 C 1564.45 986.705 1564.93 1017.16 1563.75 1023.05 C 1562.66 1016.48 1563.16 981.676 1563.15 973.585 L 1563.03 860.055 z" fill="rgb(2,65,7)" transform="translate(0,0)"></path>
<path d="M 1600.37 863.036 C 1605.78 861.498 1612.2 860.684 1617.13 859.17 L 1617.28 910.182 C 1610.53 911.148 1608.87 911 1602.12 910.944 C 1601.07 895.707 1600.16 878.293 1600.37 863.036 z" fill="rgb(2,65,7)" transform="translate(0,0)"></path>
<path d="M 1855.18 1064.63 C 1864.78 1070.93 1893.7 1101.7 1904.86 1111.97 C 1917.71 1124.72 1930.69 1137.35 1943.78 1149.86 C 1960.24 1165.41 1994.55 1187.85 1968.9 1211.3 C 1960.3 1217.05 1946.26 1217.98 1938 1211.42 C 1917.21 1194.92 1898.18 1174.7 1879.31 1155.91 C 1864.45 1141.11 1844.05 1124.55 1831.32 1108.3 C 1835.78 1100.48 1840.17 1092.64 1844.51 1084.76 C 1848.04 1077.13 1850.54 1071.63 1855.18 1064.63 z" fill="rgb(0,0,0)" transform="translate(0,0)"></path>
<path d="M 1616.11 1197.23 C 1612.68 1214.93 1587.33 1223.19 1573.73 1212.24 C 1561.58 1202.45 1562.23 1186.39 1562.61 1172.18 C 1563.29 1146.69 1562.91 1120.92 1562.79 1095.42 C 1562.79 1094.14 1563.24 1090.3 1564.32 1089.49 C 1567.78 1087.09 1575.07 1086.95 1579.68 1087.31 C 1588.82 1088.04 1608.38 1085.19 1615 1091.81 C 1618.99 1095.81 1616.54 1108.46 1616.46 1114.2 C 1616.35 1122.11 1616.38 1130.33 1616.47 1138.23 C 1616.59 1147.95 1617.65 1190.1 1616.11 1197.23 z" fill="rgb(0,0,0)" transform="translate(0,0)"></path>
<path d="M 36.4213 841.961 C 45.9491 809.81 77.2916 790.55 109.642 789.414 C 127.116 788.8 144.524 788.971 162.004 788.983 L 255.456 789.001 L 410.956 788.951 C 439.083 788.93 478.084 786.936 505.075 790.445 C 542.345 795.29 569.27 842.338 555.865 879.203 C 550.22 897.027 537.715 911.874 521.109 920.467 C 504.084 929.216 481.899 928.384 463.079 928.017 C 429.311 927.358 394.466 928.874 360.817 927.442 C 360.382 986.117 360.332 1044.79 360.667 1103.47 C 360.748 1126.5 363.521 1181.67 358.113 1203.01 C 346.478 1248.91 285.147 1273.16 245.873 1240.57 C 227.484 1226.81 218.854 1205.09 219.085 1182.57 C 219.309 1160.68 219.291 1138.69 219.247 1116.8 L 219.029 926.972 L 203.754 926.868 C 197.559 927.439 170.068 927.605 162.498 927.464 C 143.348 927.108 105.031 929.551 87.8083 926.151 C 65.0582 922.372 43.0209 902.059 36.1488 880.227 C 32.2135 868.558 31.5731 857.865 35.0158 845.947 C 35.1787 845.201 36.1237 842.775 36.4213 841.961 z" fill="rgb(0,255,65)" transform="translate(0,0)"></path>
<path d="M 36.4213 841.961 C 45.9491 809.81 77.2916 790.55 109.642 789.414 C 127.116 788.8 144.524 788.971 162.004 788.983 L 255.456 789.001 L 410.956 788.951 C 439.083 788.93 478.084 786.936 505.075 790.445 C 542.345 795.29 569.27 842.338 555.865 879.203 C 556.128 873.34 557.839 867.339 558.106 861.533 C 559.698 826.86 532.766 794.313 498.044 790.954 C 491.316 791.08 468.219 791.544 462.348 790.877 C 378.529 791.83 293.526 791.044 209.583 791.027 L 143.195 790.973 C 102.497 790.974 69.1641 789.285 45.4411 826.675 C 42.7588 830.903 39.075 838.618 36.4213 841.961 z" fill="rgb(0,0,0)" transform="translate(0,0)"></path>
<path d="M 462.348 790.877 C 466.593 789.49 493.013 789.936 498.044 790.954 C 491.316 791.08 468.219 791.544 462.348 790.877 z" fill="rgb(7,126,9)" transform="translate(0,0)"></path>
<path d="M 220.898 925.682 L 221.204 1113.2 L 221.413 1167.08 C 221.504 1179.78 221.389 1191.08 223.268 1203.78 C 225.751 1220.56 239.043 1228.43 245.873 1240.57 C 227.484 1226.81 218.854 1205.09 219.085 1182.57 C 219.309 1160.68 219.291 1138.69 219.247 1116.8 L 219.029 926.972 L 203.754 926.868 C 209.233 926.242 214.662 926.455 220.898 925.682 z" fill="rgb(2,65,7)" transform="translate(0,0)"></path>
<path d="M 87.8083 926.151 C 95.7882 925.118 109.996 925.536 118.582 925.539 L 174.109 925.566 C 181.904 925.554 215.335 924.406 220.898 925.682 C 214.662 926.455 209.233 926.242 203.754 926.868 C 197.559 927.439 170.068 927.605 162.498 927.464 C 143.348 927.108 105.031 929.551 87.8083 926.151 z" fill="rgb(0,200,50)" transform="translate(0,0)"></path>
<path d="M 35.0158 845.947 C 36.0112 855.21 33.8577 864.252 35.9743 873.509 C 36.6666 876.537 36.4059 876.887 36.1488 880.227 C 32.2135 868.558 31.5731 857.865 35.0158 845.947 z" fill="rgb(0,200,50)" transform="translate(0,0)"></path>
<path d="M 327.956 830.277 C 367.735 829.927 407.516 829.856 447.296 830.063 C 463.642 830.071 488.321 828.733 503.828 830.972 C 527.196 834.346 533.571 878.079 502.455 879.714 C 490.877 880.323 479.837 880.321 468.35 880.314 C 462.827 880.383 457.304 880.391 451.781 880.338 L 444.092 880.298 L 394.878 880.157 C 355.954 880.146 316.468 880.456 277.601 880.013 C 291.474 866.32 314.591 841.638 327.956 830.277 z" fill="rgb(0,0,0)" transform="translate(0,0)"></path>
<path d="M 451.781 880.338 C 451.83 874.138 447.502 853.443 467.095 865.994 C 469.031 867.234 468.433 877.512 468.35 880.314 C 462.827 880.383 457.304 880.391 451.781 880.338 z" fill="rgb(2,65,7)" transform="translate(0,0)"></path>
<path d="M 206.354 880.038 L 133.966 879.907 C 119.841 879.869 103.99 880.542 90.0875 878.536 C 61.976 874.479 66.2466 833.565 93.6817 831.51 C 112.485 830.101 132.369 830.675 151.336 830.571 C 195.383 830.298 239.43 830.246 283.477 830.418 C 276.204 839.634 268.786 848.735 261.227 857.719 C 256.799 864.495 249.03 873.973 243.598 880.092 L 206.354 880.038 z" fill="rgb(0,0,0)" transform="translate(0,0)"></path>
<path d="M 287.521 1043.23 C 302.741 1042.6 311.067 1045.63 318.768 1059.01 C 319.037 1079.72 320.238 1195.29 314.302 1206.66 C 311.229 1212.55 303.777 1215.3 297.811 1216.99 C 288.417 1217.33 268.111 1213.46 267.231 1201.56 C 263.997 1156.6 266.277 1110.53 265.735 1065.37 C 265.598 1053.96 277.328 1045.47 287.521 1043.23 z" fill="rgb(0,0,0)" transform="translate(0,0)"></path>
<path d="M 286.155 905.204 C 292.646 904.62 299.434 904.269 305.625 906.692 C 310.162 908.468 314.693 911.86 316.466 916.524 C 320.448 926.997 321.051 996.042 315.884 1005.47 C 312.419 1011.79 306.16 1014.71 299.632 1016.88 C 280.133 1018.47 268.907 1013.27 267.451 991.304 C 266.782 972.857 266.977 954.174 267.054 935.727 C 267.129 917.874 270.1 911.796 286.155 905.204 z" fill="rgb(0,0,0)" transform="translate(0,0)"></path>
<metadata><recraft-signature>{"signed_by": "recraft", "signature_b64": "hK88b42JnZk49y6VdyATvbTGWoydAny+dtIa7+J3k8Xnh+bWmbsgckNj99Oj5Bs1gZdSBrwbMd67iF/Iq9/KAg==", "signing_algo": "Ed25519", "generation_timestamp": 1772834355, "identifier": "505b1acf-251b-4b67-81b3-920a76878251"}</recraft-signature></metadata></svg>