<svg xmlns="http://www.w3.org/2000/svg" height="1024" preserveAspectRatio="none" style="display: block;" version="1.1" viewBox="0 0 2048 2048" width="1024">
<path d="M 0 0 L 2048 0 L 2048 2048 L 0 2048 L 0 0 z" fill="rgb(255,255,255)" transform="translate(0,0)"></path>
<path d="M 1055.21 177.403 C 1063.59 181.39 1107.92 220.952 1117.16 228.905 L 1227.04 322.355 C 1250.71 342.572 1281.73 370.474 1306.69 388.341 C 1306.06 320.65 1307.59 249.446 1308.98 181.688 L 1398.46 181.29 C 1399.69 222.467 1398.16 269.972 1397.97 311.553 L 1397.08 581.374 L 1242.5 450.819 C 1212.99 426.349 1171.08 393.7 1143.79 368.334 C 1143.26 384.649 1143.7 402.606 1143.58 419.194 L 1142.86 548.701 L 712.323 548.481 C 736.943 520.034 761.941 491.915 787.31 464.134 L 796.18 453.893 C 825.817 454.021 855.454 453.872 885.088 453.444 C 873.674 438.962 865.526 420.986 855.853 405.334 C 844.089 386.3 831.361 366.445 818.468 348.193 C 815.352 353.32 811.748 358.433 808.214 363.307 C 778.959 403.435 750.928 444.445 721.899 484.717 C 703.201 510.656 683.996 535.393 666.09 561.98 C 666.098 576.312 665.262 594.112 664.178 608.413 C 645.87 608.706 595.15 609.957 578.94 607.868 C 578.19 591.426 577.849 554.85 580.968 538.684 C 581.87 534.008 597.61 510.482 601.473 504.6 L 643.105 442.229 L 753.213 276.205 C 773.961 245.463 794.31 214.454 814.256 183.186 C 823.109 195.386 832.148 210.157 840.551 222.924 L 895.289 306.874 C 922.801 349.21 951.839 391.316 979.791 433.426 C 1002.78 468.056 1027.04 508.677 1052.18 541.172 C 1053.81 499.926 1052.82 454.366 1053.13 412.736 L 1055.21 177.403 z" fill="rgb(0,255,65)" transform="translate(0,0)"></path>
<path d="M 1658.38 181.388 L 1785.52 181.173 C 1763.6 199.467 1740.16 223.456 1718.13 242.753 C 1675.68 279.943 1633.83 317.514 1592.6 356.078 C 1625.48 383.601 1656.89 411.624 1690.61 439.033 C 1719.9 462.849 1755.67 491.004 1782.82 516.255 L 1782.89 561.014 C 1753.87 560.653 1724 558.313 1693.95 557.991 C 1684.63 549.003 1674.69 540.823 1664.65 532.664 C 1615.05 492.354 1567.72 448.725 1518.84 407.694 C 1517.06 477.358 1518.34 549.914 1518.03 619.87 C 1509 620.205 1499.97 620.415 1490.93 620.502 C 1490.93 660.42 1492 700.889 1492.34 740.94 C 1510.72 761.22 1529.53 777.829 1549.5 796.352 C 1570.44 815.782 1588.08 833.435 1610.76 850.854 C 1610.95 875.792 1610.3 900.731 1608.81 925.626 C 1604.75 961.193 1603.06 996.88 1597.65 1032.35 C 1586.11 1108.14 1561.71 1183.9 1532.29 1254.56 C 1522.31 1278.53 1510.63 1302.67 1497.88 1325.29 C 1491.34 1336.89 1483.59 1347.81 1476.49 1359.06 C 1468.84 1371.16 1461.7 1383.67 1453.61 1395.48 C 1443.82 1409.76 1401.12 1467.4 1388.87 1471.93 C 1385.24 1473.28 1381.74 1473 1378.3 1471.26 C 1371.19 1467.64 1368.8 1457.99 1366.57 1451.06 C 1371.14 1445.3 1380.17 1436.94 1385.59 1431.47 C 1396.93 1420.02 1406.75 1409.65 1416.46 1396.61 C 1512.18 1265.56 1568.46 1109.88 1578.68 947.918 C 1580.42 923.433 1579.39 883.364 1579.78 857.515 C 1567.49 844.126 1551.77 832.171 1538.51 819.663 C 1512.83 795.437 1482.33 773.028 1458.11 747.47 C 1459.62 706.378 1459.03 662.699 1459.13 621.408 C 1447.65 619.18 1438.05 619.024 1426.4 618.331 C 1425.42 598.928 1426.16 572.072 1426.17 552.358 C 1426.05 510.645 1426.26 468.931 1426.79 427.22 C 1427.6 345.152 1426.84 263.576 1428.9 181.346 L 1521.14 181.481 C 1521.14 217.84 1522.73 273.995 1519.99 308.863 C 1536.57 294.844 1555.35 276.548 1571.47 261.568 C 1600.29 234.677 1629.26 207.95 1658.38 181.388 z" fill="rgb(0,255,65)" transform="translate(0,0)"></path>
<path d="M 364.55 181.52 C 457.332 179.912 550.844 182.074 643.707 181.281 C 683.002 180.946 723.536 180.537 762.778 181.537 C 733.612 212.41 706.043 250.575 676.998 280.49 C 637.16 282.301 587.462 280.894 546.936 280.889 C 546.808 395.715 540.59 512.254 540.183 627.529 C 550.311 629.669 561.032 631.436 571.289 633.501 C 571.469 678.306 571.794 747.737 570.85 795.336 C 570.432 795.993 570.013 796.65 569.594 797.307 C 566.414 797.95 567.179 797.292 565.04 799.124 C 562.822 827.26 566.494 867.105 568.492 895.453 C 569.738 913.124 570.511 929.99 571.421 947.647 C 573.981 987.993 574.99 1010.81 584.845 1049.75 C 576.014 1050.27 567.948 1050.68 559.091 1050.79 C 552.948 1036.75 549.247 1003.34 547.41 987.251 C 540.015 924.639 536.215 861.654 536.032 798.607 C 509.132 798.545 482.232 798.62 455.333 798.835 L 450.006 280.975 C 385.456 280.047 317.495 280.999 252.853 281.228 C 276.298 251.318 312.351 209.638 337.782 181.626 L 364.55 181.52 z" fill="rgb(0,255,65)" transform="translate(0,0)"></path>
<path d="M 1375.55 1526.06 C 1380.47 1530.62 1405.96 1564.58 1410.2 1570.8 C 1396.11 1581.83 1380.02 1593.24 1365.48 1604.41 C 1362.43 1601.67 1359.41 1598.51 1356.49 1595.6 C 1338.85 1605.98 1322.25 1618.22 1305.45 1629.93 L 1241.08 1674.25 C 1189.55 1709.82 1137.62 1743.7 1086.5 1780.12 L 1076.94 1774.98 C 1076.9 1786.79 1077.27 1797.27 1077.84 1809.05 L 1015.99 1809.03 C 1015.93 1798.79 1015.66 1788.55 1015.21 1778.31 C 988.584 1760.91 963.219 1742.03 937.054 1723.94 L 827.496 1649.56 C 803.906 1633.49 781.199 1617.26 757.365 1601.38 C 742.895 1591.37 728.142 1581.77 713.125 1572.59 C 717.038 1565.05 723.109 1555.55 727.575 1548.1 C 748.282 1563.1 771.002 1577.27 792.166 1591.88 C 813.897 1606.87 835.481 1622.53 857.253 1637.36 C 881.939 1653.93 906.734 1670.33 931.638 1686.56 C 962.291 1706.85 999.504 1734.46 1030.43 1752.28 C 1038.98 1752.26 1072.82 1753.03 1078.51 1749.92 C 1102.64 1736.74 1129.73 1716.51 1152.61 1701.04 L 1246.25 1637.15 C 1277.23 1616.35 1311.75 1594.1 1341.43 1571.58 C 1337.11 1567.52 1335.21 1565.17 1331.58 1560.65 C 1344.46 1549.13 1361.58 1537.89 1375.55 1526.06 z" fill="rgb(0,255,65)" transform="translate(0,0)"></path>
<path d="M 1326.12 1442.84 C 1330.41 1445.09 1356.7 1486.64 1360.66 1493.31 C 1345.62 1502.18 1329.57 1514.94 1314.33 1524.94 L 1321.45 1537.6 C 1314.66 1541.57 1305.05 1548.6 1298.26 1553.16 L 1251.21 1584.66 L 1096.99 1688.1 C 1081.75 1698.24 1066.82 1709.44 1051.5 1719.2 L 905.818 1623.67 C 878.962 1605.92 852.036 1588.77 825.766 1570.09 C 814.831 1562.69 805.558 1552.82 795.163 1544.82 C 773.783 1528.37 752.38 1511.84 730.666 1495.84 L 729.669 1494.78 C 730.082 1491.82 751.747 1461.33 755.718 1455.4 C 759.578 1457.84 763.537 1461.01 767.123 1463.9 C 779.946 1474.25 793.203 1483.49 806.819 1492.78 L 795.575 1510.35 C 837.051 1548.03 896.891 1583.99 944.323 1615.52 L 998.76 1651.22 C 1014.45 1661.66 1031.61 1673.77 1048.06 1682.49 C 1066.49 1674.33 1098.73 1653.25 1116.02 1642.49 C 1163.13 1613.18 1208.02 1580.64 1254.55 1550.51 C 1270.56 1540.14 1286.22 1527.27 1302.57 1517.65 C 1293.8 1504.56 1284.91 1491.56 1275.9 1478.63 C 1292.3 1466.61 1309.5 1454.6 1326.12 1442.84 z" fill="rgb(0,255,65)" transform="translate(0,0)"></path>
<path d="M 1324.19 1455.9 C 1326.51 1456.94 1345.43 1484.75 1348.84 1489.06 C 1336.24 1497.9 1325.5 1505.58 1312.55 1514.12 C 1312.14 1514.26 1310.78 1514.78 1310.6 1514.51 C 1306.02 1507.71 1292.52 1486.69 1288.91 1480.9 C 1299.88 1472.95 1313.02 1463.32 1324.19 1455.9 z" fill="rgb(255,255,255)" transform="translate(0,0)"></path>
<path d="M 880.358 664.761 L 940.927 664.567 C 941.047 683.357 940.998 702.148 940.78 720.937 L 923.832 720.952 C 922.729 768.977 923.415 822.712 923.564 870.919 C 944.027 885.534 986.836 917.586 1004.66 933.846 C 1005.47 970.412 1004.94 1008.93 1005.02 1045.65 C 1010.36 1045.43 1016.21 1045.47 1021.6 1045.41 C 1021.61 1063.08 1021.81 1081.1 1021.19 1098.73 L 1004.91 1099.39 C 1004.89 1134.76 1004 1168.63 1004.61 1204.32 L 1018.12 1204.78 C 1018.37 1223.49 1018.36 1242.2 1018.11 1260.9 L 1003.5 1260.82 L 956.076 1260.73 C 955.953 1241.52 955.997 1222.31 956.209 1203.1 L 979.098 1203.11 C 979.025 1170 978.144 1131.87 979.727 1099.05 C 971.729 1099.13 963.73 1099 955.738 1098.66 C 954.321 1087.04 955.115 1059.32 955.167 1046.54 C 959.805 1046.72 972.536 1048.34 975.789 1045.05 C 981.363 1039.4 978.914 962.85 978.867 950.892 C 971.61 946.107 958.478 934.614 951.042 928.741 L 896.584 886.457 C 895.659 874.334 896.747 849.577 896.863 836.072 C 897.258 797.684 897.95 759.299 898.94 720.922 C 892.743 720.963 886.596 720.721 880.404 720.528 C 879.672 703.09 880.277 682.43 880.358 664.761 z" fill="rgb(0,255,65)" transform="translate(0,0)"></path>
<path d="M 1117.58 664.891 C 1137.8 664.604 1158.03 664.538 1178.26 664.69 C 1178.58 683.428 1178.63 702.168 1178.42 720.907 L 1163.12 721.529 C 1162.57 777.455 1163.07 833.387 1164.61 889.295 C 1154.86 895.172 1144.98 902.965 1135.64 909.689 L 1083.31 947.485 C 1082.86 979.251 1083.67 1013.13 1083.95 1045.01 C 1090.16 1045.82 1098.65 1045.96 1105.09 1046.24 C 1105.85 1063.28 1105.78 1080.75 1105.89 1097.84 C 1098.74 1097.78 1091.22 1097.42 1084.03 1097.2 C 1083.96 1131.54 1084.81 1166.58 1085.02 1201.04 C 1092.16 1202.36 1097.67 1202.65 1104.95 1203.12 C 1105.42 1220.97 1105.09 1240.08 1105.08 1258.03 L 1104.66 1259.08 C 1100.41 1261.22 1051.03 1260.82 1042.84 1260.89 C 1042.02 1242.4 1041.8 1223.29 1041.36 1204.74 L 1058.01 1204.52 C 1059.46 1171.39 1058.43 1131.8 1057.11 1098.45 L 1039.63 1098.04 C 1039.42 1080.93 1039.41 1063.81 1039.58 1046.69 C 1045.14 1046.73 1052 1047.49 1056.37 1044.25 C 1059.42 1036.16 1057.91 948.693 1057.94 934.877 C 1063.92 929.413 1078.07 920.283 1085.33 914.979 C 1102.65 902.236 1119.83 889.293 1136.85 876.153 C 1136.79 824.684 1135.94 772.663 1136.44 721.334 L 1117.41 720.986 C 1117.14 702.288 1117.2 683.587 1117.58 664.891 z" fill="rgb(0,255,65)" transform="translate(0,0)"></path>
<path d="M 518.857 1429.85 C 522.088 1430.66 540.326 1458.54 544.265 1463.64 C 576.245 1505.06 614.002 1541.56 651.104 1578.25 C 670.162 1597.09 684.368 1605.41 705.703 1620.43 C 729.419 1637.23 753.381 1653.68 777.582 1669.77 L 960.568 1792.19 L 965.793 1785.46 C 981.706 1795.11 998.411 1809.1 1015.34 1819.68 C 1006.63 1828.85 995.596 1844.09 987.748 1854.36 L 984.955 1857.47 C 980.512 1857.85 940.285 1828.33 933.878 1823.83 L 942.41 1815.15 C 922.873 1802.39 903.843 1787.75 884.34 1774.96 C 836.352 1743.5 789.293 1711.66 742.137 1678.95 L 687.094 1640.58 C 672.483 1630.38 652.237 1616.92 639.632 1604.89 C 607.081 1573.82 574.812 1542.08 545.52 1507.92 C 528.391 1487.95 512.291 1463.56 495.491 1444.74 C 504.514 1440.22 510.723 1435.65 518.857 1429.85 z" fill="rgb(0,255,65)" transform="translate(0,0)"></path>
<path d="M 967.021 1797.08 C 975.971 1801.92 993.367 1814.53 1002.27 1820.76 C 995.16 1830.06 989.256 1838.36 981.771 1847.55 C 980.279 1847.56 980.186 1847.34 978.833 1846.29 C 968.599 1838.28 958.234 1830.44 947.743 1822.77 C 954.34 1814.42 960.624 1805.59 967.021 1797.08 z" fill="rgb(255,255,255)" transform="translate(0,0)"></path>
<path d="M 1564.01 570.704 C 1570.95 570.903 1584.62 573.533 1591.97 574.735 C 1592.19 588.968 1591.37 603.38 1591.18 617.655 L 1589.16 731.256 C 1618.88 762.546 1654.6 791.154 1685.8 823.177 C 1684.63 905.266 1680.86 979.975 1664.87 1061.01 C 1657.81 1096.81 1648.63 1130.11 1639.74 1165.4 C 1629.68 1162 1620.99 1159.01 1611.14 1154.93 C 1615.22 1138.35 1620.07 1122.02 1624.19 1105.01 C 1642.65 1028.6 1656.2 951.474 1657.81 872.672 C 1658.03 861.716 1656.83 845.211 1656.28 833.946 C 1636.18 810.564 1608.31 789.556 1587.4 766.283 C 1579.85 757.885 1567.96 749.413 1561.92 740.003 C 1563.65 684.264 1563.51 626.605 1564.01 570.704 z" fill="rgb(0,255,65)" transform="translate(0,0)"></path>
<path d="M 460.056 899.267 L 487.105 899.142 C 490.392 964.143 499.934 1034.25 516.515 1097.16 C 525.655 1123.7 536.143 1153.29 547.539 1178.73 C 585.624 1263.75 634.359 1342.44 696.226 1412.25 C 707.986 1425.52 721.252 1438.2 732.385 1452.12 L 723.749 1461.47 C 721.538 1463.8 718.727 1466.37 716.38 1468.63 C 709.903 1464.5 704.559 1459.85 699.207 1454.42 C 627.075 1381.33 567.575 1298.05 528.604 1202.7 C 523.538 1190.31 516.525 1178.75 511.456 1165.95 C 478.588 1080.83 461.182 990.514 460.056 899.267 z" fill="rgb(0,255,65)" transform="translate(0,0)"></path>
<path d="M 368.659 727.121 C 388.844 727.496 409.594 727.292 429.822 727.331 C 430.103 745.643 429.717 764.943 429.647 783.334 L 413.331 784.02 C 407.075 917.851 429.406 1051.48 478.838 1176 L 494.572 1173.18 C 495.358 1190.74 498.21 1212.21 500.451 1229.74 C 500.771 1231.78 500.662 1231.79 500.565 1233.88 C 498.017 1235.2 456.558 1238.88 450.819 1239.45 C 447.793 1220.82 441.31 1195.82 439.398 1178.56 C 442.137 1175.61 443.001 1179.42 446.409 1176.96 C 445.15 1170.08 436.127 1144.78 433.575 1136.86 C 426.046 1113.9 419.445 1090.65 413.787 1067.16 C 399.86 1008.88 391.363 949.432 388.407 889.583 C 387.05 855.353 388.241 817.673 388.835 783.433 C 382.259 783.097 375.313 783.018 368.7 782.836 L 368.659 727.121 z" fill="rgb(0,255,65)" transform="translate(0,0)"></path>
<path d="M 1710.17 1030.62 C 1719.58 1032.39 1728.97 1034.21 1738.36 1036.09 C 1736.76 1077.25 1724.86 1128.92 1713.65 1168.71 C 1680.59 1289.07 1625.15 1402.13 1550.22 1501.95 C 1539.1 1516.73 1526.78 1531.03 1515 1545.35 C 1509.73 1551.99 1503.38 1548.56 1496.3 1546.53 C 1495.81 1539.18 1494.79 1536 1492.83 1528.92 C 1498.43 1520.99 1510.14 1507.95 1516.79 1499.6 C 1529.94 1483.04 1542.39 1465.93 1554.11 1448.33 C 1636.68 1325.64 1696.25 1178.49 1710.17 1030.62 z" fill="rgb(0,255,65)" transform="translate(0,0)"></path>
<path d="M 1505.21 952.52 C 1514.38 952.036 1523.95 951.862 1533.16 951.557 C 1528.58 1008.67 1524.29 1050.56 1505.32 1104.97 C 1492.2 1142.57 1481.93 1176.07 1463.33 1212.24 C 1436.16 1265.06 1404.52 1311.67 1370.33 1359.91 C 1376.32 1372.35 1384.76 1386.43 1391.33 1399.46 C 1377.89 1408.32 1364.31 1416.22 1350.45 1424.38 L 1340.64 1430.13 C 1332.42 1413.52 1321.59 1396.59 1312.94 1379.35 C 1324.29 1374.03 1336.17 1365.21 1346.6 1357.95 L 1342.55 1348.27 C 1361.81 1326.13 1371.03 1310.83 1386.18 1286.32 C 1394.73 1272.38 1405.54 1258.27 1413.56 1244.14 C 1448.91 1181.9 1479.98 1117.3 1491.77 1046.08 C 1493.83 1033.67 1497.77 1020.78 1499.42 1008.22 C 1501.78 990.314 1501.97 971.615 1504.99 953.773 L 1505.21 952.52 z" fill="rgb(0,255,65)" transform="translate(0,0)"></path>
<path d="M 830.522 1502.59 C 840.927 1489.52 852.923 1477.9 863.638 1464.74 C 879.654 1476.05 894.832 1488.76 910.534 1500.5 C 908.123 1503 905.179 1506.24 902.564 1508.42 C 926.543 1527.67 949.506 1544.65 975.411 1561.33 C 999.835 1577.06 1023.66 1594.77 1047.59 1611.37 C 1074.24 1598.66 1110.63 1575.09 1135 1565.26 L 1134.93 1563.81 C 1136.81 1562.72 1138.59 1561.62 1140.51 1560.58 C 1142.25 1559.46 1143.74 1558.51 1145.57 1557.49 L 1147.2 1559.18 C 1181.07 1541.36 1228.4 1512.38 1258.99 1489.07 C 1263.01 1498.06 1267.09 1507.02 1271.24 1515.94 C 1257.58 1525.23 1242.63 1533.59 1228.44 1542.14 L 1138.72 1595.02 L 1086.52 1625.49 C 1076.32 1631.47 1065.26 1638.48 1054.67 1643.47 C 1034.92 1628.95 1015.51 1622.01 996.736 1609.59 C 959.662 1585.07 919.23 1558.39 884.291 1531.32 L 876.597 1537.55 C 862.595 1526.24 842.937 1513.32 830.522 1502.59 z" fill="rgb(0,255,65)" transform="translate(0,0)"></path>
<path d="M 1145.57 1557.49 L 1147.2 1559.18 C 1145.24 1560.32 1143.21 1561.28 1141.28 1562.47 L 1140.51 1560.58 C 1142.25 1559.46 1143.74 1558.51 1145.57 1557.49 z" fill="rgb(165,252,171)" transform="translate(0,0)"></path>
<path d="M 1140.51 1560.58 L 1141.28 1562.47 C 1139.23 1563.52 1137.12 1564.36 1135 1565.26 L 1134.93 1563.81 C 1136.81 1562.72 1138.59 1561.62 1140.51 1560.58 z" fill="rgb(108,250,122)" transform="translate(0,0)"></path>
<path d="M 865.512 1476.64 L 897.132 1501.33 C 890.249 1509.53 883.142 1517.54 875.819 1525.35 C 871.649 1523.41 848.233 1504.46 844.011 1500.72 C 851.204 1491.97 857.569 1484.71 865.512 1476.64 z" fill="rgb(255,255,255)" transform="translate(0,0)"></path>
<path d="M 1377.88 1167.67 C 1386.87 1171.77 1396.21 1175.72 1404.58 1180.93 C 1397.11 1191.73 1389.6 1207.65 1381.94 1219.39 C 1357.13 1257.4 1330.85 1298.38 1302.15 1333.53 C 1286.13 1353.14 1249.43 1374.87 1227.26 1390.79 L 1079.46 1495.61 C 1074.8 1498.09 1065.05 1495.51 1059.63 1494.54 C 1057.81 1486.72 1056.66 1481.15 1055.56 1473.24 C 1100.59 1449.34 1148.8 1413.46 1190.86 1384.2 C 1217.21 1365.87 1249.79 1343.68 1272.88 1321.63 C 1283.59 1311.41 1296.97 1290.72 1306.31 1278.59 C 1334.7 1241.73 1356.31 1208.77 1377.88 1167.67 z" fill="rgb(0,255,65)" transform="translate(0,0)"></path>
<path d="M 329.58 968.407 C 332.706 967.897 340.174 967.836 343.659 967.707 C 353.768 1096.4 408.847 1244.26 472.291 1356.4 L 456.85 1363.97 L 445.455 1369.48 C 388.082 1260.29 324.958 1091.47 315.72 969.361 L 329.58 968.407 z" fill="rgb(0,255,65)" transform="translate(0,0)"></path>
<path d="M 1422.93 1590.86 C 1426.24 1593.27 1436.9 1605.92 1442.15 1610.45 C 1433.25 1617.98 1424.19 1623.56 1414.61 1630.13 L 1367.78 1662.18 C 1338.13 1682.3 1307.47 1704.71 1277.38 1725.4 L 1182.19 1791.83 C 1162.38 1805.6 1135.72 1824.4 1114.75 1835.71 C 1110.22 1837.38 1107.46 1837.75 1102.8 1838.58 C 1101.86 1830.39 1100.75 1824.02 1099.17 1815.89 C 1140.86 1789.78 1189.73 1753.09 1230.76 1724.65 C 1294.52 1680.46 1360.04 1636.03 1422.93 1590.86 z" fill="rgb(0,255,65)" transform="translate(0,0)"></path>
<path d="M 1639.34 633.802 C 1644.85 635.895 1659.35 635.028 1666.06 635.056 L 1665.86 721.725 C 1669.32 725.115 1673.21 728.599 1676.88 731.781 C 1693.39 746.083 1708.32 762.867 1725.36 776.49 C 1725.06 739.534 1722.92 701.57 1723.52 664.954 L 1748.2 664.835 C 1754.32 716.871 1755.19 800.118 1755.09 853.424 C 1746.4 853.016 1736.05 851.612 1727.27 850.645 C 1727.71 838.008 1727.51 826.334 1727.28 813.69 C 1697.95 785.345 1665.41 755.23 1637.17 726.743 C 1638.85 696.008 1637.61 663.983 1639.34 633.802 z" fill="rgb(0,255,65)" transform="translate(0,0)"></path>
<path d="M 328.392 520.375 C 331.775 519.755 334.922 520.294 338.012 521.66 C 340.14 525.883 338.291 598.817 338.066 610.254 C 336.857 699.215 337.356 788.191 339.56 877.133 L 322.75 876.936 C 320.421 876.776 316.538 876.932 315.292 874.893 C 306.669 860.786 308.978 828.943 308.941 813.565 L 308.695 747.795 C 308.245 694.353 308.89 640.907 310.629 587.492 C 311.208 566.461 311.3 543.636 312.614 522.755 C 317.428 521.859 323.464 521.114 328.392 520.375 z" fill="rgb(0,255,65)" transform="translate(0,0)"></path>
<path d="M 626.67 1197.04 L 627.821 1197.02 C 630.063 1199.04 633.426 1207.15 634.978 1210.43 C 646.871 1235.69 660.458 1260.12 675.648 1283.55 C 705.336 1328.46 740.114 1369.64 779.137 1406.62 C 798.474 1424.94 814.762 1440.94 837.842 1454.59 C 841.706 1456.87 841.805 1463.94 838.531 1467.37 C 832.6 1473.58 827.978 1474.58 819.754 1475.21 C 816.015 1475.6 811.994 1475.77 808.218 1475.99 C 722.898 1400.54 649.754 1309.7 603.778 1205.23 C 611.752 1202.57 618.861 1200.12 626.67 1197.04 z" fill="rgb(0,255,65)" transform="translate(0,0)"></path>
<path d="M 740.922 1257.46 C 746.241 1259.97 803.384 1332.08 816.824 1344.18 C 866.912 1389.27 924.751 1441.31 986.216 1469.8 C 983.405 1478.84 981.82 1487.14 978.591 1496.67 C 949.117 1493.21 945.064 1483.52 922.472 1466.58 C 864.746 1423.27 805.712 1379.27 760.604 1322.32 C 746.186 1304.12 737.157 1299.9 732.066 1275.54 C 734.309 1268.72 737.029 1263.4 740.922 1257.46 z" fill="rgb(0,255,65)" transform="translate(0,0)"></path>
<path d="M 497.687 1249.01 C 498.837 1249.82 538.102 1328.65 545.172 1339.96 C 566.81 1374.27 590.874 1407 617.178 1437.88 C 632.29 1455.86 648.877 1473.36 663.213 1491.85 C 656.452 1500.29 654.531 1505.07 642.969 1503.79 C 620.984 1487.15 601.725 1462.4 584.591 1441.02 C 559.481 1409.69 536.833 1379.34 517.43 1344.11 C 501.694 1315.54 486.546 1288.72 474.824 1257.94 C 482.483 1255.06 490.105 1252.09 497.687 1249.01 z" fill="rgb(0,255,65)" transform="translate(0,0)"></path>
<path d="M 1556.45 1314.47 L 1576.78 1326.52 C 1558.01 1366.82 1534.82 1404.91 1507.63 1440.08 C 1496.65 1454.11 1434.35 1531.83 1422.76 1533.24 C 1420.78 1532.53 1418.82 1531.77 1416.88 1530.96 C 1406.42 1526.61 1404.52 1523.77 1400.36 1513.69 C 1405.99 1506.21 1415.28 1496.85 1422.14 1490.16 C 1475.45 1438.1 1519.85 1379.74 1556.45 1314.47 z" fill="rgb(0,255,65)" transform="translate(0,0)"></path>
<path d="M 610.891 619.952 C 617.488 621.28 626.404 621.07 633.316 621.15 C 634.218 651.944 633.591 685.828 633.62 716.822 L 633.986 889.978 L 610.129 889.792 L 609.912 706.383 C 609.975 684.235 608.713 640.848 610.891 619.952 z" fill="rgb(0,255,65)" transform="translate(0,0)"></path>
<path d="M 619.602 973.806 L 642.979 973.821 C 647.565 990.629 651.066 1011.72 654.843 1029.18 C 661.29 1059.07 669.112 1088.64 678.284 1117.81 C 683.504 1133.95 689.448 1149.82 695.47 1165.67 C 697.363 1170.66 704.06 1181.26 703.325 1186 L 701.349 1187.02 C 693.491 1189.63 690.223 1190.52 682.089 1191.93 C 652.78 1161.85 619.497 1017.14 619.602 973.806 z" fill="rgb(0,255,65)" transform="translate(0,0)"></path>
<path d="M 1448.34 878.98 C 1455.64 878.92 1470.54 877.832 1474.54 884.75 C 1474.87 890.201 1471.64 905.332 1470.96 912.391 C 1465.86 965.776 1455.8 1043.62 1434.11 1092.85 L 1413.37 1093.21 C 1411.67 1087.31 1409.77 1083.04 1407.37 1077.4 C 1411.9 1062.58 1420.12 1049.68 1424.05 1033.25 C 1436.13 982.761 1439.69 929.91 1448.34 878.98 z" fill="rgb(0,255,65)" transform="translate(0,0)"></path>
<path d="M 1162.32 1489.66 C 1169.23 1484.78 1180.23 1478.73 1187.98 1473.79 C 1204.58 1463.09 1221.07 1452.24 1237.46 1441.23 C 1249.36 1433.3 1261.28 1425.58 1273.08 1417.49 C 1285.7 1408.83 1298.16 1398.96 1311.27 1391.17 C 1316.81 1399.83 1321.69 1407.53 1326.1 1416.93 C 1310.68 1427.61 1294.92 1436.75 1279.78 1447.07 C 1245.22 1470.62 1213.08 1491.36 1176.04 1511.03 C 1171.88 1507.11 1166.53 1494.97 1162.32 1489.66 z" fill="rgb(0,255,65)" transform="translate(0,0)"></path>
<path d="M 297.593 451.46 C 318.775 452.134 340.541 451.56 361.879 451.967 C 362.157 470.741 362.544 493.087 361.895 511.79 C 340.22 511.688 318.545 511.783 296.873 512.078 C 296.878 502.678 295.77 457.885 297.593 451.46 z" fill="rgb(0,255,65)" transform="translate(0,0)"></path>
<path d="M 1707.16 587.151 C 1727.41 587.494 1746.73 587.991 1767.06 587.965 L 1767.05 653.114 L 1706.89 653.3 C 1707.05 631.342 1706.84 609.055 1707.16 587.151 z" fill="rgb(0,255,65)" transform="translate(0,0)"></path>
<path d="M 1716.71 596.243 C 1730.25 596.728 1744.2 596.609 1757.78 596.698 L 1758.03 643.821 C 1744.87 643.482 1730.02 643.547 1716.82 643.753 L 1716.71 596.243 z" fill="rgb(255,255,255)" transform="translate(0,0)"></path>
<path d="M 441.881 825.236 L 501.877 825.85 C 501.783 846.328 502.678 870.039 502.127 890.005 C 486.127 889.751 456.715 890.462 442.558 888.794 C 441.376 873.002 441.698 841.892 441.881 825.236 z" fill="rgb(0,255,65)" transform="translate(0,0)"></path>
<path d="M 451.396 834.224 C 464.897 834.781 478.357 834.732 491.863 834.817 C 492.017 849.963 492.06 865.109 491.992 880.255 L 451.801 879.964 C 451.474 864.661 451.712 849.459 451.396 834.224 z" fill="rgb(255,255,255)" transform="translate(0,0)"></path>
<path d="M 1713.58 865.848 C 1729.6 866.182 1757.66 866.919 1773.05 868.814 C 1772.24 889.917 1770.84 911.716 1769.87 932.921 C 1753.61 933.111 1727.93 930.896 1711.23 929.594 C 1711.82 909.17 1712.38 886.13 1713.58 865.848 z" fill="rgb(0,255,65)" transform="translate(0,0)"></path>
<path d="M 1723.35 875.28 C 1735.78 876.526 1750.09 877.131 1762.9 878.155 C 1762.39 893.017 1761.47 908.48 1761.07 923.251 C 1747.47 922.721 1734.16 921.266 1720.7 920.954 C 1721.23 907.495 1721.91 888.521 1723.35 875.28 z" fill="rgb(255,255,255)" transform="translate(0,0)"></path>
<path d="M 1389.39 1095.45 C 1406.19 1101.13 1423.24 1110.02 1439.84 1116.52 C 1443.01 1118.98 1445.49 1117.82 1443.86 1121.41 C 1436.31 1138.03 1428.4 1159.37 1421.58 1176.11 C 1414.11 1174.59 1373.52 1157.03 1365.53 1153.15 C 1371.29 1137.98 1382.31 1109.2 1389.39 1095.45 z" fill="rgb(0,255,65)" transform="translate(0,0)"></path>
<path d="M 1392.85 1107.72 C 1405.78 1113.51 1419.86 1118.27 1432.97 1123.61 C 1427.17 1136.82 1421.82 1150.21 1416.92 1163.78 C 1414.76 1165.05 1385.69 1151.66 1381.11 1149.76 L 1379.27 1149.01 C 1382.98 1133.11 1388.95 1121.52 1392.85 1107.72 z" fill="rgb(255,255,255)" transform="translate(0,0)"></path>
<path d="M 296.992 891.548 C 316.557 892.34 336.288 891.696 355.834 892.371 C 355.505 913.705 355.846 935.187 355.432 956.338 C 336.066 956.891 316.687 956.77 297.331 955.974 C 296.701 935.141 297.133 912.586 296.992 891.548 z" fill="rgb(0,255,65)" transform="translate(0,0)"></path>
<path d="M 306.08 901.311 C 319.31 901.872 332.519 901.81 345.705 902.383 C 345.847 917.17 345.897 931.958 345.853 946.746 C 332.563 946.915 319.484 947.011 306.204 946.313 C 306.153 931.747 305.666 915.718 306.08 901.311 z" fill="rgb(255,255,255)" transform="translate(0,0)"></path>
<path d="M 726.43 1188.94 C 726.876 1189.07 728.037 1189.26 728.353 1189.85 C 737.574 1207.19 745.885 1226.58 756.072 1243.32 C 737.456 1252.69 719.987 1260.07 701.356 1269.91 C 701.335 1269.91 700.213 1269.88 700.195 1269.84 C 694.402 1258.88 677.631 1224.5 672.579 1215.71 C 688.404 1206.71 712.182 1198.5 726.43 1188.94 z" fill="rgb(0,255,65)" transform="translate(0,0)"></path>
<path d="M 722.638 1200.97 C 726.374 1205.34 740.092 1232.87 743.217 1239.43 C 727.628 1246.28 720.564 1249.67 705.57 1257.89 C 702.994 1257.24 688.43 1225.73 686.616 1221.8 L 685.818 1220.1 C 698.057 1213.59 710.462 1207.51 722.638 1200.97 z" fill="rgb(255,255,255)" transform="translate(0,0)"></path>
<path d="M 1590.64 1162.96 L 1591.99 1163.44 C 1611.02 1169.95 1628.84 1178.79 1648.16 1185.19 C 1639.49 1203.99 1633.47 1223.61 1625.6 1242.69 C 1623.12 1245.1 1618.4 1241.49 1615.37 1240.03 C 1600.53 1232.88 1585.85 1227.53 1570.15 1222.71 C 1575.76 1204.43 1586.43 1180.1 1590.64 1162.96 z" fill="rgb(0,255,65)" transform="translate(0,0)"></path>
<path d="M 1596.92 1174.53 C 1608.19 1179.81 1623.8 1186.05 1635.71 1191.25 L 1620.25 1232.35 C 1607.33 1226.86 1594.98 1221.68 1582.06 1215.98 C 1586.27 1203.71 1593.81 1185.87 1596.92 1174.53 z" fill="rgb(255,255,255)" transform="translate(0,0)"></path>
<path d="M 603.283 1061.36 C 613.022 1059.49 610.161 1064.7 611.831 1075.51 L 612.797 1081.51 C 613.774 1087.69 614.882 1093.84 615.868 1100.01 L 616.792 1105.51 C 617.576 1110.23 618.333 1114.69 618.938 1119.46 C 605.485 1122.18 590.668 1124.06 576.995 1125.88 C 572.561 1126.43 568.154 1127.19 563.79 1128.15 C 553.886 1131.73 556.707 1126.38 554.748 1115.01 C 552.237 1100.44 550.401 1085.16 548.44 1070.46 C 552.613 1069.73 556.83 1068.89 561.008 1068.18 L 572.508 1066.2 C 574.516 1065.88 576.511 1065.52 578.507 1065.14 L 586.993 1063.75 C 588.164 1063.54 589.335 1063.34 590.506 1063.13 L 603.283 1061.36 z" fill="rgb(0,255,65)" transform="translate(0,0)"></path>
<path d="M 596.235 1071.37 C 602.105 1070.2 602.123 1070.39 603.245 1075.98 C 604.247 1080.97 605.119 1085.98 605.859 1091.01 C 606.927 1097.99 608.109 1104.78 609.451 1111.71 C 596.634 1113.82 583.877 1114.87 571.055 1117.27 C 568.831 1117.68 564.195 1119.71 563.84 1116.56 C 562.367 1103.49 560.006 1090.3 558.467 1077.26 L 559.943 1076.98 C 567.876 1075.41 576.462 1074.28 584.503 1073.06 L 596.235 1071.37 z" fill="rgb(255,255,255)" transform="translate(0,0)"></path>
<path d="M 1038.27 1469.53 C 1041.07 1469.4 1051.02 1468.64 1051.46 1470.57 C 1054.41 1483.49 1053.99 1519.47 1053.58 1530.92 L 1005.5 1530.92 C 1001.58 1530.97 997.66 1530.98 993.74 1530.95 C 992.324 1511.43 992.331 1490.12 991.057 1469.7 C 1005.66 1469.72 1023.9 1470.2 1038.27 1469.53 z" fill="rgb(0,255,65)" transform="translate(0,0)"></path>
<path d="M 1628.04 569.408 C 1646.51 569.5 1666.41 570.201 1684.92 570.809 L 1685.01 631.861 C 1678.23 631.926 1671.46 631.867 1664.68 631.683 C 1665.14 632.807 1665.6 633.932 1666.06 635.056 C 1659.35 635.028 1644.85 635.895 1639.34 633.802 C 1638.24 632.149 1638.19 632.287 1636.4 631.286 C 1629.17 631.211 1625.43 633.494 1625.66 626.51 C 1626.28 607.471 1627.41 588.44 1628.04 569.408 z" fill="rgb(0,255,65)" transform="translate(0,0)"></path>
<path d="M 1636.4 631.286 C 1645.84 631.45 1655.23 631.41 1664.68 631.683 C 1665.14 632.807 1665.6 633.932 1666.06 635.056 C 1659.35 635.028 1644.85 635.895 1639.34 633.802 C 1638.24 632.149 1638.19 632.287 1636.4 631.286 z" fill="rgb(232,255,240)" transform="translate(0,0)"></path>
<path d="M 1708.39 958.381 C 1726.61 961.228 1746.04 964.386 1764.42 965.328 C 1762.32 985.675 1758.41 1010.47 1755.07 1030.77 C 1750.89 1031.11 1739.22 1028.08 1734.49 1027.21 L 1726.51 1025.77 C 1721.85 1024.85 1716.68 1023.83 1711.99 1023.14 C 1707.99 1022.58 1704.01 1021.9 1700.05 1021.09 C 1703.41 1001.46 1706.9 978.163 1708.39 958.381 z" fill="rgb(0,255,65)" transform="translate(0,0)"></path>
<path d="M 368.73 647.591 L 429.198 647.832 C 429.211 666.676 429.624 687.328 429.091 705.947 C 409.963 706.42 388.092 706.532 368.962 706.353 C 368.577 686.768 368.499 667.179 368.73 647.591 z" fill="rgb(0,255,65)" transform="translate(0,0)"></path>
<path d="M 377.081 656.888 C 391.663 656.732 406.246 656.776 420.827 657.02 C 420.977 670.313 420.811 683.616 421.004 696.889 L 377.336 696.761 C 377.378 683.469 377.293 670.178 377.081 656.888 z" fill="rgb(255,255,255)" transform="translate(0,0)"></path>
<path d="M 1025.17 1824.94 C 1045.2 1825.01 1066 1824.65 1085.93 1825.18 C 1086.28 1840.62 1087.23 1867.19 1086.47 1881.89 C 1065.67 1881.76 1044.87 1881.81 1024.07 1882.05 C 1024.83 1862.2 1024.82 1844.57 1025.17 1824.94 z" fill="rgb(0,255,65)" transform="translate(0,0)"></path>
<path d="M 598.686 905.381 C 617.571 904.996 640.199 904.791 658.957 905.3 C 659.042 913.168 659.566 957.449 658.643 963.018 C 638.826 963.388 619.53 963.467 599.625 964.041 C 599.102 948.134 598.023 921.041 598.686 905.381 z" fill="rgb(0,255,65)" transform="translate(0,0)"></path>
<path d="M 1569.83 1241.16 C 1581.8 1246.11 1609.44 1260.89 1620.09 1267.62 C 1616.11 1278.13 1600.31 1314.21 1595.21 1322.23 C 1589.35 1320.39 1553.84 1301.75 1545.83 1297.87 C 1553.43 1279.84 1561.32 1260.49 1569.17 1242.68 L 1569.83 1241.16 z" fill="rgb(0,255,65)" transform="translate(0,0)"></path>
<path d="M 680.467 1492.16 C 692.161 1496.87 721.954 1515.96 731.916 1523.56 C 728.963 1531.31 710.145 1563.58 704.925 1571.41 C 704.789 1571.57 703.663 1572.96 703.422 1572.86 C 691.909 1568.03 664.904 1549.1 654.603 1543.73 C 662.311 1525.96 673.121 1510.05 680.467 1492.16 z" fill="rgb(0,255,65)" transform="translate(0,0)"></path>
<path d="M 1432.82 812.077 L 1494.31 812.001 C 1494.57 830.845 1494.58 849.692 1494.34 868.536 C 1474.36 867.381 1452.74 868.803 1432.65 868.956 C 1433.12 850.023 1432.62 831.013 1432.82 812.077 z" fill="rgb(0,255,65)" transform="translate(0,0)"></path>
<path d="M 486.883 1360.75 C 492.109 1363.74 514.953 1404.49 519.1 1412.49 C 500.171 1422.21 488.65 1429.42 470.689 1440.02 C 469.317 1441.12 468.367 1442.06 467.195 1440 C 457.859 1423.57 449.043 1405.4 439.058 1389.45 C 456.632 1379.42 469.709 1371.81 486.883 1360.75 z" fill="rgb(0,255,65)" transform="translate(0,0)"></path>
<path d="M 485.438 1373.09 C 488.785 1376.63 501.834 1399.91 506.556 1406.71 L 507.661 1408.33 C 496.176 1414.9 483.497 1421.87 472.574 1429.08 C 471.812 1429.39 472.08 1429.33 471.682 1429.38 C 470.477 1428.84 452.883 1396.29 451.056 1392.67 C 462.818 1386.69 474.291 1380.16 485.438 1373.09 z" fill="rgb(255,255,255)" transform="translate(0,0)"></path>
<path d="M 1157.15 1482.89 C 1158.45 1485.37 1159.29 1487.92 1160.55 1490.53 L 1162.32 1489.66 C 1166.53 1494.97 1171.88 1507.11 1176.04 1511.03 C 1175.26 1511.34 1175.19 1511.52 1174.47 1512.14 C 1177.5 1518.34 1181.65 1525.73 1184.97 1532.2 C 1174.98 1539.26 1156.35 1550.85 1145.57 1557.49 C 1143.74 1558.51 1142.25 1559.46 1140.51 1560.58 C 1138.59 1561.62 1136.81 1562.72 1134.93 1563.81 C 1126.61 1548.91 1113.17 1528.54 1106.75 1515.01 C 1116.52 1507.64 1146.56 1489.11 1157.15 1482.89 z" fill="rgb(0,255,65)" transform="translate(0,0)"></path>
<path d="M 1160.55 1490.53 L 1162.32 1489.66 C 1166.53 1494.97 1171.88 1507.11 1176.04 1511.03 C 1175.26 1511.34 1175.19 1511.52 1174.47 1512.14 C 1171.19 1508.06 1163.07 1495.27 1160.55 1490.53 z" fill="rgb(165,252,171)" transform="translate(0,0)"></path>
<path d="M 1550.86 506.809 L 1611.09 507.877 C 1611.03 526.199 1611.41 546.529 1610.72 564.688 L 1550.23 563.207 L 1550.86 506.809 z" fill="rgb(0,255,65)" transform="translate(0,0)"></path>
<path d="M 1471.24 1536.79 C 1476.22 1539.07 1501.47 1575.44 1505.83 1582.09 C 1495.56 1590.95 1472.07 1608.69 1460.55 1617.56 C 1457.15 1617.87 1429.45 1577.61 1426.54 1571.2 C 1440.53 1559.09 1456.86 1549.05 1471.24 1536.79 z" fill="rgb(0,255,65)" transform="translate(0,0)"></path>
<path d="M 1512.23 884.525 C 1525.47 884.157 1538.71 883.93 1551.95 883.845 C 1552 899.091 1551.3 923.345 1552.5 937.84 L 1552.66 939.871 C 1545.18 940.341 1538.28 940.861 1530.75 941.134 C 1517.03 941.691 1507.5 942.304 1493.35 942.042 C 1492.43 924.859 1492.61 902.143 1492.85 884.808 L 1512.23 884.525 z" fill="rgb(0,255,65)" transform="translate(0,0)"></path>
<path d="M 616.184 1129.25 C 618.506 1131.73 635.055 1181.6 637.428 1189.03 L 634.958 1189.69 C 623.162 1192.7 604.242 1199.19 593.732 1204.82 C 583.428 1184.74 578.549 1165.73 570.529 1145.27 C 585.477 1139.82 601.741 1135.89 616.184 1129.25 z" fill="rgb(0,255,65)" transform="translate(0,0)"></path>
<metadata><recraft-signature>{"signed_by": "recraft", "signature_b64": "QYG8XNYHnagNWfYeETgAn9C4UfaUxF4JitzAwenU4UKw1Xw1IRJ1W7V2MaNZB4JbQyvFM+UvXhzqCONfSjNNAw==", "signing_algo": "Ed25519", "generation_timestamp": 1772834376, "identifier": "b8d759df-9cf4-4786-94ef-c2103d852bf7"}</recraft-signature></metadata></svg>