<svg xmlns="http://www.w3.org/2000/svg" height="1024" preserveAspectRatio="none" style="display: block;" version="1.1" viewBox="0 0 2048 2048" width="1024">
<path d="M 0 0 L 2048 0 L 2048 2048 L 0 2048 L 0 0 z" fill="rgb(255,255,255)" transform="translate(0,0)"></path>
<path d="M 1267.03 121.034 C 1280.94 119.019 1306.96 120.212 1321.4 120.085 C 1334.89 119.966 1352.71 119.628 1365.7 120.508 C 1424.35 124.246 1480.57 145.289 1527.27 180.977 C 1585.41 224.572 1625.96 291.349 1636.06 363.5 C 1637.65 374.921 1639.88 413.218 1638.29 425.075 C 1638.87 468.581 1637.23 512.842 1638.46 556.304 C 1639.37 581.699 1638.84 609.057 1638.81 634.571 L 1638.77 761.754 L 1638.54 942.036 C 1638.36 961.675 1638.74 984.148 1638.07 1003.48 C 1638.07 1056.32 1641.77 1106.94 1621.92 1157.04 C 1609.13 1189.05 1596.04 1215.33 1573.02 1241.95 C 1551.51 1268.03 1517.91 1296.9 1487.8 1312.2 C 1434.36 1340.05 1391.52 1350.33 1331.73 1351.12 C 1296.41 1352.53 1258.29 1351.37 1222.5 1352.02 C 1052.38 1354.29 882.229 1353.98 712.115 1351.1 C 659.279 1351.12 607.314 1337.65 561.145 1311.95 C 530.87 1295.8 496.792 1266.92 475.291 1240.39 C 449.49 1209.83 442.462 1191.26 427.049 1156.96 C 407.177 1105.12 409.374 1057.5 409.18 1003.35 C 410.192 897.842 410.46 792.333 409.983 686.825 C 409.885 645.372 408.77 602.861 409.707 561.545 C 409.592 518.258 408.075 465.384 409.507 423.205 C 407 339.926 432.595 266.041 492.38 206.687 C 538.004 161.58 596.943 132.368 660.467 123.377 C 685.957 119.938 708.103 120.617 733.583 120.489 C 765.22 120.265 796.859 120.24 828.496 120.415 C 845.051 120.35 872.991 119.47 888.719 120.96 L 1074.8 121.031 L 1133.32 121.202 C 1140.55 121.235 1156.86 120.919 1163.74 121.571 C 1197.66 120.48 1232.89 121.63 1267.03 121.034 z" fill="rgb(0,0,0)" transform="translate(0,0)"></path>
<path d="M 1267.03 121.034 C 1280.94 119.019 1306.96 120.212 1321.4 120.085 C 1334.89 119.966 1352.71 119.628 1365.7 120.508 C 1424.35 124.246 1480.57 145.289 1527.27 180.977 C 1585.41 224.572 1625.96 291.349 1636.06 363.5 C 1637.65 374.921 1639.88 413.218 1638.29 425.075 C 1629.59 412.322 1611.56 400.094 1598.54 392.447 C 1539.09 357.506 1465.29 369.662 1408.27 403.506 C 1381.67 419.297 1357.52 439.23 1333.56 458.716 C 1253.36 521.851 1174.79 598.847 1069.64 614.497 C 1027.47 620.773 993.198 618.248 952.172 608.321 C 904.191 596.711 866.766 579.293 826.522 550.597 C 809.859 538.715 794.859 524.723 779.46 511.252 C 754.423 489.459 729.12 467.973 703.555 446.801 C 649.825 403.097 611.575 374.132 537.579 370.788 C 482.92 368.319 448.988 386.298 409.507 423.205 C 407 339.926 432.595 266.041 492.38 206.687 C 538.004 161.58 596.943 132.368 660.467 123.377 C 685.957 119.938 708.103 120.617 733.583 120.489 C 765.22 120.265 796.859 120.24 828.496 120.415 C 845.051 120.35 872.991 119.47 888.719 120.96 L 1074.8 121.031 L 1133.32 121.202 C 1140.55 121.235 1156.86 120.919 1163.74 121.571 C 1197.66 120.48 1232.89 121.63 1267.03 121.034 z" fill="rgb(0,255,65)" transform="translate(0,0)"></path>
<path d="M 1163.74 121.571 C 1197.66 120.48 1232.89 121.63 1267.03 121.034 C 1273.11 130.078 1281.64 142.183 1286.6 151.623 C 1309.3 195.854 1316.29 246.482 1306.44 295.208 C 1293.65 359.877 1248.23 415.068 1194.11 450.572 C 1169.18 466.92 1118.44 494.947 1090.87 505.269 C 1090.51 478.067 1092.93 451.599 1092.87 425.123 C 1117.11 412.879 1135.54 403.086 1155.12 383.767 C 1235.14 304.848 1239.96 202.4 1163.74 121.571 z" fill="rgb(0,0,0)" transform="translate(0,0)"></path>
<path d="M 828.496 120.415 C 845.051 120.35 872.991 119.47 888.719 120.96 C 878.242 130.776 868.105 144.123 860.735 156.389 C 835.518 198.092 828.209 248.209 840.465 295.376 C 855.733 355.215 904.344 393.329 954.564 423.417 C 955.925 445.506 955.379 479.319 955.215 502.059 C 876.422 464.297 789.675 419.061 756.15 333.374 C 734.028 280.471 736.074 218.662 758.754 166.355 C 765.496 150.804 780.62 134.461 785.94 120.592 C 800.126 120.635 814.312 120.576 828.496 120.415 z" fill="rgb(0,0,0)" transform="translate(0,0)"></path>
<path d="M 409.707 561.545 C 437.432 569.858 482.255 578.069 511.871 584.793 L 713.624 630.301 C 715.433 648.527 718.87 668.463 721.571 686.696 L 733.529 769.625 C 738.244 801.803 743.141 833.954 748.222 866.076 C 750.968 883.961 753.219 903.718 756.952 921.221 C 677.241 937.931 598.136 959.533 518.698 977.277 C 487.802 984.178 438.897 999.852 409.18 1003.35 C 410.192 897.842 410.46 792.333 409.983 686.825 C 409.885 645.372 408.77 602.861 409.707 561.545 z" fill="rgb(0,255,65)" transform="translate(0,0)"></path>
<path d="M 1638.46 556.304 C 1639.37 581.699 1638.84 609.057 1638.81 634.571 L 1638.77 761.754 L 1638.54 942.036 C 1638.36 961.675 1638.74 984.148 1638.07 1003.48 C 1594.14 989.936 1542.7 980.522 1497.51 969.116 C 1429.97 952.07 1361.61 935.609 1293.67 920.311 C 1306.6 840.068 1317.38 759.247 1329.88 678.912 C 1332.39 662.805 1334.42 646.629 1337.3 630.577 C 1360.84 625.713 1636.14 561.601 1637.26 560.682 C 1638.44 559.71 1638.25 557.733 1638.46 556.304 z" fill="rgb(0,255,65)" transform="translate(0,0)"></path>
<path d="M 1330.93 1156.68 L 1621.92 1157.04 C 1609.13 1189.05 1596.04 1215.33 1573.02 1241.95 C 1551.51 1268.03 1517.91 1296.9 1487.8 1312.2 C 1434.36 1340.05 1391.52 1350.33 1331.73 1351.12 L 1330.93 1156.68 z" fill="rgb(0,255,65)" transform="translate(0,0)"></path>
<path d="M 1490.08 1241.1 C 1517.94 1241.24 1545.16 1241.03 1573.02 1241.95 C 1551.51 1268.03 1517.91 1296.9 1487.8 1312.2 L 1487.72 1311.14 C 1486.57 1298.2 1489.57 1296.84 1489.75 1285.34 C 1489.99 1270.64 1489.86 1255.84 1490.08 1241.1 z" fill="rgb(0,0,0)" transform="translate(0,0)"></path>
<path d="M 427.049 1156.96 L 711.923 1156.72 C 712.438 1221.52 712.502 1286.31 712.115 1351.1 C 659.279 1351.12 607.314 1337.65 561.145 1311.95 C 530.87 1295.8 496.792 1266.92 475.291 1240.39 C 449.49 1209.83 442.462 1191.26 427.049 1156.96 z" fill="rgb(0,255,65)" transform="translate(0,0)"></path>
<path d="M 475.291 1240.39 C 504.321 1240.83 533.357 1240.84 562.387 1240.42 C 562.508 1249.98 563.37 1305.25 561.145 1311.95 C 530.87 1295.8 496.792 1266.92 475.291 1240.39 z" fill="rgb(0,0,0)" transform="translate(0,0)"></path>
<path d="M 754.763 633.072 L 1299.4 634.581 C 1297.46 662.426 1292.62 693.028 1289.62 720.994 C 1282.44 787.785 1271.38 856.713 1265.73 923.485 L 1212.5 923.345 C 1200.01 923.359 1103.49 922.238 1100.08 924.639 L 1099.59 929.723 C 1096.85 931.955 1082.82 931.121 1078.62 931.103 C 1070.39 904.101 1060.38 879.031 1051.81 852.283 C 1035.4 853.376 1012.1 852.724 995.351 852.346 C 985.393 878.012 977.7 904.385 970.203 930.842 C 965.325 930.761 959.084 930.773 954.224 930.461 C 950.438 930.218 953.446 927.501 951.075 924.241 C 936.092 923.212 914.876 923.687 899.253 923.632 C 863.552 923.576 827.851 923.708 792.151 924.03 C 788.723 903.982 786.517 883.428 783.659 863.25 C 777.34 820.764 771.661 778.185 766.625 735.528 C 763.027 705.513 756.514 661.97 754.763 633.072 z" fill="rgb(0,255,65)" transform="translate(0,0)"></path>
<path d="M 436.095 1057.86 L 816.048 1058.51 C 816.275 1088.19 816.289 1117.87 816.09 1147.55 C 815.994 1168.18 808.656 1258.74 848.271 1245.4 C 897.475 1228.82 942.33 1189.48 995.786 1182.23 C 1035.83 1176.8 1080.23 1180.55 1115.9 1200.22 C 1144.98 1215.48 1171.55 1243.26 1204.9 1246.32 C 1236.45 1247.99 1232 1169.41 1232.17 1149.25 L 1232.86 1059.07 L 1619.04 1058.61 C 1619.29 1080.31 1619.28 1102 1619 1123.69 C 1598.7 1123.49 1578.41 1123.41 1558.11 1123.45 L 1299.38 1123.03 C 1298.33 1169.01 1302.06 1213.09 1296.34 1259.26 C 1293.21 1284.54 1297.17 1308.22 1277.63 1329.16 C 1227.55 1382.84 1170.59 1308.04 1127 1284.17 C 1073.69 1253.17 998.571 1245.35 942.95 1275.35 C 911.954 1292.07 879.676 1314.15 848.016 1330.69 C 838.942 1335.44 822.226 1347.07 811.548 1346.99 C 791.191 1346.84 770.508 1334.72 761.2 1316.49 C 749.842 1296.69 752.743 1274.05 750.912 1252.22 C 747.298 1209.14 747.841 1166.51 747.8 1123.29 L 529.311 1123.41 C 499.659 1123.39 466.223 1124.54 437.02 1123.53 C 435.928 1102.71 436.272 1078.9 436.095 1057.86 z" fill="rgb(0,255,65)" transform="translate(0,0)"></path>
<path d="M 1340.64 998.479 C 1368.96 997.806 1399.28 998.29 1427.71 998.38 L 1427.12 1038.96 L 1219.16 1039.08 C 1218.21 1067.75 1218.85 1094.48 1215.68 1123.35 C 1213.03 1147.49 1216.56 1174.56 1185.5 1182.55 C 1167.74 1186.86 1152.5 1173.27 1139.55 1162.73 C 1086.18 1119.3 1021.07 1088.68 955.874 1128.31 C 931.916 1142.87 908.648 1161.25 885.83 1177.77 C 881.895 1180.61 875.734 1183.43 870.637 1183.27 C 835.124 1181.15 831.623 1152.83 830.992 1123.78 C 828.881 1093.98 828.99 1066.7 829.048 1037.05 L 774.5 1037.23 L 627.067 1037.7 L 626.84 999.01 L 872.002 999.285 C 871.942 1020.49 867.538 1097.86 880.939 1112.18 C 885.205 1116.74 891.098 1115.75 896.464 1114.17 C 909.136 1110.46 920.891 1101.59 932.577 1095.45 C 952.481 1085.01 978.29 1077.88 1000.43 1074.4 C 1058.47 1065.3 1082.79 1077.46 1131.43 1104.27 C 1139.8 1108.88 1150.25 1114.81 1160.03 1114.79 C 1162.62 1114.79 1164.14 1114.42 1165.93 1112.48 C 1179.72 1097.56 1175.2 1022.02 1175.12 999.753 C 1229.44 1000.78 1286.16 999.276 1340.64 998.479 z" fill="rgb(0,255,65)" transform="translate(0,0)"></path>
<path d="M 1142.53 958.992 L 1301.87 958.738 C 1301.88 968.062 1301.7 977.475 1301.59 986.806 L 1255.5 986.554 L 1168.27 985.862 L 1167.91 1045.8 C 1158.94 1054.24 1141.28 1071.69 1131.65 1077.86 C 1089.1 1059.86 1080.36 1020.66 1023.81 1023.59 C 975.178 1026.11 960.09 1060.16 921.832 1077.59 L 920.455 1078.21 C 909.496 1073.33 888.273 1058.27 880.941 1048.9 L 880.937 986.698 C 838.188 986.379 794.967 987.288 752.335 986.53 C 752.06 977.617 752.262 968.018 752.285 959.05 L 903.48 959.075 C 903.475 973.069 901.492 1010.07 907.965 1020.72 C 922.567 1041.67 964.262 1014.91 981.18 1009.11 C 1017 996.852 1052.15 999.855 1086.24 1015.56 C 1099.21 1021.53 1113.38 1027.46 1127.31 1030.84 C 1151.77 1020.3 1142.95 982.795 1142.53 958.992 z" fill="rgb(0,255,65)" transform="translate(0,0)"></path>
<path d="M 914.072 948.032 L 952.758 947.959 L 952.521 959.439 C 970.994 959 1096.19 960.463 1102.74 957.357 C 1103.2 955.034 1103.24 954.447 1103.2 952.145 L 1103.16 950.129 C 1106.45 947.13 1132.7 948.36 1138.63 948.4 C 1139.15 960.804 1139.37 973.219 1139.27 985.634 C 1131.35 991.943 1119.26 999.459 1110.6 1005.12 C 1108.03 1006.17 1105.87 1007.6 1103.29 1006.33 C 1093.97 1001.34 1085.95 993.551 1077.34 987.211 C 1049.75 966.889 1013.29 964.981 983.474 981.762 C 970.106 989.284 957.92 998.651 944.801 1006.78 C 931.691 1001.6 923.505 995.765 913.176 986.325 C 912.987 974.105 913.68 960.379 914.072 948.032 z" fill="rgb(0,255,65)" transform="translate(0,0)"></path>
<path d="M 705.731 1459.27 C 722.348 1459.51 738.968 1459.47 755.584 1459.17 C 762.428 1478.78 773.145 1501.98 781.471 1521.35 L 822.499 1617.78 L 954.949 1932.65 C 934.046 1933.07 912.634 1932.92 891.691 1933.01 C 885.05 1915.33 876.41 1896.61 869.187 1878.96 C 861.08 1859.16 853.287 1837.82 844.504 1818.47 C 813.476 1817.81 781.827 1817.91 750.75 1817.71 C 708.043 1817.68 654.32 1816.39 612.782 1818.74 C 598.253 1852.51 576.764 1898.12 565.476 1931.87 C 544.098 1931.81 522.389 1931.33 500.99 1931 C 506.619 1913.33 519.57 1886.75 527.252 1869.07 C 545.333 1826.73 563.878 1784.58 582.882 1742.64 C 624.522 1648.75 663.706 1553.04 705.731 1459.27 z" fill="rgb(0,0,0)" transform="translate(0,0)"></path>
<path d="M 729.404 1540.73 C 733.331 1545.08 813.248 1739.14 822.082 1762 C 791.223 1762.4 760.362 1762.65 729.5 1762.74 L 635.165 1762.58 C 664.119 1688.18 699.602 1614.92 729.404 1540.73 z" fill="rgb(255,255,255)" transform="translate(0,0)"></path>
<path d="M 1336.18 1459.5 L 1394.99 1459.9 L 1394.93 1714.57 C 1394.87 1786.3 1395.67 1859.27 1394.8 1930.83 L 1343.76 1930.59 C 1314.82 1889.8 1285.14 1851.37 1255.15 1811.57 L 1076.16 1576.03 L 1076.13 1932.75 C 1061.11 1933.75 1035.05 1932.8 1019.27 1932.68 C 1017.02 1917.12 1017.44 1887.51 1017.39 1870.9 L 1017.26 1774.76 L 1016.99 1460.04 C 1033.74 1460.29 1050.93 1460.09 1067.71 1460.08 C 1093.43 1494.53 1118.76 1530.86 1144.58 1565.66 C 1206.13 1648.85 1269.6 1730.6 1334.93 1810.85 L 1335.47 1575.48 L 1335.39 1505.02 C 1335.38 1491.3 1335.04 1472.78 1336.18 1459.5 z" fill="rgb(0,0,0)" transform="translate(0,0)"></path>
<path d="M 1493.17 1459.25 C 1512.73 1459.1 1532.3 1459.17 1551.87 1459.46 L 1552.08 1709.86 C 1574.54 1681.11 1613.35 1641.75 1637.88 1614.23 C 1683.25 1563.31 1729.6 1508.44 1777.02 1459.8 C 1802.43 1460.26 1829.36 1459.66 1854.97 1459.63 C 1833.46 1483.63 1810.59 1507 1788.49 1530.54 C 1743.6 1578.48 1698.31 1626.05 1652.63 1673.24 C 1663.79 1688.43 1679.89 1706.49 1692.19 1721.19 L 1759.81 1802.55 C 1795.45 1845.74 1830.8 1889.16 1865.85 1932.83 C 1841.24 1933.21 1815.9 1932.93 1791.23 1932.94 C 1762.92 1895.81 1727.33 1854.54 1697.49 1817.54 L 1647.47 1755.97 C 1637.58 1743.82 1625.68 1728.48 1615.01 1717.45 C 1607.47 1724.85 1598.36 1736.99 1591.35 1745.53 L 1552.94 1791.85 C 1551.62 1805.78 1552.22 1827.72 1552.2 1842.37 L 1552.08 1933.13 L 1494.06 1933.16 L 1493.17 1459.25 z" fill="rgb(0,0,0)" transform="translate(0,0)"></path>
<path d="M 189.103 1459.26 C 264.318 1458.52 339.541 1458.74 414.751 1459.92 L 571.829 1459.95 C 572.589 1479.96 573.012 1497.61 573.072 1517.66 C 520.913 1517.81 462.206 1516.75 410.562 1518.75 C 408.738 1541.83 409.509 1577.36 409.366 1601.21 C 409.097 1658.22 409.127 1715.24 409.456 1772.25 C 408.951 1825.29 409.885 1879.95 409.988 1933.14 L 352.316 1932.84 C 350.534 1916.13 351.06 1894.32 351.049 1877.16 L 351.058 1793.71 L 351.295 1519.11 C 297.252 1519.04 243.208 1519.28 189.167 1519.84 C 188.955 1499.64 188.934 1479.45 189.103 1459.26 z" fill="rgb(0,0,0)" transform="translate(0,0)"></path>
<metadata><recraft-signature>{"signed_by": "recraft", "signature_b64": "ln3xunMzIFeuKxAOlkIEHR52FqIis9is8CnA2BDHSj2T16YE+SlmPA8rRqeJsq2hzEgWWgJMqe/2O744CgD+DA==", "signing_algo": "Ed25519", "generation_timestamp": 1772834397, "identifier": "1eeb862f-3f43-4aff-9d7c-716ebc85adc5"}</recraft-signature></metadata></svg>