<svg xmlns="http://www.w3.org/2000/svg" height="1024" preserveAspectRatio="none" style="display: block;" version="1.1" viewBox="0 0 2048 2048" width="1024">
<defs>
	<linearGradient gradientUnits="userSpaceOnUse" id="Gradient1" x1="1078.28" x2="1080.26" y1="714.504" y2="724.151">
		<stop class="stop0" offset="0" stop-color="rgb(2,23,9)" stop-opacity="1"></stop>
		<stop class="stop1" offset="1" stop-color="rgb(18,62,26)" stop-opacity="1"></stop>
	</linearGradient>
	<linearGradient gradientUnits="userSpaceOnUse" id="Gradient2" x1="783.389" x2="788.447" y1="1082" y2="1080.6">
		<stop class="stop0" offset="0" stop-color="rgb(7,74,22)" stop-opacity="1"></stop>
		<stop class="stop1" offset="1" stop-color="rgb(0,211,61)" stop-opacity="1"></stop>
	</linearGradient>
</defs>
<path d="M 0 0 L 2048 0 L 2048 2048 L 0 2048 L 0 0 z" fill="rgb(0,0,0)" transform="translate(0,0)"></path>
<path d="M 998.516 329.423 C 1383.28 315.39 1706.59 615.912 1720.65 1000.68 C 1734.72 1385.45 1434.23 1708.78 1049.46 1722.88 C 664.647 1736.99 341.265 1436.45 327.195 1051.63 C 313.125 666.81 613.696 343.457 998.516 329.423 z" fill="rgb(0,255,65)" transform="translate(0,0)"></path>
<path d="M 742.103 455.948 L 751.649 453.011 C 758.617 477.981 766.02 506.716 773.94 531.211 C 787.883 523.858 810.193 513.404 825.7 510.311 C 813.51 517.314 788.322 527.907 774.61 533.209 C 780.606 552.067 786.362 571 791.876 590.005 C 793.736 596.285 800.24 619.194 802.831 623.786 C 808.939 618.992 828.282 611.232 836.108 607.947 L 840.025 607.031 C 840.539 607.418 841.052 607.804 841.566 608.19 C 846.955 631.719 856.198 674.728 862.626 696.291 C 870.145 693.688 891.48 685.677 897.608 684.727 L 898.068 685.251 C 891.426 690.097 872.356 697.102 863.699 699.908 C 870.617 722.597 876.615 745.556 881.677 768.729 C 888.123 765.639 904.456 757.27 910.689 757.067 C 906 761.728 889.088 769.2 882.24 772.405 C 891.388 803.979 897.266 835.645 905.807 867.239 C 914.578 862.088 927.738 855.987 937.147 852.007 C 928.011 860.771 911.592 865.904 906.631 870.745 C 906.836 874.12 907.048 876.082 907.548 879.429 C 911.147 881.692 916.561 875.63 919.963 873.405 C 986.711 829.761 1078.54 836.237 1139.78 882.401 L 1143.16 869.191 C 1137.73 866.898 1119.11 859.614 1116.33 855.749 C 1126.93 858.712 1133.88 861.631 1143.78 866.389 C 1150.8 836.106 1160.51 803.332 1168.06 772.096 C 1160.14 769.209 1147.7 764.992 1141.23 760.028 L 1142.28 759.499 C 1151.68 761.244 1160.16 764.839 1169.16 768.139 C 1171.57 757.76 1186.4 703.869 1185.96 698.119 C 1180.17 697.102 1158.65 689.37 1153.76 685.511 L 1154.22 684.898 C 1165.05 688.026 1176.38 692.602 1186.98 696.619 C 1190.62 690.547 1205.95 620.602 1209.7 607.033 C 1222.11 611.593 1236.24 616.754 1247.99 622.651 C 1256.36 592.859 1265.2 563.203 1274.52 533.693 C 1258.92 525.537 1234.42 517.572 1222.5 508.142 C 1235.59 510.509 1262.71 523.579 1276.15 529.546 C 1284.17 504.224 1290.24 478.854 1298.18 453.484 L 1306.42 458.236 C 1298.02 482.299 1289.96 506.48 1282.24 530.771 C 1293.49 537.036 1308.96 544.031 1318.5 552.088 L 1318.01 557.536 C 1319.98 561.343 1320.75 560.904 1324.91 563.66 C 1345.31 577.82 1369.81 595.781 1388.61 612.203 C 1391.32 614.559 1395.2 617.72 1397.68 620.137 C 1413.61 634.926 1433.55 654.454 1447.5 671.213 C 1455.09 680.283 1470.18 697.93 1475.56 707.984 C 1479.43 711.913 1488.35 725.878 1491.52 730.945 C 1515.38 768.614 1534.82 808.907 1549.44 851.027 C 1582.84 953.23 1589.14 1056.52 1561.97 1160.91 C 1558.04 1176 1548.27 1212.74 1540.37 1225.62 C 1534.93 1241.57 1502.59 1309.68 1491.8 1319.43 C 1478.87 1341.3 1454.02 1372.68 1436.83 1391.57 C 1410.88 1418.89 1382.62 1443.91 1352.35 1466.35 L 1348.23 1469.35 L 1343.27 1472.61 C 1336.32 1478.01 1329.2 1482.75 1321.93 1487.7 C 1320.06 1489.31 1320.84 1488.35 1320.08 1490.98 C 1321.28 1493.91 1321.47 1493.96 1321.7 1497.05 C 1317.93 1503.08 1291.73 1515.5 1283.85 1519.42 C 1292.07 1543.9 1300.45 1568.31 1308.99 1592.67 L 1299.8 1596.44 C 1291.8 1573.62 1283.81 1542.34 1276.35 1518.16 C 1265.97 1523.12 1239.16 1535.68 1228.89 1536.96 L 1229.2 1536.07 C 1242.6 1528.71 1261.52 1521.21 1275.79 1515.37 C 1273.76 1507.05 1269.09 1493.68 1266.36 1485.08 L 1248.11 1427.26 C 1236.15 1432.03 1221.22 1438.48 1209.88 1444.25 C 1201.14 1415.58 1194.72 1384.18 1186 1354.63 C 1182.03 1356.19 1154.16 1367.07 1152.58 1366.79 C 1154.76 1362.95 1178.93 1353.89 1184.96 1351.3 C 1178.86 1330.46 1172.52 1304.37 1168.02 1283.15 C 1161.85 1285.43 1143.01 1294.44 1137.96 1294.21 C 1140.26 1290.88 1162.05 1282.33 1167.68 1279.94 C 1159.27 1252.21 1151.98 1216.74 1144.21 1187.87 C 1136.04 1192.15 1127.47 1195.61 1118.62 1198.2 L 1118.77 1197.42 C 1126.33 1192.65 1134.55 1189.43 1142.77 1185.92 C 1143.83 1182.72 1142.11 1177.86 1141.31 1174.01 C 1078.86 1224.32 991.508 1224.87 924.021 1186.68 C 918.843 1183.75 912.662 1176.75 907.065 1177.37 L 905.593 1179.52 C 905.379 1182.2 905.032 1183.25 905.965 1185.74 C 913.871 1189.52 922.937 1193.77 930.077 1198.72 L 930.208 1199.68 C 920.395 1197.13 913.714 1193.18 904.829 1188.43 C 897.141 1212.1 887.877 1253.88 881.403 1278.98 C 892.46 1284.74 903.599 1289.07 914.543 1294.56 C 902.468 1292.32 892.192 1287.86 880.852 1283.18 C 878.471 1294.48 867.439 1342.87 863.263 1351.95 C 874.485 1356.66 885.75 1361.26 897.056 1365.76 L 897.133 1366.47 C 887.726 1365.93 872.471 1358.79 863.178 1355.01 C 854.292 1383.01 848.335 1416.28 839.634 1443.25 C 826.838 1438.36 814.158 1433.75 801.819 1427.79 C 792.19 1457.25 783.14 1486.9 774.673 1516.72 C 788.802 1523.53 806.29 1530.83 819.606 1537.6 L 819.277 1538.23 C 806.8 1537.07 785.878 1525.96 773.807 1520.05 C 766.039 1545.94 759.247 1572.14 751.637 1597.58 C 748.318 1596.39 744.43 1594.87 741.06 1594.03 C 749.818 1569.7 757.933 1545.15 765.398 1520.39 C 758.552 1516.38 730.185 1502.02 728.215 1497.67 C 728.116 1494.04 728.771 1492.02 730.459 1488.65 L 720.404 1482.41 C 716.415 1479.83 713.158 1477.84 709.5 1474.76 C 692.968 1464.82 662.215 1439.65 648.281 1426.3 C 646.611 1425.24 643.417 1422.1 641.798 1420.6 C 620.643 1403.96 589.88 1366.79 574.22 1345.21 C 557.166 1326.17 534.115 1282.95 522.796 1260.03 C 511.332 1236.15 498.606 1206.78 492.472 1180.95 C 488.513 1172.88 483.925 1152.53 481.814 1143 C 463.657 1061.11 465.746 972.814 486.345 891.586 C 489.93 877.449 494.45 859.885 500.315 846.68 C 501.403 838.856 514.436 809.391 518.194 801.721 C 532.264 765.215 584.36 684.918 613.104 658.805 C 623.509 645.207 660.332 611.304 673.966 601.609 C 683.274 593.436 700.268 581.447 710.594 573.999 C 714 570.874 718.395 568.076 722.244 565.424 C 725.419 563.119 728.374 561.577 729.738 558 C 729.662 556.31 729.558 554.622 729.427 552.935 C 735.878 546.037 756.9 535.637 766.167 531.188 C 758.721 506.324 750.958 480.325 742.103 455.948 z" fill="rgb(0,0,0)" transform="translate(0,0)"></path>
<path d="M 1213.72 749.711 C 1218.05 752.282 1220.81 754.122 1224.87 757.1 L 1224.96 758.335 L 1214.02 787.663 C 1272.26 826.697 1314.59 901.392 1328.14 969.561 C 1343.35 1048.02 1326.84 1129.3 1282.24 1195.61 C 1270.29 1213.43 1233.57 1257.38 1212.94 1263.1 C 1216.8 1268.01 1224.14 1286.28 1226.42 1292.49 C 1221.88 1296.28 1217.93 1298.79 1213.03 1302.01 C 1209 1288.75 1204.81 1275.54 1200.46 1262.38 C 1207.08 1257.72 1206.68 1256.86 1213.15 1260.73 C 1212.6 1258.42 1210.64 1253.78 1209.69 1251.36 C 1213.47 1250.78 1220.21 1244.31 1223.12 1241.59 C 1248.48 1217.86 1271.22 1190.69 1286.36 1159.25 C 1283.79 1160.59 1269.83 1185.04 1265.48 1190.79 C 1259.35 1199.65 1236.35 1227.76 1228.76 1232.93 C 1221.24 1240.08 1215.09 1245.67 1206.22 1251.22 C 1203.37 1253.33 1202.07 1254.45 1198.78 1255.94 C 1194.88 1245.16 1192.08 1234.53 1187.68 1222.79 C 1186.6 1218.19 1184.19 1211.78 1182.26 1207.49 C 1182.43 1204.9 1199.06 1189.64 1202.56 1185.61 C 1222.01 1163.29 1238.14 1138.28 1250.46 1111.36 C 1253.17 1107.85 1257.07 1097.1 1257.85 1092.57 L 1257.1 1091.94 L 1255.47 1094.92 L 1254.08 1095.28 C 1269.73 1053.17 1272.79 1021.83 1259.49 978.348 C 1259.78 971.035 1259.95 968.278 1256.81 961.708 C 1254.31 950.886 1248.42 938.273 1242.84 928.689 C 1224.12 893.042 1212.24 881.828 1187.36 852.019 L 1181.19 846.511 C 1183.86 839.051 1186.58 831.607 1189.35 824.179 C 1191.29 817.658 1195.63 807.246 1198.16 800.579 L 1199.53 795.918 C 1202.92 795.488 1207.59 800.93 1210.71 803.232 C 1214.76 806.938 1219.28 810.906 1223.14 814.749 C 1233.93 824.961 1243.97 835.944 1253.17 847.613 C 1256.73 852.052 1266.34 865.777 1270.52 867.916 C 1259.73 848.289 1228.19 816.354 1211.54 800.959 C 1209.26 796.136 1207.53 794.962 1203.54 791.64 L 1202.21 790.547 C 1200.77 785.067 1211.16 757.412 1213.72 749.711 z" fill="rgb(0,0,0)" transform="translate(0,0)"></path>
<path d="M 1213.72 749.711 C 1218.05 752.282 1220.81 754.122 1224.87 757.1 L 1224.96 758.335 L 1214.02 787.663 C 1272.26 826.697 1314.59 901.392 1328.14 969.561 C 1343.35 1048.02 1326.84 1129.3 1282.24 1195.61 C 1270.29 1213.43 1233.57 1257.38 1212.94 1263.1 C 1216.8 1268.01 1224.14 1286.28 1226.42 1292.49 C 1221.88 1296.28 1217.93 1298.79 1213.03 1302.01 C 1209 1288.75 1204.81 1275.54 1200.46 1262.38 C 1207.08 1257.72 1206.68 1256.86 1213.15 1260.73 C 1212.6 1258.42 1210.64 1253.78 1209.69 1251.36 C 1213.47 1250.78 1220.21 1244.31 1223.12 1241.59 C 1248.48 1217.86 1271.22 1190.69 1286.36 1159.25 L 1287.45 1157.24 C 1287.17 1151.71 1296.5 1134.08 1298.72 1127.65 C 1323.91 1054.88 1321.45 972.916 1288.61 902.938 C 1286.71 898.892 1281.82 890.485 1282.16 886.674 C 1280.94 883.197 1273.16 870.551 1270.52 867.916 C 1259.73 848.289 1228.19 816.354 1211.54 800.959 C 1209.26 796.136 1207.53 794.962 1203.54 791.64 L 1202.21 790.547 C 1200.77 785.067 1211.16 757.412 1213.72 749.711 z" fill="rgb(0,255,65)" transform="translate(0,0)"></path>
<path d="M 1282.16 886.674 C 1287.68 895.278 1293.03 907.682 1296.89 917.346 C 1318.1 970.478 1324.17 1031.57 1311.86 1087.53 C 1306.64 1111.69 1298.45 1135.11 1287.45 1157.24 C 1287.17 1151.71 1296.5 1134.08 1298.72 1127.65 C 1323.91 1054.88 1321.45 972.916 1288.61 902.938 C 1286.71 898.892 1281.82 890.485 1282.16 886.674 z" fill="rgb(0,0,0)" transform="translate(0,0)"></path>
<path d="M 1198.16 800.579 L 1199.53 795.918 C 1202.92 795.488 1207.59 800.93 1210.71 803.232 C 1214.76 806.938 1219.28 810.906 1223.14 814.749 C 1216.47 818.043 1209.39 808.181 1202.34 804.671 L 1200.28 801.951 C 1196.49 811.035 1195.49 818.874 1190.97 828.32 C 1190.57 831.085 1189.91 831.403 1191.96 833.666 C 1204.28 847.206 1216.95 858.062 1228.58 872.446 C 1270.16 923.847 1289.29 989.822 1281.66 1055.49 C 1274.14 1119.95 1241.53 1178.86 1190.9 1219.46 C 1190.34 1219.89 1189.77 1220.32 1189.21 1220.74 L 1187.68 1222.79 C 1186.6 1218.19 1184.19 1211.78 1182.26 1207.49 C 1182.43 1204.9 1199.06 1189.64 1202.56 1185.61 C 1222.01 1163.29 1238.14 1138.28 1250.46 1111.36 C 1253.17 1107.85 1257.07 1097.1 1257.85 1092.57 L 1257.1 1091.94 L 1255.47 1094.92 L 1254.08 1095.28 C 1269.73 1053.17 1272.79 1021.83 1259.49 978.348 C 1259.78 971.035 1259.95 968.278 1256.81 961.708 C 1254.31 950.886 1248.42 938.273 1242.84 928.689 C 1224.12 893.042 1212.24 881.828 1187.36 852.019 L 1181.19 846.511 C 1183.86 839.051 1186.58 831.607 1189.35 824.179 C 1191.29 817.658 1195.63 807.246 1198.16 800.579 z" fill="rgb(0,255,65)" transform="translate(0,0)"></path>
<path d="M 1187.36 852.019 C 1192.84 852.451 1203.91 862.876 1206.47 867.4 C 1206.6 870.159 1227.23 895.718 1230.85 901.32 C 1248.73 929.018 1259.63 949.987 1265.34 982.948 C 1266.03 986.912 1268.97 1002.46 1271.15 1005.35 C 1276.01 1012.02 1272.05 1048.37 1270.77 1056.98 C 1267.61 1078.15 1259.73 1108.21 1248.78 1126.65 L 1247.68 1127.11 C 1243.52 1131.04 1240.98 1136.49 1237.95 1141.4 C 1225.86 1160.95 1212.1 1179.55 1195.99 1196 C 1194.5 1197.52 1192.74 1200.61 1191.46 1202.47 C 1188.14 1205.74 1187.03 1206.85 1182.26 1207.49 C 1182.43 1204.9 1199.06 1189.64 1202.56 1185.61 C 1222.01 1163.29 1238.14 1138.28 1250.46 1111.36 C 1253.17 1107.85 1257.07 1097.1 1257.85 1092.57 L 1257.1 1091.94 L 1255.47 1094.92 L 1254.08 1095.28 C 1269.73 1053.17 1272.79 1021.83 1259.49 978.348 C 1259.78 971.035 1259.95 968.278 1256.81 961.708 C 1254.31 950.886 1248.42 938.273 1242.84 928.689 C 1224.12 893.042 1212.24 881.828 1187.36 852.019 z" fill="rgb(0,200,50)" transform="translate(0,0)"></path>
<path d="M 1206.47 867.4 C 1235.2 897.83 1259.55 939.046 1267.03 980.19 C 1268.28 987.042 1271.02 998.78 1271.15 1005.35 C 1268.97 1002.46 1266.03 986.912 1265.34 982.948 C 1259.63 949.987 1248.73 929.018 1230.85 901.32 C 1227.23 895.718 1206.6 870.159 1206.47 867.4 z" fill="rgb(16,66,24)" transform="translate(0,0)"></path>
<path d="M 1191.46 1202.47 C 1192.74 1200.61 1194.5 1197.52 1195.99 1196 C 1212.1 1179.55 1225.86 1160.95 1237.95 1141.4 C 1240.98 1136.49 1243.52 1131.04 1247.68 1127.11 C 1243.31 1138.26 1234.66 1152.46 1227.52 1162.05 L 1225.25 1165.17 C 1212.8 1182.21 1205.81 1188.58 1191.46 1202.47 z" fill="rgb(0,0,0)" transform="translate(0,0)"></path>
<path d="M 1202.34 804.671 C 1209.39 808.181 1216.47 818.043 1223.14 814.749 C 1233.93 824.961 1243.97 835.944 1253.17 847.613 C 1256.73 852.052 1266.34 865.777 1270.52 867.916 C 1273.16 870.551 1280.94 883.197 1282.16 886.674 C 1281.82 890.485 1286.71 898.892 1288.61 902.938 C 1321.45 972.916 1323.91 1054.88 1298.72 1127.65 C 1296.5 1134.08 1287.17 1151.71 1287.45 1157.24 L 1286.36 1159.25 C 1283.79 1160.59 1269.83 1185.04 1265.48 1190.79 C 1259.35 1199.65 1236.35 1227.76 1228.76 1232.93 C 1221.24 1240.08 1215.09 1245.67 1206.22 1251.22 C 1203.37 1253.33 1202.07 1254.45 1198.78 1255.94 C 1194.88 1245.16 1192.08 1234.53 1187.68 1222.79 L 1189.21 1220.74 L 1200.72 1246.97 L 1207.37 1240.67 C 1214.61 1235.4 1223.58 1227.02 1230.33 1220.9 C 1237.85 1211.91 1248.45 1200.98 1256.58 1191.66 C 1263.25 1182.25 1268.53 1174.21 1274.62 1164.4 C 1280.44 1151.69 1287.14 1138.29 1293.37 1125.71 C 1327.27 1040.04 1315.13 953.972 1266.8 877.036 L 1260.51 868.113 C 1250.04 851.619 1235.2 837.255 1221.07 823.86 C 1215.63 818.694 1205.38 811.047 1202.34 804.671 z" fill="rgb(0,200,50)" transform="translate(0,0)"></path>
<path d="M 735.223 557.607 C 744.844 550.462 757.087 543.912 767.711 538.217 C 775.813 561.616 783.1 585.833 790.894 609.43 C 783.549 613.753 765.551 623.881 761.887 631.182 C 763.475 638.214 755.367 642.008 750.185 645.729 C 744.243 649.547 738.883 654.03 733.364 658.439 C 729.994 661.136 725.134 664.778 722.05 667.585 C 708.838 677.627 681.653 701.881 671.185 714.693 C 665.818 719.683 659.471 727.443 655.287 733.459 C 648.801 739.485 636.961 756.08 631.661 763.674 C 596.475 814.092 575.179 863.998 560.276 923.306 L 555.613 945.111 C 552.68 964.666 548.333 994.634 549.113 1014.59 C 549.048 1019.13 548.78 1025.19 549.094 1029.59 C 547.429 1125.67 581.143 1218.4 637.414 1295.54 L 643.033 1303.12 C 648.436 1310.1 653.672 1316.96 659.44 1323.65 C 663.555 1328.24 668.421 1333.95 672.691 1338.23 L 683.747 1349.2 C 683.944 1346.9 684.132 1346.44 683.763 1344.23 C 705.206 1366.44 727.654 1384.29 753.156 1401.4 C 754.739 1402.47 765.027 1408.04 763.321 1409.96 C 758.208 1410.29 746.506 1395.62 737.711 1395.35 C 744.874 1401.29 754.403 1407.85 762.106 1414.02 L 759.934 1422.81 C 770.99 1428.99 778.389 1434.38 790.366 1440.19 C 784.581 1458.81 774.005 1496.68 767.156 1513.38 C 755.472 1507.17 743.908 1500.74 732.472 1494.09 C 738.007 1476.7 745.466 1458.54 751.974 1441.33 C 699.108 1402.74 646.389 1357.25 609.131 1302.87 C 537.593 1198.47 506.049 1066.48 530.28 941.4 C 557.654 800.085 635.028 689.47 753.925 609.632 C 748.601 592.17 740.427 577.224 735.223 557.607 z" fill="rgb(0,255,65)" transform="translate(0,0)"></path>
<path d="M 683.763 1344.23 C 705.206 1366.44 727.654 1384.29 753.156 1401.4 C 754.739 1402.47 765.027 1408.04 763.321 1409.96 C 758.208 1410.29 746.506 1395.62 737.711 1395.35 C 727.879 1390.31 691.617 1358.16 683.747 1349.2 C 683.944 1346.9 684.132 1346.44 683.763 1344.23 z" fill="rgb(16,66,24)" transform="translate(0,0)"></path>
<path d="M 1281.75 538.776 C 1292.99 544.963 1302.75 550.404 1313.57 557.288 C 1308 574.84 1300.65 593.113 1295.58 610.057 C 1330.18 634.423 1363.09 660.479 1392.24 691.346 C 1455.4 758.239 1502.31 850.925 1517.97 941.56 C 1540.84 1069.44 1511.12 1201.14 1435.57 1306.82 C 1399.28 1358.17 1349.01 1405.08 1296.47 1439.45 C 1302.53 1455.73 1310.14 1478.53 1316.96 1493.87 C 1305.88 1500.33 1293.25 1508.11 1281.81 1513.42 C 1274.51 1488.88 1266.97 1464.42 1259.19 1440.03 C 1268.78 1434.46 1281.24 1426.74 1290.86 1421.82 C 1288.36 1418.95 1287.71 1418.08 1284.72 1415.82 C 1287.74 1411.82 1292.54 1408.84 1296.54 1405.8 C 1316.24 1390.82 1336.63 1376.36 1354.4 1359.05 C 1388.28 1329.47 1433.37 1271.12 1451.8 1230.18 C 1459.3 1217.86 1467.92 1194.43 1473.29 1180.61 L 1474.78 1175.17 C 1485.79 1148.22 1496.54 1096.69 1498.36 1067.83 C 1502.76 1048.86 1498.37 970.012 1493.16 949.359 C 1490.58 919.059 1471.56 864.165 1458.48 836.285 C 1455.46 825.951 1430.57 782.764 1423.6 773.931 C 1419.8 766.764 1412.36 756.784 1407.49 750.308 C 1381.91 711.921 1330.53 667.814 1292.45 642.167 C 1289.15 640.169 1285.7 637.994 1282.35 636.127 L 1287.79 628.112 C 1277.82 622.626 1267.92 617.015 1258.09 611.281 L 1281.75 538.776 z" fill="rgb(0,255,65)" transform="translate(0,0)"></path>
<path d="M 1007.67 937.604 C 1057.68 928.793 1105.35 962.205 1114.14 1012.22 C 1122.92 1062.23 1089.48 1109.88 1039.46 1118.63 C 989.489 1127.38 941.882 1093.97 933.107 1044 C 924.332 994.035 957.71 946.408 1007.67 937.604 z" fill="rgb(0,255,65)" transform="translate(0,0)"></path>
<path d="M 766.639 635.378 C 775.706 629.63 784.13 624.161 793.635 619.126 C 800.496 639.414 807.507 659.651 814.667 679.835 C 807.264 684.247 796.419 690.039 790.989 696.281 C 790.497 703.67 786.04 705.396 780.416 709.415 C 755.237 723.035 708.69 774.491 691.219 798.177 C 681.329 811.587 665.957 837.843 658.422 852.98 C 650.757 868.227 645.106 882.573 638.973 898.494 L 634.342 912.869 C 628.617 932.001 621.604 962.003 619.934 981.95 C 618.922 991.429 618.14 1000.15 617.863 1009.7 C 617.47 1022.48 617.566 1035.28 618.149 1048.06 C 618.233 1055.53 618.857 1068.13 620.304 1075.32 C 623.233 1129.07 657.148 1208.92 689.476 1251.51 C 704.365 1272.48 757.603 1331.54 778.943 1341.68 C 781.473 1343.87 786.052 1346.8 788.944 1348.8 L 786.662 1354.49 C 787.789 1358.04 808.384 1368.96 812.908 1371.58 L 792.797 1431.68 C 784.43 1426.67 773.014 1421.1 764.14 1416.5 C 771.773 1400.42 777.198 1386 782.95 1369.18 C 547.225 1206.65 533.366 889.192 752.325 704.984 C 762.184 696.69 774.153 687.297 785.165 680.746 C 780.309 666.303 773.567 648.752 766.639 635.378 z" fill="rgb(0,255,65)" transform="translate(0,0)"></path>
<path d="M 1255.74 618.529 C 1263.85 623.714 1273.74 629.678 1281.46 635.196 C 1275.84 650.008 1270.22 665.886 1264.15 680.398 C 1356.85 743.26 1421.41 839.768 1444.13 949.442 C 1464.43 1055.17 1441.95 1164.63 1381.61 1253.79 C 1354.93 1293.58 1305.62 1345.31 1264.7 1370.19 C 1269.7 1383.87 1274.4 1396.57 1280.4 1409.89 L 1283.64 1416.17 C 1274.73 1421.63 1266.55 1426.71 1257.25 1431.55 C 1250.4 1411.91 1243.71 1392.22 1237.17 1372.48 C 1242.2 1369.05 1256.04 1359.65 1258.81 1355.34 C 1257.15 1349.52 1258.45 1349.99 1262.8 1346.67 C 1263.12 1346.48 1263.45 1346.3 1263.77 1346.11 C 1334.31 1296.02 1389.37 1224.2 1414.35 1140.99 C 1418.21 1128.12 1421.31 1116.03 1423.44 1103.68 C 1427.52 1095.25 1430.93 1057.77 1431.65 1046.8 C 1431.91 1041.48 1431.78 1035.76 1431.77 1030.41 C 1432.03 1026.18 1431.8 1019.99 1431.77 1015.61 C 1432.01 983.703 1423.5 937.166 1412.61 907.017 C 1408.95 889.443 1390.7 854.681 1382.03 838.223 C 1378.92 832.785 1375.79 827.75 1372.47 822.448 C 1370.8 819.138 1367.65 814.489 1365.58 811.226 L 1361.55 805.231 C 1349.84 786.962 1333.03 768.145 1318.03 752.505 C 1315.07 749.422 1312.67 747.305 1309.44 744.48 C 1302.8 735.161 1269.7 709.724 1259.32 703.306 C 1255.57 700.028 1255.98 700.121 1257.91 694.975 C 1255.48 690.273 1241.44 683.626 1236.06 680.167 C 1242.68 659.962 1249.92 638.898 1255.74 618.529 z" fill="rgb(0,255,65)" transform="translate(0,0)"></path>
<path d="M 795.375 701.46 C 801.101 696.923 809.209 691.605 815.336 687.336 C 822.216 706.441 828.954 725.598 835.55 744.803 L 834.821 745.186 C 824.954 750.239 821.785 755.005 812.964 761.771 L 815.159 762.944 C 817.398 761.966 819.62 760.952 821.827 759.904 L 822.523 760.309 C 816.535 766.102 809.823 770.021 803.43 775.319 C 793.253 783.874 783.551 792.977 774.365 802.588 C 716.809 861.08 683.914 939.441 682.474 1021.49 C 681.099 1105.35 713.148 1184.88 770.659 1246.56 C 786.312 1263.35 804.825 1276.88 821.735 1291.68 L 821.173 1293.09 C 818.236 1291.97 810.612 1285.78 807.711 1283.5 C 777.928 1260.12 752.007 1232.19 730.898 1200.76 C 725.241 1192.25 711.088 1162.5 706.255 1159.38 C 727.975 1209.23 765.66 1255.05 808.761 1287.78 C 810.47 1289.08 817.27 1294.15 818.344 1295.4 C 817.571 1297.72 817.668 1296.55 818.005 1298.9 C 823.098 1301.88 828.226 1304.79 833.39 1307.63 L 814.848 1364.61 L 792.838 1351.35 C 798.262 1338.35 802.741 1325.1 808.421 1311.77 C 781.473 1295.08 750.781 1263.32 731.496 1238.28 C 675.574 1165.66 650.98 1073.72 663.182 982.883 C 676.769 879.006 729.338 800.726 810.981 738.119 C 806.983 727.081 800.175 712.503 795.375 701.46 z" fill="rgb(0,255,65)" transform="translate(0,0)"></path>
<path d="M 812.964 761.771 L 815.159 762.944 C 817.398 761.966 819.62 760.952 821.827 759.904 L 822.523 760.309 C 816.535 766.102 809.823 770.021 803.43 775.319 C 793.253 783.874 783.551 792.977 774.365 802.588 C 716.809 861.08 683.914 939.441 682.474 1021.49 C 681.099 1105.35 713.148 1184.88 770.659 1246.56 C 786.312 1263.35 804.825 1276.88 821.735 1291.68 L 821.173 1293.09 C 818.236 1291.97 810.612 1285.78 807.711 1283.5 C 777.928 1260.12 752.007 1232.19 730.898 1200.76 C 725.241 1192.25 711.088 1162.5 706.255 1159.38 C 702.511 1154.15 696.549 1136.47 694.448 1129.94 C 678.144 1079.46 674.143 1025.82 682.78 973.48 C 696.957 890.622 744.14 810.647 812.964 761.771 z" fill="rgb(15,81,29)" transform="translate(0,0)"></path>
<path d="M 1234.03 687.563 C 1241.66 691.737 1247.31 694.789 1253.86 700.677 L 1238.32 740.033 C 1246.2 743.581 1258.15 753.563 1265.13 759.47 C 1310.08 797.445 1344.91 849.89 1365.69 904.782 C 1398.64 989.721 1396.02 1084.34 1358.43 1167.33 C 1334.56 1220.14 1288.52 1281.16 1238.5 1311.88 C 1243.38 1323.98 1250.13 1339.48 1254.21 1351.58 C 1248.2 1356.28 1241.34 1361.92 1235.05 1366.01 C 1229.37 1348.35 1222.4 1325.62 1215.41 1308.67 C 1219.46 1306.02 1227.43 1301.24 1230.34 1297.87 C 1230.04 1295.96 1230.02 1295.54 1230.28 1293.54 L 1231.42 1292.16 L 1229.6 1290.07 C 1229.57 1289.56 1229.55 1289.05 1229.53 1288.55 C 1229.85 1288.22 1230.58 1287.74 1231 1287.5 C 1245.66 1279.34 1257.81 1267.85 1269.49 1255.95 C 1280.19 1245.15 1290.24 1233.64 1299.64 1221.68 C 1302.68 1217.81 1305.46 1213.63 1308.27 1209.59 C 1308.81 1208.73 1309.34 1207.86 1309.87 1206.99 C 1310.92 1205.66 1311.78 1203.85 1313.15 1202.84 C 1318.46 1193.38 1323.92 1184.12 1329.05 1174.65 C 1384.78 1071.87 1376.37 942.758 1310.15 846.811 C 1300.79 833.237 1292.51 820.623 1281.02 808.405 C 1272.23 799.006 1262.8 790.227 1252.8 782.132 C 1245.19 775.953 1230.72 765.446 1224.96 758.335 L 1224.87 757.1 C 1234.27 763.058 1249.25 775.277 1257.35 783.003 C 1320.43 836.605 1357.32 912.683 1366.25 994.432 C 1367.36 993.305 1367.9 988.44 1368.27 986.442 C 1357.16 904.634 1319.86 836.371 1259.2 780.754 C 1247.86 770.611 1227.26 750.747 1214.95 744.084 C 1220.69 725.676 1227.16 705.632 1234.03 687.563 z" fill="rgb(0,255,65)" transform="translate(0,0)"></path>
<path d="M 1224.87 757.1 C 1234.27 763.058 1249.25 775.277 1257.35 783.003 C 1320.43 836.605 1357.32 912.683 1366.25 994.432 C 1367.36 993.305 1367.9 988.44 1368.27 986.442 C 1370.31 998.531 1370.5 1014.61 1370.41 1026.99 C 1370.47 1093.85 1349.81 1159.1 1311.27 1213.73 C 1297.61 1232.91 1251.63 1286.45 1231.42 1292.16 L 1229.6 1290.07 C 1229.57 1289.56 1229.55 1289.05 1229.53 1288.55 C 1229.85 1288.22 1230.58 1287.74 1231 1287.5 C 1245.66 1279.34 1257.81 1267.85 1269.49 1255.95 C 1280.19 1245.15 1290.24 1233.64 1299.64 1221.68 C 1302.68 1217.81 1305.46 1213.63 1308.27 1209.59 C 1308.81 1208.73 1309.34 1207.86 1309.87 1206.99 C 1310.92 1205.66 1311.78 1203.85 1313.15 1202.84 C 1318.46 1193.38 1323.92 1184.12 1329.05 1174.65 C 1384.78 1071.87 1376.37 942.758 1310.15 846.811 C 1300.79 833.237 1292.51 820.623 1281.02 808.405 C 1272.23 799.006 1262.8 790.227 1252.8 782.132 C 1245.19 775.953 1230.72 765.446 1224.96 758.335 L 1224.87 757.1 z" fill="rgb(18,107,33)" transform="translate(0,0)"></path>
<path d="M 1229.6 1290.07 C 1229.57 1289.56 1229.55 1289.05 1229.53 1288.55 C 1229.85 1288.22 1230.58 1287.74 1231 1287.5 C 1245.66 1279.34 1257.81 1267.85 1269.49 1255.95 C 1280.19 1245.15 1290.24 1233.64 1299.64 1221.68 C 1302.68 1217.81 1305.46 1213.63 1308.27 1209.59 C 1308.81 1208.73 1309.34 1207.86 1309.87 1206.99 C 1310.92 1205.66 1311.78 1203.85 1313.15 1202.84 C 1315.5 1204.8 1313.29 1206.03 1311.56 1208.57 C 1294.34 1233.96 1272.26 1257.61 1248.96 1277.44 C 1244.41 1281.33 1234.59 1288.77 1229.6 1290.07 z" fill="rgb(15,81,29)" transform="translate(0,0)"></path>
<path d="M 824.997 758.718 C 828.806 756.233 832.69 754.106 836.644 751.867 C 838.979 762.585 845.736 779.101 849.366 790.93 C 845.452 793.06 842.495 793.753 838.436 796.062 L 838.582 799.454 C 837.626 801.899 815.948 821.306 811.547 826.077 C 800.433 838.124 780.754 859.64 774.19 873.856 C 776.799 872.016 779.189 868.414 781.199 865.753 C 788.743 855.042 794.966 846.91 803.896 837.344 C 807.509 831.798 833.859 806.461 839.333 803.79 C 844.973 802.983 842.354 802.213 847.771 799.389 L 849.439 800.762 L 849.389 802.721 C 845.96 803.938 844.038 804.861 843.449 809.026 C 830.31 820.476 817.703 832.523 805.667 845.129 C 797.225 855.643 790.932 864.115 783.058 875.071 C 782.026 876.811 777.826 884.192 776.791 885.224 C 764.929 906.929 757.405 921.714 748.501 944.724 C 731.276 1001.11 730.547 1051.02 747.647 1107.83 C 751.807 1121.65 756.371 1130.79 761.533 1143.72 L 768.553 1157.64 L 773.217 1166.45 C 786.038 1188.41 802.219 1208.23 821.171 1225.18 C 827.573 1230.91 846.323 1242.82 845.431 1251.25 C 840.441 1253.22 832.34 1245.23 828.635 1241.95 L 820.397 1234.36 C 821.439 1238.37 824.249 1238.9 826.325 1243.24 L 827.033 1243.99 C 829.936 1247.05 834.543 1251.6 837.057 1254.76 C 837.559 1255.45 837.753 1255.95 838.132 1256.73 C 836.133 1259.22 834.807 1261.6 833.05 1264.29 L 831.877 1263.76 C 739.283 1196.38 700.715 1086.32 719.341 974.642 C 731.164 903.75 776.208 828.698 835.769 787.705 C 832.446 778.029 829.243 767.998 824.997 758.718 z" fill="rgb(0,255,65)" transform="translate(0,0)"></path>
<path d="M 839.333 803.79 C 844.973 802.983 842.354 802.213 847.771 799.389 L 849.439 800.762 L 849.389 802.721 C 845.96 803.938 844.038 804.861 843.449 809.026 C 830.31 820.476 817.703 832.523 805.667 845.129 C 797.225 855.643 790.932 864.115 783.058 875.071 C 782.026 876.811 777.826 884.192 776.791 885.224 C 764.929 906.929 757.405 921.714 748.501 944.724 C 731.276 1001.11 730.547 1051.02 747.647 1107.83 C 751.807 1121.65 756.371 1130.79 761.533 1143.72 L 768.553 1157.64 L 773.217 1166.45 C 786.038 1188.41 802.219 1208.23 821.171 1225.18 C 827.573 1230.91 846.323 1242.82 845.431 1251.25 C 840.441 1253.22 832.34 1245.23 828.635 1241.95 L 820.397 1234.36 C 818.19 1231.39 810.353 1223.98 807.247 1220.86 C 790.091 1203.61 778.715 1186.54 765.53 1166.47 L 764.494 1167.28 C 757.417 1158.74 751.685 1140.11 747.663 1129.53 C 719.567 1055.59 725.065 967.953 760.521 896.718 C 761.462 893.05 770.713 876.707 774.19 873.856 C 776.799 872.016 779.189 868.414 781.199 865.753 C 788.743 855.042 794.966 846.91 803.896 837.344 C 807.509 831.798 833.859 806.461 839.333 803.79 z" fill="rgb(0,200,50)" transform="translate(0,0)"></path>
<path d="M 764.494 1167.28 L 765.53 1166.47 C 778.715 1186.54 790.091 1203.61 807.247 1220.86 C 810.353 1223.98 818.19 1231.39 820.397 1234.36 C 821.439 1238.37 824.249 1238.9 826.325 1243.24 C 807.213 1228.48 775.586 1188.55 764.494 1167.28 z" fill="rgb(16,66,24)" transform="translate(0,0)"></path>
<path d="M 837.057 1254.76 C 837.559 1255.45 837.753 1255.95 838.132 1256.73 C 836.133 1259.22 834.807 1261.6 833.05 1264.29 L 831.877 1263.76 C 833.56 1260.18 834.791 1258.06 837.057 1254.76 z" fill="rgb(0,200,50)" transform="translate(0,0)"></path>
<path d="M 1165.31 840.088 L 1177.84 849.075 C 1174.7 859.103 1171.45 869.095 1168.09 879.051 C 1176.67 883.964 1180.55 888.606 1185.71 896.896 C 1188.27 901.571 1196.38 915.744 1197.87 920.124 L 1200.5 921.554 C 1208.32 930.237 1217.58 946.171 1222.93 956.605 C 1251.24 1011.74 1243.46 1077.42 1206.29 1126.42 C 1205.79 1127.08 1204.78 1127.39 1204.03 1127.68 C 1199.82 1141.23 1181.16 1166.63 1168.45 1175.91 C 1171.51 1186.35 1173.96 1194.37 1177.87 1204.59 L 1165.54 1212.32 C 1163.5 1200.41 1157.78 1181.81 1153.75 1170.45 C 1157.31 1169.08 1158.99 1168.76 1161.71 1166.03 L 1161.22 1165.08 C 1156.49 1164.84 1153.63 1166.45 1149.18 1168.2 C 1221.64 1094.47 1237.85 989.58 1165.63 906.722 C 1161.99 902.545 1151.82 894.403 1151.09 889.689 L 1153.52 886.973 C 1159.87 889.836 1163.5 891.173 1170.16 893.287 C 1163.81 888.356 1161.98 887.227 1154.92 883.992 C 1152.8 879.239 1163.15 847.816 1165.31 840.088 z" fill="rgb(0,255,65)" transform="translate(0,0)"></path>
<path d="M 1197.87 920.124 L 1200.5 921.554 C 1208.32 930.237 1217.58 946.171 1222.93 956.605 C 1251.24 1011.74 1243.46 1077.42 1206.29 1126.42 C 1205.79 1127.08 1204.78 1127.39 1204.03 1127.68 C 1204.3 1126.42 1205.17 1124.72 1205.72 1123.47 C 1221.3 1079.78 1230.95 1047.59 1223.89 999.736 C 1221.61 984.331 1219.14 971.219 1213.49 956.459 L 1215.49 954.151 C 1214.92 951.779 1207.35 935.546 1205.23 934.745 L 1204.27 934.341 C 1201.74 931.517 1199.2 923.913 1197.87 920.124 z" fill="rgb(0,200,50)" transform="translate(0,0)"></path>
<path d="M 1213.49 956.459 L 1215.49 954.151 L 1217.31 957.75 C 1229.17 995.015 1234.66 1026.98 1226.2 1066.54 C 1223.76 1077.95 1217.65 1091.28 1215.81 1102.28 C 1213.92 1107.12 1209.13 1121.07 1205.72 1123.47 C 1221.3 1079.78 1230.95 1047.59 1223.89 999.736 C 1221.61 984.331 1219.14 971.219 1213.49 956.459 z" fill="rgb(0,0,0)" transform="translate(0,0)"></path>
<path d="M 1222.65 965.804 C 1236.78 988.769 1240.79 1035.67 1233.02 1061.33 C 1230.42 1069.9 1224.4 1093.16 1218.24 1099.68 C 1220.24 1089.83 1226.03 1078.2 1228.57 1067.8 C 1237.27 1032.15 1232.5 1000.5 1222.65 965.804 z" fill="rgb(0,0,0)" transform="translate(0,0)"></path>
<path d="M 1204.27 934.341 L 1205.23 934.745 C 1207.35 935.546 1214.92 951.779 1215.49 954.151 L 1213.49 956.459 C 1210.34 948.869 1207.74 941.969 1204.27 934.341 z" fill="rgb(16,66,24)" transform="translate(0,0)"></path>
<path d="M 840.815 800.865 L 850.075 795.521 C 853.861 807.82 857.947 820.025 862.331 832.124 C 863.632 836.127 867.282 845.257 866.476 848.523 L 865.057 849.361 C 831.935 871.375 808.011 909.746 792.598 945.833 C 779.318 969.485 773.091 1027.58 778.291 1057.26 C 778.457 1057.59 778.624 1057.93 778.79 1058.26 C 780.512 1059.71 780.546 1060.49 781.42 1062.55 C 782.731 1062.89 783.259 1063.08 784.508 1063.21 C 785.269 1066.41 786.08 1069.59 786.935 1072.77 C 796.777 1103.99 804.85 1119.79 825.272 1146.39 L 822.969 1146.92 C 815.92 1137.55 808.774 1128.31 802.308 1118.52 L 800.899 1119.99 C 812.572 1140.3 823.747 1160.05 838.896 1178.11 C 845.357 1185.81 856.815 1194.36 862.148 1201.94 C 870.345 1207.88 863.678 1211.82 861.523 1220.8 C 859.634 1228.94 853.68 1248.66 849.536 1255.15 L 847.948 1255.49 C 845.237 1253.18 845.85 1254.56 845.542 1251.46 C 846.314 1250.46 847.044 1249.43 847.731 1248.36 C 850.793 1243.66 859.261 1226.31 858.163 1221.03 C 855.151 1218.93 834.415 1200 831.519 1197.05 C 788.178 1152.92 765.717 1091.96 765.631 1030.5 C 765.545 969.189 784.301 917.958 822.465 870.138 C 833.331 856.521 846.677 843.78 858.999 831.459 C 856.163 825.073 852.33 807.478 847.703 806.033 L 843.449 809.026 C 844.038 804.861 845.96 803.938 849.389 802.721 L 849.439 800.762 L 847.771 799.389 C 842.354 802.213 844.973 802.983 839.333 803.79 L 840.815 800.865 z" fill="rgb(0,255,65)" transform="translate(0,0)"></path>
<path d="M 781.42 1062.55 C 782.731 1062.89 783.259 1063.08 784.508 1063.21 C 785.269 1066.41 786.08 1069.59 786.935 1072.77 C 796.777 1103.99 804.85 1119.79 825.272 1146.39 L 822.969 1146.92 C 815.92 1137.55 808.774 1128.31 802.308 1118.52 L 800.899 1119.99 C 812.572 1140.3 823.747 1160.05 838.896 1178.11 C 845.357 1185.81 856.815 1194.36 862.148 1201.94 C 856.904 1201.66 852.161 1197.46 848.639 1193.82 C 848.212 1190.57 830.156 1172.95 826.016 1167.04 C 809.944 1144.09 800.064 1127.61 790.402 1101.21 C 788.774 1095.27 785.082 1081.43 781.897 1076.9 C 781.482 1076 781.235 1075.52 781.078 1074.51 C 780.541 1070.95 779.903 1067.41 779.164 1063.89 L 781.42 1062.55 z" fill="rgb(0,200,50)" transform="translate(0,0)"></path>
<path d="M 781.42 1062.55 C 782.731 1062.89 783.259 1063.08 784.508 1063.21 C 785.269 1066.41 786.08 1069.59 786.935 1072.77 C 787.955 1081.53 789.806 1088.48 793.179 1096.71 C 794.176 1099.14 794.654 1099.24 792.343 1100.22 L 790.402 1101.21 C 788.774 1095.27 785.082 1081.43 781.897 1076.9 C 781.482 1076 781.235 1075.52 781.078 1074.51 C 780.541 1070.95 779.903 1067.41 779.164 1063.89 L 781.42 1062.55 z" fill="url(#Gradient2)" transform="translate(0,0)"></path>
<path d="M 794.566 1106.13 C 797.123 1109.41 800.255 1114.79 802.308 1118.52 L 800.899 1119.99 C 798.206 1116.06 795.83 1110.74 794.566 1106.13 z" fill="rgb(16,66,24)" transform="translate(0,0)"></path>
<path d="M 781.897 1076.9 C 785.082 1081.43 788.774 1095.27 790.402 1101.21 C 800.064 1127.61 809.944 1144.09 826.016 1167.04 C 830.156 1172.95 848.212 1190.57 848.639 1193.82 C 816.007 1164.2 789.675 1120.4 781.897 1076.9 z" fill="rgb(0,0,0)" transform="translate(0,0)"></path>
<path d="M 778.79 1058.26 C 780.512 1059.71 780.546 1060.49 781.42 1062.55 L 779.164 1063.89 C 779.007 1062.02 778.883 1060.14 778.79 1058.26 z" fill="rgb(15,81,29)" transform="translate(0,0)"></path>
<path d="M 870.3 847.735 C 874.922 845.924 879.671 844.148 884.187 842.109 C 887.703 855.708 891.548 869.219 895.72 882.631 C 890.555 885.275 886.497 887.242 881.684 890.577 C 887.811 889.393 894.735 887.901 900.854 887.114 C 896.219 892.449 891.232 897.387 886.256 902.398 C 849.533 939.375 833.751 990.673 837.187 1042.19 C 840.092 1081.42 855.39 1118.72 880.871 1148.7 C 883.886 1152.22 896.598 1164.48 897.109 1166.32 C 893.185 1165.42 890.475 1164.56 886.637 1163.3 L 886.106 1164.09 C 889.139 1168.03 889.824 1168.62 893.802 1171.63 C 891.546 1186.02 886.954 1198 883.963 1211.57 C 879.392 1208.5 876.417 1206.82 871.631 1204.24 C 871.087 1201.55 871.476 1200.96 871.89 1198.16 C 872.393 1197.52 872.89 1196.89 873.38 1196.25 C 874.911 1189.84 878.117 1183.89 881.117 1178.06 C 872.478 1170.68 868.825 1165.22 862.249 1155.97 C 859.077 1161.33 866.208 1164.93 865.625 1167.36 C 864.565 1171.78 860.786 1162.47 860.458 1161.33 C 858.027 1152.89 851.662 1146.09 848.559 1137.85 C 850.104 1138.72 851.641 1139.6 853.172 1140.5 C 851.577 1135.73 845.393 1123.2 842.846 1119.01 C 842.262 1117.82 841.753 1116.87 841.105 1115.7 C 817.722 1054.65 815.652 1011.86 837.799 950.738 C 840.762 942.003 843.986 933.358 847.466 924.815 C 858.092 903.999 862.881 893.199 880.345 877.414 C 877.058 868.109 872.862 857.116 870.3 847.735 z" fill="rgb(0,255,65)" transform="translate(0,0)"></path>
<path d="M 848.559 1137.85 C 850.104 1138.72 851.641 1139.6 853.172 1140.5 C 854.81 1143.26 861.435 1153.96 862.249 1155.97 C 859.077 1161.33 866.208 1164.93 865.625 1167.36 C 864.565 1171.78 860.786 1162.47 860.458 1161.33 C 858.027 1152.89 851.662 1146.09 848.559 1137.85 z" fill="rgb(16,66,24)" transform="translate(0,0)"></path>
<path d="M 803.432 626.531 C 809.478 622.899 830.294 612.557 836.739 610.636 C 837.785 618.727 840.373 629.408 842.241 637.484 L 843.308 641.988 C 846.342 654.65 849.632 667.25 853.176 679.779 C 843.649 684.44 834.182 689.616 824.71 694.439 C 820.808 679.224 815.389 663.815 810.707 648.802 C 808.512 641.765 804.887 633.614 803.432 626.531 z" fill="rgb(0,255,65)" transform="translate(0,0)"></path>
<path d="M 1224.14 1356.86 C 1226.78 1357.98 1244.33 1416.49 1247.03 1424.08 C 1237.16 1428.42 1228.49 1432.51 1218.23 1436.3 C 1213.36 1438.27 1213.6 1435.87 1212.31 1430.99 L 1211.25 1426.98 C 1210.79 1425.16 1210.34 1423.34 1209.85 1421.52 C 1205.39 1404.74 1200.84 1387.98 1196.21 1371.24 C 1205.71 1366.82 1215.03 1362.02 1224.14 1356.86 z" fill="rgb(0,255,65)" transform="translate(0,0)"></path>
<path d="M 1214.78 612.216 C 1225.47 616.681 1236.33 620.452 1247.01 624.902 C 1239.95 643.515 1231.66 672.002 1226.12 691.753 C 1225.93 692.33 1225.67 693.578 1225.03 693.924 C 1222.87 695.079 1203.04 683.416 1199.54 681.916 C 1198.77 681.585 1197.98 681.294 1197.2 680.977 C 1197.73 678.651 1198.1 676.302 1198.68 673.987 L 1200.76 665.474 C 1202.03 660.3 1203.33 655.137 1204.69 649.985 C 1207.79 637.872 1212.19 624.139 1214.78 612.216 z" fill="rgb(0,255,65)" transform="translate(0,0)"></path>
<path d="M 823.812 1356.42 C 832.916 1362.66 843.08 1366.67 852.695 1372.02 C 850.22 1382.27 838.185 1431.49 833.7 1436.88 C 822.774 1432.87 813.476 1429.46 802.811 1424.75 C 809.635 1402.75 818.415 1378.65 823.812 1356.42 z" fill="rgb(0,255,65)" transform="translate(0,0)"></path>
<path d="M 844.832 1288.2 C 851.627 1292.22 862.912 1297.33 870.18 1300.84 C 868.519 1306.88 866.905 1312.94 865.339 1319.01 C 861.978 1332.35 858.687 1345.71 855.154 1359.01 C 854.682 1360.78 854.832 1364.82 852.488 1364.33 C 843.922 1360.25 834.109 1355.54 825.261 1352.14 C 831.708 1330.81 838.555 1309.6 844.832 1288.2 z" fill="rgb(0,255,65)" transform="translate(0,0)"></path>
<path d="M 1202.7 1290.23 C 1204.73 1292.48 1221.5 1344.41 1223.87 1350.91 C 1214.89 1354.95 1206.34 1359.56 1197.28 1363.41 C 1193.59 1364.3 1193.46 1357.22 1192.39 1353.86 C 1186.85 1336.43 1183.85 1317.41 1178.16 1300.11 C 1186.5 1297.23 1194.69 1293.93 1202.7 1290.23 z" fill="rgb(0,255,65)" transform="translate(0,0)"></path>
<path d="M 852.531 686.944 C 854.592 688.774 854.903 691.25 855.66 694.007 L 856.182 695.979 C 861.251 714.498 867.267 733.41 871.661 752.043 C 864.239 754.497 855.505 758.085 848.267 761.175 L 846.436 761.948 C 844.974 760.262 844.906 759.303 844.257 756.992 L 843.723 755.023 C 838.384 736.678 833.011 717.854 826.47 699.888 C 834.772 695.68 844.149 690.868 852.531 686.944 z" fill="rgb(0,255,65)" transform="translate(0,0)"></path>
<path d="M 1196.48 686.791 C 1205.09 691.164 1214.58 696.378 1223.48 699.975 C 1217.54 715.15 1207.61 745.419 1204.23 761.137 C 1202.16 762.491 1200.99 761.44 1198.77 760.388 C 1192.94 757.699 1187.05 755.123 1181.11 752.661 C 1180.5 752.421 1179.89 752.18 1179.27 751.939 C 1180.08 748.769 1181.02 745.669 1181.79 742.481 L 1183.66 734.988 C 1187.45 719.61 1191.57 703.755 1196 688.551 L 1196.48 686.791 z" fill="rgb(0,255,65)" transform="translate(0,0)"></path>
<path d="M 1177.82 757.612 L 1202.69 769.229 C 1197.84 783.568 1193.15 797.958 1188.62 812.398 C 1184.37 811.511 1178.17 807.865 1174.57 805.488 L 1172.44 805.662 C 1169.61 811.552 1167.47 822.001 1165.25 828.559 C 1160.87 841.475 1156.87 853.905 1153.49 867.129 C 1151.75 873.876 1150.26 883.1 1145.28 887.75 L 1143.75 887.254 C 1141.27 879.964 1144.97 870.675 1147.68 863.837 C 1149.9 853.94 1155.01 838.166 1157.93 827.991 L 1177.82 757.612 z" fill="rgb(0,255,65)" transform="translate(0,0)"></path>
<path d="M 847.289 769.07 C 856.636 765.015 863.936 761.794 872.975 756.934 C 875.372 767.474 878.12 777.924 881.086 788.318 C 888.947 815.87 894.39 843.856 903.027 871.194 L 907.08 884.063 C 904.553 885.79 904.497 886.058 901.603 886.831 C 893.214 865.601 884.492 826.034 877.312 802.639 C 871.049 805.887 866.429 808.911 860.499 812.77 C 855.897 798.166 851.33 783.839 847.289 769.07 z" fill="rgb(0,255,65)" transform="translate(0,0)"></path>
<path d="M 843.588 927.197 C 843.374 930.806 839.258 941.502 836.61 943.703 C 836.878 946.6 836.955 947.399 836.742 950.28 L 834.963 953.435 C 833.613 955.878 831.429 961.465 830.311 964.291 C 815.92 1003.02 814.076 1044.5 827.347 1083.84 C 829.511 1089.98 832.881 1098.75 834.369 1104.83 C 834.2 1108.39 838.384 1114.46 840.455 1117.55 L 841.105 1115.7 C 841.753 1116.87 842.262 1117.82 842.846 1119.01 C 845.393 1123.2 851.577 1135.73 853.172 1140.5 C 851.641 1139.6 850.104 1138.72 848.559 1137.85 C 845.274 1133.98 841.529 1127.45 838.621 1123.05 C 794.848 1056.89 799.429 991.364 843.588 927.197 z" fill="rgb(0,200,50)" transform="translate(0,0)"></path>
<path d="M 836.61 943.703 C 836.878 946.6 836.955 947.399 836.742 950.28 L 834.963 953.435 C 833.613 955.878 831.429 961.465 830.311 964.291 L 828.795 962.604 C 813.002 1002.82 810.4 1045.03 825.308 1085.85 C 827.645 1091.81 830.193 1098.04 832.352 1104.03 C 827.581 1099.72 821.444 1082.82 819.487 1076.44 C 805.172 1029.74 811.643 990.212 833.781 947.826 C 834.137 946.607 834.69 945.817 835.555 944.9 L 836.61 943.703 z" fill="rgb(0,0,0)" transform="translate(0,0)"></path>
<path d="M 836.61 943.703 C 836.878 946.6 836.955 947.399 836.742 950.28 L 834.963 953.435 C 833.613 955.878 831.429 961.465 830.311 964.291 L 828.795 962.604 C 830.019 959.074 833.551 952.51 833.669 949.397 L 833.781 947.826 C 834.137 946.607 834.69 945.817 835.555 944.9 L 836.61 943.703 z" fill="rgb(17,132,40)" transform="translate(0,0)"></path>
<path d="M 841.105 1115.7 C 841.753 1116.87 842.262 1117.82 842.846 1119.01 C 841.983 1119.89 842.142 1120.09 841.4 1120.07 C 840.894 1119.43 840.684 1118.29 840.455 1117.55 L 841.105 1115.7 z" fill="rgb(15,81,29)" transform="translate(0,0)"></path>
<path d="M 900.174 1169.29 C 900.978 1169.71 902.673 1170.94 903.487 1171.5 C 905.733 1177.53 875.453 1280.46 871.331 1294.99 C 864.287 1291.64 856.718 1287.54 849.729 1283.94 L 847.783 1282.72 C 846.211 1278.72 857.972 1246.18 860.136 1239.53 C 867.255 1244.17 870.34 1245.87 876.504 1251.7 C 883.519 1224.29 892.815 1196.88 900.174 1169.29 z" fill="rgb(0,255,65)" transform="translate(0,0)"></path>
<path d="M 1148.08 1167.51 C 1154.31 1180.01 1162.05 1220.09 1167.94 1234.96 C 1169.75 1239.53 1169.63 1244.05 1169.73 1248.95 L 1170.38 1249.5 C 1176 1247.94 1183.57 1243.75 1188.99 1241.01 C 1191.29 1248.01 1200.83 1276.6 1200.86 1282 L 1199.61 1283.26 C 1192.04 1286.89 1184.39 1290.33 1176.66 1293.6 C 1167.41 1253.97 1153.21 1214.47 1145.29 1174.39 C 1144.61 1170.94 1146.06 1169.96 1148.08 1167.51 z" fill="rgb(0,255,65)" transform="translate(0,0)"></path>
<path d="M 801.758 941 C 816.169 915.15 845.236 873.748 869.51 858.075 C 868.491 859.994 845.134 883.058 840.147 889.097 C 807.309 928.864 782.298 975.029 780.102 1027.64 C 779.678 1037.81 782.582 1053.23 784.508 1063.21 C 783.259 1063.08 782.731 1062.89 781.42 1062.55 C 780.546 1060.49 780.512 1059.71 778.79 1058.26 C 778.624 1057.93 778.457 1057.59 778.291 1057.26 C 773.091 1027.58 779.318 969.485 792.598 945.833 C 796.026 945.106 829.802 871.273 846.94 868.412 C 832.018 883.878 822.841 897.811 812.598 916.781 C 810.389 920.871 802.83 935.583 800.539 938.665 L 801.758 941 z" fill="rgb(0,200,50)" transform="translate(0,0)"></path>
<path d="M 800.539 938.665 L 801.758 941 C 799.748 945.219 796.912 950.239 794.564 954.404 C 793.911 954.855 793.934 954.532 793.887 955.237 C 793.738 955.184 793.589 955.13 793.441 955.077 C 793.026 953.139 799.344 940.779 800.539 938.665 z" fill="rgb(16,66,24)" transform="translate(0,0)"></path>
<path d="M 833.05 1264.29 C 834.807 1261.6 836.133 1259.22 838.132 1256.73 C 841.956 1259.98 842.609 1260.36 846.837 1263 C 843.692 1275.09 840.012 1287.04 835.806 1298.8 C 835.603 1299.38 835.401 1299.96 835.198 1300.54 C 831.832 1298.92 827.399 1296.52 823.974 1295.39 L 821.173 1293.09 L 821.735 1291.68 C 824.964 1286.83 831.556 1270 833.05 1264.29 z" fill="rgb(0,255,65)" transform="translate(0,0)"></path>
<path d="M 873.441 807.874 C 878.043 808.823 882.472 833.087 883.623 838.668 C 878.915 841.17 876.014 842.62 871.402 845.417 C 869.439 843.51 869.304 842.174 868.709 839.592 C 866.693 832.453 864.529 825.356 862.219 818.306 L 861.178 815.185 C 865.369 812.789 869.211 810.198 873.441 807.874 z" fill="rgb(0,255,65)" transform="translate(0,0)"></path>
<path d="M 870.192 1206.21 C 873.78 1208.75 879.606 1212.2 883.522 1214.26 C 883.489 1217.64 876.364 1239.55 874.931 1243.81 L 874.36 1245.56 C 869.556 1242.21 865.696 1239.36 861.069 1235.82 C 864.528 1226.45 868.078 1215.98 870.192 1206.21 z" fill="rgb(0,255,65)" transform="translate(0,0)"></path>
<path d="M 1177.54 1208.95 C 1180.48 1209.08 1186.65 1232.22 1187.72 1236.04 C 1183.6 1238.28 1179.59 1240.61 1175.48 1242.83 C 1175.19 1243.02 1174.9 1243.21 1174.61 1243.4 C 1172.23 1242.41 1167.21 1219.13 1166.27 1215.2 C 1171.16 1212.82 1172.83 1211.87 1177.54 1208.95 z" fill="rgb(0,255,65)" transform="translate(0,0)"></path>
<path d="M 1173.51 808.204 C 1177.49 810.142 1183.19 812.813 1187.27 814.329 C 1186.28 821.558 1180.45 837.243 1177.96 844.998 C 1175.14 843.191 1168.62 839.038 1166.22 836.672 C 1169.45 827.12 1171.82 818.153 1173.51 808.204 z" fill="rgb(0,255,65)" transform="translate(0,0)"></path>
<path d="M 1259.49 978.348 C 1251.21 944.515 1224.1 906.646 1200.64 881.003 C 1196 875.941 1181.1 862.762 1178.82 858.523 L 1180.08 858.242 C 1194.22 865.812 1230.89 914.778 1241.08 929.992 C 1242.77 932.802 1257.78 962.542 1256.81 961.708 C 1259.95 968.278 1259.78 971.035 1259.49 978.348 z" fill="rgb(17,132,40)" transform="translate(0,0)"></path>
<path d="M 1254.08 1095.28 L 1255.47 1094.92 L 1257.1 1091.94 L 1257.85 1092.57 C 1257.07 1097.1 1253.17 1107.85 1250.46 1111.36 C 1247.34 1113.23 1237.08 1131.42 1233.31 1136.31 C 1221.16 1152.06 1208.93 1166.18 1195.52 1180.84 L 1194.54 1181.89 C 1188.51 1188.34 1185.79 1191.59 1178.53 1196.46 C 1178.78 1194.56 1196.27 1177.39 1199.29 1174.14 C 1225.24 1146.2 1236.72 1128.61 1254.08 1095.28 z" fill="rgb(18,107,33)" transform="translate(0,0)"></path>
<path d="M 825.272 1146.39 C 839.216 1163.5 852.568 1180.97 870.62 1194.19 C 871.644 1194.94 872.379 1195.4 873.38 1196.25 C 872.89 1196.89 872.393 1197.52 871.89 1198.16 C 857.975 1187.19 831.893 1162.14 822.969 1146.92 L 825.272 1146.39 z" fill="rgb(15,81,29)" transform="translate(0,0)"></path>
<path d="M 593.821 560.39 C 617.904 535.533 649.383 515.395 677.479 495.481 C 685.097 490.081 695.888 483.716 702.799 478.286 C 707.395 495.004 712.922 512.49 721.229 527.74 C 694.028 546.26 670.972 561.805 645.822 583.221 C 543.273 669.477 473.496 788.366 448.187 919.956 C 419.54 1070.52 452.575 1226.28 539.873 1352.25 C 585.168 1418.48 651.938 1479.81 719.8 1522.09 C 712.439 1539.5 707.324 1552.03 702.091 1570.3 L 690.554 1562.84 C 677.799 1555.2 664.07 1545.46 651.877 1536.96 L 636.154 1525.49 L 627.042 1518.62 C 616.777 1510.69 598.854 1497.42 590.625 1487.98 C 577.856 1477.54 532.73 1429.57 523.574 1416.06 C 518.554 1410.44 513.484 1403.2 508.943 1397.05 C 503.025 1389.09 497.91 1382.13 492.47 1373.78 C 490.435 1371.55 487.906 1367.08 486.25 1364.38 C 484.836 1363.15 481.117 1356.97 479.861 1355.01 C 469.507 1338.37 449.526 1301.68 442.389 1283.75 C 438.479 1278.93 425.113 1244.73 423.304 1237.09 C 415.97 1221.05 401.797 1168.52 399.406 1151.04 C 393.265 1132.07 386.916 1072.22 386.966 1052.61 C 382.65 1018.21 392.999 914.389 403.649 882.379 C 406.202 864.233 422.995 815.451 430.351 799.002 C 431.587 792.229 444.127 765.837 447.469 759.326 C 450.969 750.629 459.359 734.381 464.373 726.651 C 466.189 721.196 481.003 696.756 484.542 691.286 C 489.144 683.109 495.138 674.197 500.628 666.662 C 510.172 645.723 575.324 576.256 593.821 560.39 z" fill="rgb(0,0,0)" transform="translate(0,0)"></path>
<path d="M 1328.81 528.23 C 1331.15 521.018 1342.49 483.686 1346.68 480.264 L 1348.75 481.367 C 1382.27 498.299 1440.17 546.155 1467.3 571.809 C 1588.12 688.753 1657.86 848.683 1661.35 1016.79 C 1664.03 1184.75 1598.98 1346.71 1480.86 1466.14 C 1476.45 1470.64 1464.93 1482.2 1460.11 1485.81 C 1449.23 1499.13 1400.41 1535.48 1384.8 1545.51 C 1379.09 1549.5 1373.09 1553.86 1367.18 1557.46 C 1362.13 1561.32 1358.79 1563.66 1353.39 1567 L 1349.74 1569.46 L 1347.97 1569.05 L 1346.74 1565.93 L 1329.86 1520.97 C 1408.97 1469.31 1472.97 1409.54 1523.31 1328.64 C 1604.68 1200.21 1630.58 1044.32 1595.12 896.483 C 1558.48 743.372 1462.74 610.983 1328.81 528.23 z" fill="rgb(0,0,0)" transform="translate(0,0)"></path>
<path d="M 814.718 1555.54 C 835.301 1564.7 866.815 1573.32 888.59 1578.67 C 983.148 1601.91 1083.47 1597.93 1177.5 1574.09 C 1197.2 1569.1 1215.12 1563.47 1234.66 1557.88 C 1239.61 1576.93 1244.26 1596.06 1248.6 1615.25 L 1249.48 1618.51 C 1247.24 1621.18 1237.75 1623.9 1233.8 1625.31 C 1200.18 1637.34 1165.62 1646.58 1130.48 1652.94 C 1123.82 1654.13 1109.54 1656.9 1103.22 1656.7 C 1036.21 1668.42 943.31 1660.66 877.869 1644.22 C 852.29 1637.79 823.375 1627.55 798.209 1619.02 C 803.56 1597.82 809.063 1576.66 814.718 1555.54 z" fill="rgb(0,0,0)" transform="translate(0,0)"></path>
<path d="M 952.297 394.649 C 1001.67 389.697 1049.59 388.527 1098.83 394.885 C 1104.45 395.611 1122.1 397.739 1127.03 399.268 C 1147.07 400.399 1219.11 419.004 1237.13 428.248 C 1241.75 429.393 1243.82 430.244 1248.23 432.099 C 1243.78 444.374 1234.56 484.289 1232.37 497.219 C 1101.11 445.774 948.852 447.557 816.61 494.897 C 812.728 475.967 807.296 450.519 801.223 432.234 L 801.853 430.865 C 827.592 421.948 864.186 410.4 890.876 405.643 C 898.207 403.423 907.514 401.869 915.163 400.378 C 921.559 399.096 928.314 398.016 934.766 396.884 L 952.297 394.649 z" fill="rgb(0,0,0)" transform="translate(0,0)"></path>
<path d="M 1207.73 1457.35 C 1208.97 1462.04 1210.15 1466.75 1211.26 1471.48 C 1212.15 1475.2 1212.93 1478.19 1213.58 1482.02 L 1214.03 1483.7 C 1216.62 1495.47 1219.69 1511 1222.98 1522.48 C 1204.77 1528.38 1186.25 1534.62 1167.84 1539.77 C 1144.42 1545.93 1113.62 1552.95 1089.38 1555.15 C 1078.09 1556.31 1065.76 1557.73 1054.48 1558.03 C 992.947 1563.33 934.457 1554.02 875.272 1538.27 C 858.355 1533.06 841.479 1527.71 824.643 1522.24 C 827.312 1511.34 830.105 1500.47 833.022 1489.63 L 833.458 1487.68 C 835.468 1478.84 838.163 1469.16 840.424 1460.29 C 853.836 1465.21 867.905 1468.96 881.67 1472.87 L 889.888 1475.42 C 995.962 1501.79 1052.72 1502.09 1160.83 1475.21 C 1161.9 1474.94 1162.93 1474.66 1164.01 1474.44 C 1178.61 1468.54 1193.29 1464.45 1207.73 1457.35 z" fill="rgb(0,0,0)" transform="translate(0,0)"></path>
<path d="M 1207.73 1457.35 C 1208.97 1462.04 1210.15 1466.75 1211.26 1471.48 C 1212.15 1475.2 1212.93 1478.19 1213.58 1482.02 C 1209.35 1481.25 1205.22 1479.97 1200.99 1479.14 L 1196.49 1478.28 C 1189.83 1477.01 1166.96 1475.94 1164.01 1474.44 C 1178.61 1468.54 1193.29 1464.45 1207.73 1457.35 z" fill="rgb(0,0,0)" transform="translate(0,0)"></path>
<path d="M 1160.83 1475.21 C 1161.9 1474.94 1162.93 1474.66 1164.01 1474.44 C 1166.96 1475.94 1189.83 1477.01 1196.49 1478.28 L 1200.99 1479.14 C 1205.22 1479.97 1209.35 1481.25 1213.58 1482.02 L 1214.03 1483.7 C 1209.43 1483.27 1204.03 1481.92 1199.53 1480.81 C 1187.63 1477.88 1176.19 1477.78 1164.01 1477.94 C 1162.63 1477.95 1161.56 1476.15 1160.83 1475.21 z" fill="rgb(15,81,29)" transform="translate(0,0)"></path>
<path d="M 879.593 1475.12 C 881.679 1475.65 883.767 1476.16 885.86 1476.66 C 882.37 1477.42 878.311 1478.07 874.972 1478.94 L 873.068 1479.42 C 865.64 1481.32 858.389 1483.85 850.967 1485.78 L 842.973 1487.84 C 839.347 1488.75 836.782 1489.47 833.022 1489.63 L 833.458 1487.68 C 844.294 1486.75 869.213 1478.95 879.593 1475.12 z" fill="rgb(16,66,24)" transform="translate(0,0)"></path>
<path d="M 958.66 1491.74 C 958.728 1492.25 959.482 1497.19 958.816 1497.48 C 938.254 1506.59 916.073 1514.62 895.592 1524.09 C 887.524 1527.82 875.765 1533.38 868.388 1534.77 C 867.786 1531.78 870.039 1532.56 872.987 1531.43 C 886.923 1526.1 900.476 1519.55 914.181 1513.63 C 927.492 1507.88 941.241 1503.24 954.555 1497.52 C 956.852 1496.53 957.612 1493.79 958.66 1491.74 z" fill="rgb(15,81,29)" transform="translate(0,0)"></path>
<path d="M 1165.96 1529.24 C 1152.02 1522.94 1130.78 1514.96 1116.02 1508.97 C 1111.14 1507.01 1106.22 1505.13 1101.28 1503.35 C 1096.95 1501.75 1091.61 1500.39 1087.72 1498.22 C 1086.67 1497.64 1085.8 1491.4 1087.48 1491.03 C 1091.19 1493.09 1082.11 1494.68 1097.99 1500.02 C 1120.99 1507.74 1144.49 1518.88 1167.1 1527.91 L 1165.96 1529.24 z" fill="rgb(16,66,24)" transform="translate(0,0)"></path>
<path d="M 983.33 495.329 C 1039.66 491.509 1095.62 495.763 1150.94 507.327 C 1174.74 512.3 1198.6 520.818 1221.43 529.244 C 1215.91 549.277 1211.08 571.97 1205.81 592.569 C 1185.52 585.887 1112.49 562.993 1092.4 564.081 L 1089.78 563.28 C 1049.91 558.075 1005.61 557.089 965.726 562.521 C 964.172 563.161 964.163 563.055 962.339 563.223 C 929.987 564.737 872.818 580.86 842.514 592.418 C 836.687 571.966 831.944 549.775 826.154 528.661 C 849.12 521.709 887.57 508.798 910.734 506.154 C 926.469 501.379 966.64 496.867 983.33 495.329 z" fill="rgb(0,0,0)" transform="translate(0,0)"></path>
<path d="M 959.628 555.176 C 954.616 552.16 944.583 548.666 938.749 546.389 L 899.576 530.846 C 895.911 529.423 868.017 519.041 867.702 517.531 L 868.005 517.096 C 869.399 516.818 954.782 549.808 960.801 553.311 L 959.628 555.176 z" fill="rgb(16,66,24)" transform="translate(0,0)"></path>
<path d="M 960.801 553.311 C 962.828 557.54 962.254 560.906 965.726 562.521 C 964.172 563.161 964.163 563.055 962.339 563.223 C 960.8 560.038 960.677 558.626 959.628 555.176 L 960.801 553.311 z" fill="rgb(18,107,33)" transform="translate(0,0)"></path>
<path d="M 1206.61 562.185 C 1207.46 562.068 1210.17 561.685 1210.77 562.656 L 1210.63 563.091 C 1210.43 563.28 1188.09 568.73 1186.03 569.264 L 1174.62 572.438 C 1171.24 573.413 1168.67 574.201 1165.2 574.983 C 1164.15 575.085 1160.42 575.974 1159.99 574.594 C 1160.76 573.793 1202.57 562.983 1206.61 562.185 z" fill="rgb(16,66,24)" transform="translate(0,0)"></path>
<path d="M 880.703 574.531 C 872.125 573.386 863.668 572.345 854.993 572.041 C 853.462 571.987 841.416 572.47 841.514 570.468 C 843.444 568.829 877.134 571.155 881.226 572.604 L 880.703 574.531 z" fill="rgb(15,81,29)" transform="translate(0,0)"></path>
<path d="M 881.226 572.604 C 884.324 572.969 887.72 573.333 890.473 574.662 C 890.364 574.79 890.256 574.919 890.147 575.047 L 889.887 574.455 L 889.388 574.283 L 888.502 575.342 C 885.865 575.146 883.312 574.988 880.703 574.531 L 881.226 572.604 z" fill="rgb(17,132,40)" transform="translate(0,0)"></path>
<path d="M 1105.12 1400.12 C 1122.26 1395.39 1139.06 1391.15 1155.68 1384.55 L 1156.1 1386.4 C 1159.96 1403.1 1162.42 1420.42 1166.28 1437.33 C 1156.53 1439.57 1141.11 1443.27 1131.8 1446.7 L 1129.52 1446.99 C 1067.09 1461.03 989.469 1466.75 927.173 1448.61 L 924.98 1448.31 L 919.645 1447.56 L 917.829 1447.53 C 909.341 1443.96 895.807 1441.43 886.609 1438.59 L 884.695 1437.99 L 883.069 1437.51 L 884.799 1428.99 C 885.454 1425.83 886.179 1422.62 886.808 1419.49 L 888.817 1409.99 L 889.746 1405.49 C 890.774 1400.49 891.77 1395.49 892.79 1390.49 L 893.952 1384.85 C 909.138 1389.7 926.397 1393.86 941.127 1398.92 L 944.511 1400.02 C 993.9 1407.86 1013.5 1410.83 1063.86 1406.69 L 1065.9 1406.48 C 1077.81 1405.15 1089.98 1402.79 1101.81 1400.78 L 1102.83 1400.61 C 1103.98 1400.24 1103.93 1400.23 1105.12 1400.12 z" fill="rgb(0,0,0)" transform="translate(0,0)"></path>
<path d="M 1105.12 1400.12 C 1122.26 1395.39 1139.06 1391.15 1155.68 1384.55 L 1156.1 1386.4 C 1159.96 1403.1 1162.42 1420.42 1166.28 1437.33 C 1156.53 1439.57 1141.11 1443.27 1131.8 1446.7 C 1127.5 1438.18 1122.01 1428.77 1117.75 1420.25 C 1115.45 1415.65 1105.72 1402.59 1105.12 1400.12 z" fill="rgb(0,0,0)" transform="translate(0,0)"></path>
<path d="M 893.952 1384.85 C 909.138 1389.7 926.397 1393.86 941.127 1398.92 C 934.596 1405.44 927.488 1407.81 925.78 1417.42 C 924.01 1427.38 920.342 1437.73 917.829 1447.53 C 909.341 1443.96 895.807 1441.43 886.609 1438.59 L 884.695 1437.99 L 883.069 1437.51 L 884.799 1428.99 C 885.454 1425.83 886.179 1422.62 886.808 1419.49 L 888.817 1409.99 L 889.746 1405.49 C 890.774 1400.49 891.77 1395.49 892.79 1390.49 L 893.952 1384.85 z" fill="rgb(0,0,0)" transform="translate(0,0)"></path>
<path d="M 1065.9 1406.48 C 1077.81 1405.15 1089.98 1402.79 1101.81 1400.78 L 1102.83 1400.61 C 1102.26 1404.04 1100.42 1406.11 1099.79 1410.49 C 1098.98 1416.15 1097.94 1422.07 1097.24 1427.79 C 1090.69 1423.66 1071.72 1411.19 1065.9 1406.48 z" fill="rgb(0,0,0)" transform="translate(0,0)"></path>
<path d="M 1102.83 1400.61 C 1103.98 1400.24 1103.93 1400.23 1105.12 1400.12 C 1105.72 1402.59 1115.45 1415.65 1117.75 1420.25 C 1122.01 1428.77 1127.5 1438.18 1131.8 1446.7 L 1129.52 1446.99 C 1125.02 1440.26 1121.75 1431.02 1117.62 1423.8 C 1113.3 1416.25 1108.36 1409.65 1103.96 1402.2 C 1103.59 1403.79 1103.25 1405.38 1102.92 1406.98 L 1102.08 1410.49 C 1101.42 1413.19 1100.43 1418.76 1100.17 1421.5 L 1099.41 1429.65 C 1102.89 1432.17 1106.8 1434.83 1110.43 1437.11 C 1113.47 1439.02 1116.61 1440.78 1119.82 1442.37 C 1120.83 1442.87 1123.94 1443.92 1124.05 1445.37 C 1121.57 1447.96 1102.35 1434.19 1099.6 1432.67 C 1097.63 1433.41 1097.83 1436.19 1097.33 1438.19 L 1095.66 1437.75 C 1095.73 1436.46 1096.57 1430.33 1095.79 1429.57 C 1088.31 1422.28 1069.94 1414.49 1063.86 1406.69 L 1065.9 1406.48 C 1071.72 1411.19 1090.69 1423.66 1097.24 1427.79 C 1097.94 1422.07 1098.98 1416.15 1099.79 1410.49 C 1100.42 1406.11 1102.26 1404.04 1102.83 1400.61 z" fill="rgb(15,81,29)" transform="translate(0,0)"></path>
<path d="M 954.077 1428.01 C 954.061 1425.62 953.532 1405.65 954.144 1404.97 C 956.408 1405.94 955.992 1423.28 956.02 1425.97 C 959.764 1423.1 979.094 1407.42 982.426 1407.99 C 982.807 1408.45 982.724 1408.21 982.777 1408.67 C 979.913 1411.91 961.009 1424.85 956.11 1428.86 C 956.135 1431.78 956.861 1451.56 956.702 1452.18 L 956.244 1452.4 C 953.603 1450.48 953.873 1434.47 953.726 1430.73 C 944.969 1436.59 936.21 1443.34 927.173 1448.61 L 924.98 1448.31 C 929.622 1443.36 947.518 1432.37 954.077 1428.01 z" fill="rgb(16,66,24)" transform="translate(0,0)"></path>
<path d="M 941.127 1398.92 L 944.511 1400.02 C 918.118 1419.5 930.632 1421.24 919.645 1447.56 L 917.829 1447.53 C 920.342 1437.73 924.01 1427.38 925.78 1417.42 C 927.488 1407.81 934.596 1405.44 941.127 1398.92 z" fill="rgb(16,66,24)" transform="translate(0,0)"></path>
<path d="M 1095.66 1437.75 L 1097.33 1438.19 C 1095.66 1461.81 1092.5 1447.06 1095.66 1437.75 z" fill="rgb(16,66,24)" transform="translate(0,0)"></path>
<path d="M 885.296 614.329 C 896.627 610.364 918.213 605.998 930.086 603.634 C 993.932 590.924 1053.07 588.055 1116.9 602.609 C 1134.36 606.589 1147.86 608.915 1165.17 615.582 C 1161.26 632.239 1158.57 650.443 1154.46 667.981 C 1136.1 660.566 1115.29 655.67 1095.96 651.375 L 1094.23 651.679 C 1049.93 641.017 995.405 643.249 950.885 652.833 C 950.256 653.115 949.628 653.397 949 653.679 C 938.215 653.248 904.87 662.627 895.859 667.906 C 891.919 651.688 888.519 631.011 885.296 614.329 z" fill="rgb(0,0,0)" transform="translate(0,0)"></path>
<path d="M 1094.25 620.144 C 1098.36 618.232 1116.31 605.733 1117.37 605.712 L 1117.78 606.091 C 1117.88 608.938 1095.85 620.333 1094.25 624.532 L 1092.37 625.223 C 1088.87 626.498 1088.09 627.514 1084.89 629.7 C 1079.4 633.444 1073.81 637.038 1068.48 641.014 C 1067.9 641.444 1063.34 644.788 1062.71 642.963 L 1063.07 642.863 C 1063.95 639.316 1089.9 625.825 1092.67 620.565 L 1094.25 620.144 z" fill="rgb(16,66,24)" transform="translate(0,0)"></path>
<path d="M 952.798 623.253 C 949.333 618.411 929.342 610.483 928.435 606.639 C 929.718 604.362 939.157 612.343 941.41 613.402 C 944.961 615.072 949.164 617.363 952.668 619.193 L 954.025 619.613 C 954.436 621.469 954.515 621.272 955.966 622.755 L 955.705 624.249 L 954.567 624.172 L 952.798 623.253 z" fill="rgb(15,81,29)" transform="translate(0,0)"></path>
<path d="M 952.798 623.253 L 954.567 624.172 C 951.633 634.705 951.316 642.043 950.885 652.833 C 950.256 653.115 949.628 653.397 949 653.679 C 948.233 647.302 950.622 629.084 952.798 623.253 z" fill="rgb(16,66,24)" transform="translate(0,0)"></path>
<path d="M 1094.25 624.532 C 1095.53 629.542 1095.94 645.945 1095.96 651.375 L 1094.23 651.679 C 1093.43 641.666 1094.31 636.178 1092.37 625.223 L 1094.25 624.532 z" fill="rgb(16,66,24)" transform="translate(0,0)"></path>
<path d="M 914.135 607.979 C 919.627 610.102 920.784 609.037 923.045 615.954 C 927.746 630.343 934.015 639.713 941.708 652.282 C 935.783 652.906 925.04 628.016 923.707 622.689 C 921.835 615.206 919.078 613.305 914.135 607.979 z" fill="rgb(16,66,24)" transform="translate(0,0)"></path>
<path d="M 1099.1 1316.23 C 1112.77 1313 1126.12 1309.84 1139.55 1305.58 C 1140.89 1315.09 1142.92 1324.48 1144.17 1334 L 1145.12 1340.49 C 1145.48 1343.06 1146.08 1345.9 1146.49 1348.56 L 1146.57 1350.05 L 1147.17 1354.01 C 1145.38 1356.41 1108.09 1366.18 1102.91 1367.65 C 1102.54 1367.92 1102.18 1368.2 1101.81 1368.47 C 1092.72 1369.08 1078.95 1372.68 1068.67 1373.99 C 1032.54 1379.16 998.331 1377.3 962.439 1372.13 C 943.192 1369.36 921.015 1357.99 903.746 1355.84 L 901.898 1354.06 C 901.16 1350.41 902.325 1346.21 903.021 1342.46 C 902.982 1340.2 903.107 1339.44 903.349 1337.19 L 910.063 1305.71 C 980.462 1330.81 1024.81 1329.66 1096.53 1316.93 L 1099.1 1316.23 z" fill="rgb(0,0,0)" transform="translate(0,0)"></path>
<path d="M 1099.1 1316.23 C 1112.77 1313 1126.12 1309.84 1139.55 1305.58 C 1140.89 1315.09 1142.92 1324.48 1144.17 1334 L 1145.12 1340.49 C 1145.48 1343.06 1146.08 1345.9 1146.49 1348.56 C 1141.78 1348.92 1137.3 1348.94 1132.62 1349.41 C 1123.98 1347.43 1105.07 1338.79 1099.87 1331.84 C 1100.13 1327.31 1099.24 1321.16 1099.1 1316.23 z" fill="rgb(0,0,0)" transform="translate(0,0)"></path>
<path d="M 1050.92 1342.94 C 1048.21 1338.11 1036.1 1331.62 1030.88 1329.06 C 1030.2 1328.72 1029.38 1328.55 1029.6 1327.77 L 1029.62 1327.8 C 1034.85 1325.25 1073.03 1356.97 1082.76 1355.58 C 1083.14 1355.53 1098.05 1359.58 1099.66 1360.12 L 1100.92 1360.09 C 1101.34 1362.01 1102.22 1365.8 1102.91 1367.65 C 1102.54 1367.92 1102.18 1368.2 1101.81 1368.47 C 1101.41 1367.84 1098.76 1362.65 1099.04 1362.83 C 1096.6 1361.13 1087.25 1358.28 1084.48 1358.35 C 1073.46 1358.66 1059.15 1344.48 1050.92 1342.94 z" fill="rgb(16,66,24)" transform="translate(0,0)"></path>
<path d="M 1097.06 1332.64 C 1098.02 1332.35 1098.9 1332.08 1099.87 1331.84 C 1105.07 1338.79 1123.98 1347.43 1132.62 1349.41 C 1137.3 1348.94 1141.78 1348.92 1146.49 1348.56 L 1146.57 1350.05 C 1142.64 1350.99 1139.16 1350.83 1136.13 1351.83 C 1125.83 1352.54 1110.02 1341.86 1101.06 1336.54 L 1099.13 1334.85 C 1098.43 1334.12 1097.74 1333.38 1097.06 1332.64 z" fill="rgb(15,81,29)" transform="translate(0,0)"></path>
<path d="M 1096.53 1316.93 L 1099.1 1316.23 C 1099.24 1321.16 1100.13 1327.31 1099.87 1331.84 C 1098.9 1332.08 1098.02 1332.35 1097.06 1332.64 C 1095.78 1332.29 1075.95 1323.95 1076.22 1324.4 C 1079.07 1321.76 1093.64 1329.05 1096.71 1330.86 L 1098.32 1331.76 C 1097.76 1326.48 1096.93 1322.19 1096.53 1316.93 z" fill="rgb(16,66,24)" transform="translate(0,0)"></path>
<path d="M 1049 1345.02 C 1049.27 1343.56 1049.61 1343.54 1050.92 1342.94 C 1050.4 1344.44 1050.59 1344.73 1049 1345.02 z" fill="rgb(15,81,29)" transform="translate(0,0)"></path>
<path d="M 928.694 1320.11 C 933.456 1319.79 963.279 1322.78 959.495 1332.48 L 959.37 1332.46 C 958.89 1332.03 958.549 1331.64 958.362 1331.01 C 956.59 1325.11 949.16 1325.57 943.181 1323.99 C 933.906 1322.34 932.369 1321.92 923.404 1323.65 C 917.058 1324.87 914.381 1327.58 910.524 1328.67 C 908.03 1327.66 912.492 1325.33 913.064 1325.09 C 918.115 1323.01 923.391 1321.42 928.694 1320.11 z" fill="rgb(15,81,29)" transform="translate(0,0)"></path>
<path d="M 1020.81 1330.8 C 1023.07 1330.11 1023.02 1330.22 1025.41 1330.4 L 1023.91 1332.29 C 1023.12 1332.39 1022.2 1332.47 1021.43 1332.61 L 1020.81 1330.8 z" fill="rgb(18,107,33)" transform="translate(0,0)"></path>
<path d="M 920.76 772.89 C 969.097 759.072 1021.08 748.29 1071.22 758.121 C 1089.92 761.789 1109.36 768.156 1127.74 773.445 C 1123.41 791.253 1120.47 811.933 1116.3 830.71 C 1108.01 827.877 1100.41 825.261 1091.93 822.958 L 1075.05 818.549 C 1049.86 813.328 1026.9 810.458 1001.04 812.895 L 996.058 813.395 C 989.006 814.934 979.187 817.383 972.245 818.327 C 969.461 819.09 962.785 821.128 960.257 821.547 C 951.208 824.362 941.546 827.284 932.689 830.536 C 927.27 811.182 925.715 790.544 920.76 772.89 z" fill="rgb(0,0,0)" transform="translate(0,0)"></path>
<path d="M 996.058 813.395 C 1001.31 809.305 1033.28 787.359 1037.66 800.475 L 1037.48 800.673 C 1032.4 800.569 1030.7 798.284 1023.49 800.07 C 1015.83 801.969 1006.37 806.901 1001.04 812.895 L 996.058 813.395 z" fill="rgb(16,66,24)" transform="translate(0,0)"></path>
<path d="M 992.793 761.019 C 996.637 755.674 1003.4 764.381 1007 765.014 C 1015.13 766.441 1067.18 813.09 1066.79 814.901 L 1066.13 815.182 C 1059.37 812.201 1037.48 789.011 1029.54 783.6 C 1027.89 782.694 1027.44 782.483 1025.97 781.337 C 1022.99 778.591 1022.78 777.992 1019.25 776.613 C 1017.77 775.186 1017.18 774.399 1015.44 773.431 C 1010.59 770.733 1006.03 767.923 1001.07 765.499 C 999.697 763.051 997.177 762.383 994.618 761.977 L 992.793 761.019 z" fill="rgb(15,81,29)" transform="translate(0,0)"></path>
<path d="M 992.793 761.019 L 994.618 761.977 C 982.444 772.899 967.798 782.59 957.582 795.877 C 956.557 797.21 938.365 815.766 943.467 816.296 C 947.413 813.203 947.52 806.867 953.542 806.296 L 951.449 808.53 C 949.598 810.521 944.363 818.293 942.699 818.668 L 942.428 818.572 C 942.432 817.732 942.454 817.91 942.205 817.176 C 941.671 816.903 941.15 817.117 940.511 817.187 L 938.837 816.354 C 943.744 803.185 980.38 769.272 992.793 761.019 z" fill="rgb(16,66,24)" transform="translate(0,0)"></path>
<path d="M 1097.21 806.572 C 1099.73 810.46 1102.52 814.155 1105.05 818.033 C 1105.9 819.057 1107.94 821.852 1109.18 822.2 C 1110.54 822.584 1108.23 818.014 1108.23 818.016 L 1107.46 816.61 L 1108.93 812.77 C 1110.57 817.891 1113.09 823.316 1115.24 828.296 C 1099.66 819.367 1103.46 822.245 1096.21 807.343 L 1097.21 806.572 z" fill="rgb(18,107,33)" transform="translate(0,0)"></path>
<path d="M 1058.94 771.868 L 1060.11 772.736 L 1059.91 773.734 C 1055.49 775.128 1036.41 783.027 1033.7 781.624 C 1034.08 780.208 1056 772.803 1058.94 771.868 z" fill="rgb(15,81,29)" transform="translate(0,0)"></path>
<path d="M 927.614 792.324 C 929.821 788.057 931.735 784.028 933.641 779.693 C 934.741 777.538 936.455 771.71 938.327 770.457 C 940.772 768.821 934.313 783.478 934.171 783.869 C 934.021 784.705 933.872 785.542 933.722 786.379 C 931.803 788.005 931.333 789.362 930.066 791.632 L 928.948 793.605 L 927.614 792.324 z" fill="rgb(18,107,33)" transform="translate(0,0)"></path>
<path d="M 984.312 778.79 C 986.513 773.112 995.2 767.036 1000.6 766.401 C 998.073 769.43 988.48 775.38 984.312 778.79 z" fill="rgb(16,66,24)" transform="translate(0,0)"></path>
<path d="M 934.171 783.869 C 937.658 782.079 941.697 779.098 945.164 778.081 L 947.748 779.487 C 943.008 780.605 938.527 784.22 933.722 786.379 C 933.872 785.542 934.021 784.705 934.171 783.869 z" fill="rgb(16,66,24)" transform="translate(0,0)"></path>
<path d="M 938.837 816.354 L 940.511 817.187 C 939.261 819.709 937.117 824.588 934.271 825.808 C 933.725 826.042 933.08 825.257 933.093 824.682 C 933.167 821.344 936.311 819.4 938.233 817.094 L 938.837 816.354 z" fill="rgb(17,132,40)" transform="translate(0,0)"></path>
<path d="M 952.937 773.13 C 959.333 770.574 962.546 768.1 970.08 765.661 C 965.985 768.247 958.555 773.005 954.057 774.946 L 952.937 773.13 z" fill="rgb(16,66,24)" transform="translate(0,0)"></path>
<path d="M 952.937 773.13 L 954.057 774.946 C 951.708 776.499 950.001 778.032 947.748 779.487 L 945.164 778.081 C 948.355 776.085 949.553 774.938 952.937 773.13 z" fill="rgb(18,107,33)" transform="translate(0,0)"></path>
<path d="M 1088.35 815.196 C 1090.43 816.299 1101.01 820.458 1093.98 821.398 C 1092.29 819.895 1090.44 818.598 1089.26 816.624 L 1088.35 815.196 z" fill="rgb(16,66,24)" transform="translate(0,0)"></path>
<path d="M 1059.91 773.734 C 1062.31 775.117 1063.82 775.332 1064.15 778.078 C 1061.79 777.467 1061.14 775.802 1059.91 773.734 z" fill="rgb(16,66,24)" transform="translate(0,0)"></path>
<path d="M 1048.79 809.061 C 1050.09 809.224 1050.98 810.074 1052.03 810.822 C 1049.4 812.357 1049.18 812.14 1048.79 809.061 z" fill="rgb(16,66,24)" transform="translate(0,0)"></path>
<path d="M 1106.79 809.225 L 1107.91 808.625 C 1108.53 810.47 1108.63 810.841 1108.93 812.77 L 1107.46 816.61 C 1107.03 813.812 1106.95 812.027 1106.79 809.225 z" fill="rgb(15,81,29)" transform="translate(0,0)"></path>
<path d="M 927.614 792.324 L 928.948 793.605 C 928.942 793.617 928.026 796.293 927.156 795.458 C 926.497 794.824 927.49 792.646 927.614 792.324 z" fill="rgb(15,81,29)" transform="translate(0,0)"></path>
<path d="M 1116.85 1220.82 L 1117.82 1220.94 C 1122.08 1233.23 1127.35 1263.15 1129.56 1277.28 C 1102.4 1287.08 1085.44 1289.64 1057.68 1294.46 C 1056.16 1295.06 1054.9 1294.78 1053.27 1294.72 C 1044.81 1296.69 1038.73 1296.53 1030.52 1297.43 C 1020.96 1298.48 1013.86 1296.35 1005.26 1296.31 C 1003.18 1296.24 1001.16 1296.43 999.224 1295.6 C 987.601 1294.05 978.563 1291.02 966.142 1289.63 C 964.419 1289.28 962.931 1289.12 961.325 1288.45 C 957.38 1287.38 954.907 1286.7 950.89 1286.08 C 949.011 1285.54 948.942 1285.5 947.121 1284.66 L 938.168 1281.77 L 936.064 1281.65 C 932.881 1279.94 924.982 1277.34 921.24 1275.99 C 922.619 1268.09 929.05 1224.5 932.821 1222.49 L 937.018 1224.73 L 937.739 1225.15 C 956.407 1233.17 985.664 1239.37 1006.41 1241.87 C 1046.16 1244.11 1074.11 1238.88 1110.48 1224.27 L 1116.85 1220.82 z" fill="rgb(0,0,0)" transform="translate(0,0)"></path>
<path d="M 1015.99 1274.3 C 1034.03 1267.04 1022.32 1271.65 1038.07 1278.4 C 1040.55 1280.9 1047.8 1284.91 1047.16 1287.32 L 1048.32 1288.17 L 1049.19 1287.99 C 1052.07 1290.55 1052.55 1290.97 1053.27 1294.72 C 1044.81 1296.69 1038.73 1296.53 1030.52 1297.43 C 1020.96 1298.48 1013.86 1296.35 1005.26 1296.31 C 1002.5 1292.68 999.214 1289.37 995.958 1286.17 C 999.62 1284.49 1002.01 1282.4 1005.17 1280.59 L 1014.54 1275.17 L 1015.99 1274.3 z" fill="rgb(0,0,0)" transform="translate(0,0)"></path>
<path d="M 1116.48 1222.92 C 1115.94 1224.9 1111.5 1236.16 1110.37 1237.22 L 1109.97 1236.97 C 1109.8 1236.19 1110.06 1234.71 1109.52 1234.19 C 1111 1233.69 1088.08 1263.61 1082.57 1267.56 C 1076.43 1271.98 1066.42 1286.01 1058.08 1291.45 L 1057.56 1290.31 C 1060.07 1286.66 1062.93 1284.85 1066.23 1281.21 C 1076.61 1269.79 1088.16 1259.48 1097.95 1247.46 C 1100.17 1244.73 1101.36 1244.85 1099.13 1243.09 C 1099.23 1242.27 1099.31 1241 1099.63 1240.16 C 1104.22 1235.24 1106.78 1232.46 1111.03 1227 L 1111.56 1226.57 C 1113.64 1224.86 1114.22 1224.4 1116.48 1222.92 z" fill="rgb(15,81,29)" transform="translate(0,0)"></path>
<path d="M 936.064 1281.65 C 935.72 1273.72 929.779 1237.63 933.458 1233.71 L 933.426 1233.51 C 933.049 1233.25 938.131 1277.65 938.168 1281.77 L 936.064 1281.65 z" fill="rgb(18,107,33)" transform="translate(0,0)"></path>
<path d="M 1024.18 1266.29 C 1030.71 1268.37 1036.19 1259.15 1037.94 1263.67 C 1035.03 1264.71 1032.22 1265.99 1029.53 1267.5 C 1026.62 1269.05 1034.89 1273.63 1036.36 1274.77 L 1037.78 1275.83 L 1038.4 1276.62 L 1038.07 1278.4 C 1022.32 1271.65 1034.03 1267.04 1015.99 1274.3 L 1012.84 1273.26 C 1015.71 1271.95 1023.59 1270.12 1023.43 1267.18 L 1024.18 1266.29 z" fill="rgb(18,107,33)" transform="translate(0,0)"></path>
<path d="M 937.018 1224.73 L 937.739 1225.15 C 938.414 1227.91 952.936 1240.36 956 1242.89 L 958.024 1244.18 C 959.199 1246.57 959.659 1246.54 958.526 1248.87 C 955.917 1245.82 939.343 1230.5 936.718 1228.98 C 936.069 1227.42 936.035 1227.38 935 1226.05 L 937.018 1224.73 z" fill="rgb(15,81,29)" transform="translate(0,0)"></path>
<path d="M 940.225 1249.81 C 940.468 1249.42 940.985 1248.4 941.493 1248.07 C 944.577 1250.52 948.871 1278.26 950.249 1283.47 C 950.47 1284.34 950.684 1285.21 950.89 1286.08 C 949.011 1285.54 948.942 1285.5 947.121 1284.66 C 949.106 1278.72 942.663 1255.78 940.225 1249.81 z" fill="rgb(16,66,24)" transform="translate(0,0)"></path>
<path d="M 961.325 1288.45 C 965.171 1285.44 950.131 1264.21 950.618 1255.73 C 955.639 1266.95 960.987 1278.43 966.142 1289.63 C 964.419 1289.28 962.931 1289.12 961.325 1288.45 z" fill="rgb(16,66,24)" transform="translate(0,0)"></path>
<path d="M 987.749 1279.98 C 991.079 1282.14 991.029 1281.1 993.709 1284.85 C 993.648 1285.78 993.6 1286.72 993.565 1287.66 C 991.376 1289.23 986.2 1292.39 983.494 1290.55 C 983.497 1290.55 983.501 1290.55 983.504 1290.55 C 987.263 1288.45 991.243 1286.57 995.065 1284.54 C 987.261 1283.97 979.376 1283.55 971.638 1282.31 L 972.173 1280.73 C 974.48 1280.93 988.645 1284.02 987.749 1279.98 z" fill="rgb(15,81,29)" transform="translate(0,0)"></path>
<path d="M 994.702 1285.18 C 1000.2 1279.94 1007.04 1277.73 1012.84 1273.26 L 1015.99 1274.3 L 1014.54 1275.17 L 1005.17 1280.59 C 1002.01 1282.4 999.62 1284.49 995.958 1286.17 C 994.956 1285.44 995.363 1285.79 994.702 1285.18 z" fill="rgb(15,81,29)" transform="translate(0,0)"></path>
<path d="M 935 1226.05 C 936.035 1227.38 936.069 1227.42 936.718 1228.98 C 939.665 1236.04 941.218 1237.51 944.531 1243.55 C 942.884 1243.34 942.842 1243.41 941.408 1242.74 C 938.567 1238.88 932.822 1230.75 935 1226.05 z" fill="rgb(18,107,33)" transform="translate(0,0)"></path>
<path d="M 1038.4 1276.62 C 1043.31 1279.56 1045.79 1281.61 1050.11 1285.32 L 1049.95 1285.74 L 1049.19 1287.99 L 1048.32 1288.17 L 1047.16 1287.32 C 1047.8 1284.91 1040.55 1280.9 1038.07 1278.4 L 1038.4 1276.62 z" fill="rgb(16,66,24)" transform="translate(0,0)"></path>
<path d="M 993.709 1284.85 L 994.702 1285.18 C 995.363 1285.79 994.956 1285.44 995.958 1286.17 C 999.214 1289.37 1002.5 1292.68 1005.26 1296.31 C 1003.18 1296.24 1001.16 1296.43 999.224 1295.6 C 1004.5 1293.6 996.44 1289.91 993.565 1287.66 C 993.6 1286.72 993.648 1285.78 993.709 1284.85 z" fill="rgb(0,200,50)" transform="translate(0,0)"></path>
<path d="M 1049.95 1285.74 L 1051.91 1287 C 1053.12 1290.55 1054.07 1292.71 1057.56 1290.31 L 1058.08 1291.45 C 1056.57 1292.94 1055.81 1293.1 1057.68 1294.46 C 1056.16 1295.06 1054.9 1294.78 1053.27 1294.72 C 1052.55 1290.97 1052.07 1290.55 1049.19 1287.99 L 1049.95 1285.74 z" fill="rgb(17,132,40)" transform="translate(0,0)"></path>
<path d="M 1023.43 1267.18 C 1021.94 1266.33 1013.78 1261.79 1014.88 1259.67 C 1016.5 1258.67 1023.16 1265.1 1024.18 1266.29 L 1023.43 1267.18 z" fill="rgb(16,66,24)" transform="translate(0,0)"></path>
<path d="M 1082.56 1238.63 C 1084.86 1237.81 1085.35 1237.53 1087.79 1237.42 C 1085.44 1239.9 1057.43 1262.06 1054.59 1263.48 L 1055.34 1260.18 C 1055.59 1257.91 1051.54 1256.54 1049.72 1255.65 C 1045.51 1251.12 1016.66 1256.39 1010.58 1252.03 C 1010.45 1251.93 1009.18 1251.19 1008.6 1250.96 L 1006.72 1250.25 L 1009.22 1249.6 C 1024.87 1259.5 1043.29 1240.09 1049.19 1243.46 C 1049.48 1245.42 1034.91 1247.3 1033.91 1251.05 C 1034.93 1253.04 1047.07 1250.58 1052.18 1253.72 C 1056.45 1254.4 1055.89 1260.58 1059.45 1257.43 C 1067.15 1250.63 1075.08 1245.6 1082.56 1238.63 z" fill="rgb(15,81,29)" transform="translate(0,0)"></path>
<path d="M 1004.44 1249.87 C 1015.84 1261.76 996.008 1247.68 990.596 1248.75 C 989.099 1249.05 972.868 1242.07 970.431 1241.34 L 969.691 1240.35 L 969.645 1240.39 L 969.679 1240.31 C 972.575 1239.54 994.873 1249.6 1003.65 1249.47 L 1004.44 1249.87 z" fill="rgb(16,66,24)" transform="translate(0,0)"></path>
<path d="M 1053.33 1251.14 C 1054.37 1249.58 1073.43 1240.57 1076.2 1240.24 C 1074.21 1243.24 1057.51 1251.89 1053.33 1251.14 z" fill="rgb(16,66,24)" transform="translate(0,0)"></path>
<path d="M 1080.54 1274.48 C 1084.02 1273.46 1085.32 1283.23 1086.14 1286.3 C 1083.36 1284.36 1080.64 1277.66 1080.54 1274.48 z" fill="rgb(16,66,24)" transform="translate(0,0)"></path>
<path d="M 1002.94 1266.78 C 1021.13 1270.33 1015.83 1273.09 1002.65 1267.89 L 1002.94 1266.78 z" fill="rgb(16,66,24)" transform="translate(0,0)"></path>
<path d="M 1000.54 1244.6 C 1004.13 1246.31 1005.88 1247.47 1009.22 1249.6 L 1006.72 1250.25 L 1004.44 1249.87 L 1003.65 1249.47 C 1002.15 1247.62 1001.29 1246.85 1000.54 1244.6 z" fill="rgb(0,200,50)" transform="translate(0,0)"></path>
<path d="M 1046.83 1258.42 C 1045.62 1256.91 1045.44 1256.62 1047.71 1256.52 L 1048.78 1256.45 C 1047.94 1257.53 1047.9 1257.58 1046.83 1258.42 z" fill="rgb(15,81,29)" transform="translate(0,0)"></path>
<path d="M 901.793 703.962 C 901.013 701.43 900.723 699.662 900.261 697.091 C 902.266 694.009 913.124 691.734 916.993 690.688 C 962.425 678.405 1011.77 671.84 1058.73 677.189 C 1062.71 677.641 1071.96 678.392 1074.99 680.302 C 1066.54 685.82 1030.17 714.357 1027.16 721.336 C 1028.13 722.457 1029.07 723.6 1029.99 724.762 C 1028.77 724.902 1027.72 725.029 1026.51 725.216 L 1020.75 725.204 C 1019.83 725.398 1018.91 725.593 1017.99 725.788 C 1007.46 727.418 990.71 729.706 980.115 730.059 L 979.297 730.154 C 975.696 731.231 967.066 732.428 962.834 733.261 C 945.223 736.73 926.023 739.82 909.787 747.717 C 907.695 734.037 905.247 720.415 902.444 706.863 C 902.227 705.896 902.01 704.929 901.793 703.962 z" fill="rgb(0,0,0)" transform="translate(0,0)"></path>
<path d="M 901.793 703.962 C 913.706 703.473 916.621 700.506 928.666 704.418 C 934.115 707.384 939.835 711.155 945.407 713.809 L 945.37 715.388 C 924.505 705.4 926.64 701.013 902.444 706.863 C 902.227 705.896 902.01 704.929 901.793 703.962 z" fill="rgb(16,66,24)" transform="translate(0,0)"></path>
<path d="M 1020.28 717.504 C 1022.87 718.73 1024.68 720.174 1027.16 721.336 C 1028.13 722.457 1029.07 723.6 1029.99 724.762 C 1028.77 724.902 1027.72 725.029 1026.51 725.216 C 1024.26 722.256 1021.37 720.701 1020.28 717.504 z" fill="rgb(18,107,33)" transform="translate(0,0)"></path>
<path d="M 1007.35 719.102 C 1011.02 717.677 1017.34 723.01 1020.75 725.204 C 1019.83 725.398 1018.91 725.593 1017.99 725.788 C 1014.89 723.717 1010.56 721.031 1007.35 719.102 z" fill="rgb(18,107,33)" transform="translate(0,0)"></path>
<path d="M 928.666 704.418 C 929.733 701.768 929.888 699.157 932.877 700.096 C 933.343 702.82 930.895 703.188 928.666 704.418 z" fill="rgb(15,81,29)" transform="translate(0,0)"></path>
<path d="M 946.626 717.072 L 949.127 717.825 C 949.144 718.74 950.961 739.611 948.024 731.501 C 948.215 732.028 946.597 716.678 946.626 717.072 z" fill="rgb(16,66,24)" transform="translate(0,0)"></path>
<path d="M 1012.03 712.371 C 1013.05 713.005 1014.08 713.638 1015.1 714.271 C 1013.64 715.413 1013.22 715.927 1012.51 713.759 L 1012.03 712.371 z" fill="rgb(15,81,29)" transform="translate(0,0)"></path>
<path d="M 1076.37 680.784 C 1087.94 677.522 1136.36 693.758 1148.57 699.041 C 1147.81 703.656 1146.57 709.864 1146.24 714.384 C 1146.04 715.714 1146.07 715.621 1145.56 716.864 C 1144.01 726.753 1142.34 736.623 1140.55 746.47 C 1108.1 736.012 1070.02 726.526 1035.98 725.965 L 1029.99 724.762 C 1029.07 723.6 1028.13 722.457 1027.16 721.336 C 1030.17 714.357 1066.54 685.82 1074.99 680.302 L 1076.37 680.784 z" fill="rgb(0,0,0)" transform="translate(0,0)"></path>
<path d="M 1093.78 716.585 C 1099.83 716.275 1096.68 714 1098.48 712.933 C 1101.55 720.452 1110.27 711.659 1111.59 712.381 C 1111.55 712.975 1111.2 713.447 1111.19 714.065 C 1110.98 713.901 1142.64 714.046 1146.24 714.384 C 1146.04 715.714 1146.07 715.621 1145.56 716.864 C 1139.93 714.04 1106.93 716.931 1099.33 717.892 L 1099.81 719.57 L 1100.19 720.952 C 1100.84 723.248 1101.41 725.393 1102.18 727.656 L 1102.26 727.913 C 1114.22 728.452 1125.66 728.948 1137.58 727.197 C 1141.91 726.56 1144.29 728.412 1138 729.126 C 1128.54 730.198 1120.19 731.774 1110.5 730.702 C 1104.84 730.077 1103.4 728.455 1100.61 732.483 C 1094.98 732.439 1105.26 711.675 1091.37 721.322 C 1091.52 718.87 1092.25 718.473 1093.78 716.585 z" fill="rgb(15,81,29)" transform="translate(0,0)"></path>
<path d="M 1052.8 716.534 C 1061.77 713.263 1060.52 714.356 1068.43 709.313 C 1074.39 705.517 1089.06 685.072 1091.56 683.851 C 1092 684.09 1091.97 683.982 1092.18 684.524 C 1092.4 685.074 1092.35 685.509 1092 685.993 C 1091.73 686.372 1091.33 686.663 1091.02 686.999 C 1089.74 688.356 1088.7 690.193 1087.43 691.658 C 1086.67 692.541 1086.07 693.488 1085.38 694.422 C 1083.79 696.551 1082.19 698.667 1080.44 700.661 C 1078.86 702.456 1063.34 717.189 1063.35 717.271 C 1063.57 718.788 1065.95 720.035 1067.09 720.695 C 1069.79 722.98 1069.8 723.02 1071.92 725.94 C 1065.25 723.678 1063.65 722.55 1059.88 716.463 C 1058.9 717.035 1052.38 719.844 1051.98 720.036 C 1047.11 722.423 1042.78 722.909 1037.57 723.672 C 1039.72 719.812 1047.38 720.87 1052.8 716.534 z" fill="rgb(15,81,29)" transform="translate(0,0)"></path>
<path d="M 1067.09 720.695 C 1072.31 719.193 1084.67 718.984 1085.4 718.636 L 1085.73 718.745 C 1085.79 718.688 1085.85 718.631 1085.91 718.574 L 1085.78 718.436 C 1083.22 717.989 1067.44 718.562 1068.21 718.857 L 1068.09 718.589 C 1069.55 712.905 1089.55 715.748 1093.78 716.585 C 1092.25 718.473 1091.52 718.87 1091.37 721.322 L 1090.04 721.994 C 1085.1 724.606 1077.51 725.659 1071.92 725.94 C 1069.8 723.02 1069.79 722.98 1067.09 720.695 z" fill="url(#Gradient1)" transform="translate(0,0)"></path>
<path d="M 1074.99 680.302 L 1076.37 680.784 C 1073.28 684.86 1056.21 697.566 1051.08 701.556 C 1046.88 705.555 1039.88 711.54 1034.87 714.45 C 1031.53 716.383 1030.5 719.05 1027.16 721.336 C 1030.17 714.357 1066.54 685.82 1074.99 680.302 z" fill="rgb(16,66,24)" transform="translate(0,0)"></path>
<metadata><recraft-signature>{"signed_by": "recraft", "signature_b64": "YU/+5ePowh+6qLOw1YzhquOMZFUl8K4apmE+jC5457m0OMPkPOSbnvvAaiddpVN5kpq7qsOxReipgII3Mvi0DA==", "signing_algo": "Ed25519", "generation_timestamp": 1772834945, "identifier": "3b3fff0f-ea7a-4cd1-be99-ab00bdffd38e"}</recraft-signature></metadata></svg>