<svg xmlns="http://www.w3.org/2000/svg" height="1024" preserveAspectRatio="none" style="display: block;" version="1.1" viewBox="0 0 2048 2048" width="1024">
<path d="M 0 0 L 2048 0 L 2048 2048 L 0 2048 L 0 0 z" fill="rgb(0,0,0)" transform="translate(0,0)"></path>
<path d="M 840.662 901.335 C 854.178 878.317 875.638 849.389 890.996 826.989 L 992.502 679.978 L 1080.89 552.387 C 1096.12 530.458 1119.08 495.272 1135.9 476.433 C 1153.97 455.997 1176.08 439.536 1200.85 428.091 C 1214.59 421.889 1229.15 417.682 1244.08 415.597 C 1261.29 413.079 1294.46 413.286 1312.67 413.219 C 1334.4 413.138 1368.18 411.793 1389.09 414.245 C 1402.82 415.823 1416.3 419.137 1429.2 424.107 C 1493.45 448.138 1519.87 497.297 1556.24 550.384 L 1642.58 675.314 L 1736.62 810.707 C 1797.69 897.026 1870.76 980.486 1828.01 1094.86 C 1814.79 1130.21 1792.96 1158.31 1771.61 1188.78 C 1754.04 1213.94 1736.32 1239 1718.46 1263.96 C 1686.28 1308.98 1654.25 1355.96 1622.31 1401.52 L 1542.96 1515.92 C 1529.27 1535.27 1514.47 1557.46 1498.97 1575.05 C 1482.7 1593.83 1462.44 1608.74 1439.67 1618.68 C 1400.47 1635.9 1364.79 1632.81 1323.69 1633.57 C 1279.49 1634.39 1245.78 1636.8 1203.38 1620.11 C 1183 1611.77 1164.66 1599.14 1149.6 1583.08 C 1132.04 1564.29 1118.39 1543.45 1103.73 1522.44 L 1054.14 1451.25 L 902.086 1230.43 C 883.065 1202.69 864.346 1174.07 845.09 1146.64 L 954.515 1145.45 C 969.944 1145.27 1018.11 1141.6 1029.49 1151.61 C 1052.01 1171.4 1067.85 1203.44 1087.21 1226.76 L 1088.26 1228.01 C 1116.37 1228.48 1145.55 1228.03 1173.74 1227.96 C 1150.62 1199.64 1131.29 1166.49 1109.43 1137.06 C 1101.52 1126.41 1078.19 1089.74 1065.71 1086.81 C 1045.59 1082.09 1015.63 1083.91 994.178 1083.99 L 873.362 1084.78 L 469.498 1087.99 C 486.621 1109.87 504.378 1135.42 520.92 1158.1 L 645.705 1331.29 C 644.347 1312.86 645.541 1284.88 645.181 1266 C 644.938 1253.29 644.565 1219.97 646.096 1208.16 C 648.676 1189.46 658.585 1172.55 673.64 1161.16 C 688.629 1149.84 707.521 1144.98 726.111 1147.67 C 763.321 1153.14 778.028 1182.98 797.598 1211.43 L 851.34 1289.89 L 972.313 1462.02 C 1011.24 1518.53 1053.33 1582.37 1094.14 1636.89 C 994.298 1635.17 889.808 1637.99 789.546 1638.65 L 711.883 1638.99 C 644.465 1639.16 636.149 1641.45 595.954 1585.57 C 582.833 1567.37 569.981 1548.99 557.402 1530.42 C 528.89 1488.66 500.042 1447.13 470.862 1405.84 L 309.326 1176.39 L 259.06 1106.11 C 242.216 1082.62 219.823 1057.43 218.908 1027.23 C 217.879 993.323 239.822 970.467 257.86 944.613 C 270.242 926.866 282.483 908.908 294.969 891.144 L 431.466 697.318 L 548.282 530.767 L 583.283 480.359 C 608.968 442.868 625.192 414.108 676.09 414.207 C 695.758 414.245 716.6 413.876 736.378 413.823 L 870.737 413.5 L 1091.6 413.137 C 1016.86 522.306 941.468 631.026 865.427 739.291 L 810.878 817.912 C 796.508 838.933 781.763 862.469 764.259 880.834 C 751.8 893.906 732.641 900.706 714.62 900.524 C 695.963 900.196 678.195 892.486 665.211 879.083 C 656.42 870.157 650.208 859.019 647.231 846.849 C 643.801 832.792 644.885 804.858 644.9 789.226 C 644.844 764.297 644.966 739.367 645.264 714.439 C 633.229 733.274 611.694 761.25 597.961 780.442 L 542.229 858.98 C 517.345 893.509 493.085 926.384 469.473 962.058 L 862.064 960.188 L 991.41 959.756 C 1003.41 959.683 1066.86 961.301 1073.88 954.101 C 1093.52 933.937 1111.13 901.913 1127.78 878.484 C 1142.6 857.618 1156.3 834.241 1172.38 814.149 C 1143.18 814.171 1113.99 814.428 1084.81 814.919 C 1071.72 830.9 1061.24 849.497 1049.38 866.372 C 1040.67 878.772 1030.52 898.632 1013.54 900.048 C 994.77 901.614 975.177 901.036 956.259 901.093 L 840.662 901.335 z" fill="rgb(0,255,65)" transform="translate(0,0)"></path>
<path d="M 1269.84 528.415 C 1271.56 528.354 1273.27 528.311 1274.99 528.287 C 1299.79 527.964 1372.46 524.924 1393.72 530.922 C 1404.04 533.834 1412.72 539.136 1420.33 546.66 C 1432.14 558.337 1441.27 574.119 1450.71 587.763 L 1497.24 654.493 L 1636.52 853.751 L 1687.15 926.351 C 1697.91 941.75 1708.47 956.771 1718.62 972.588 C 1762.13 1040.38 1712.48 1087.4 1672.98 1141.33 C 1645.21 1179.45 1617.73 1217.78 1590.54 1256.32 C 1542.55 1324.19 1495.14 1392.54 1446.84 1460.17 C 1431.03 1482.3 1417.27 1508.41 1388.97 1515.9 C 1370.72 1520.73 1349.01 1519.11 1330.02 1519.08 L 1267.75 1518.93 C 1246.07 1518.37 1232.61 1507.79 1220.57 1490.96 C 1186.27 1443.01 1153.91 1393.44 1118.91 1346.02 L 1238.77 1346.14 C 1252.72 1329 1299.74 1263 1302.86 1244.8 C 1304.7 1234.08 1304.04 1222.59 1300.23 1212.36 C 1294.3 1196.46 1281.4 1181.76 1271.79 1167.82 C 1253.39 1141.14 1235.45 1114.17 1216.69 1087.74 C 1204.48 1070.54 1190.17 1053.31 1179.58 1035.15 C 1177.17 1031.01 1174.55 1026.15 1175.03 1021.2 C 1175.67 1014.59 1179.27 1007.73 1182.53 1002.02 C 1190.7 987.704 1201.49 974.371 1210.88 960.79 C 1229.04 934.022 1247.49 907.446 1266.21 881.066 C 1301.54 831.349 1325.52 811.633 1279.83 755.123 C 1266.38 738.492 1250.75 716.515 1237.83 698.992 L 1117.03 699.796 C 1129.06 684.19 1138.52 666.943 1149.97 650.886 C 1174.02 617.172 1196.13 581.131 1221.85 548.76 C 1234.71 532.572 1250.32 529.425 1269.84 528.415 z" fill="rgb(0,0,0)" transform="translate(0,0)"></path>
<path d="M 1331.13 577.306 C 1351.31 576.205 1364.1 581.749 1376.24 598.235 C 1394.08 622.466 1411.06 647.442 1428.38 672.071 L 1468.9 730.295 C 1478.46 743.962 1488.13 757.267 1496.94 771.429 C 1532.05 827.817 1484.81 876.056 1453.44 919.369 C 1439.51 938.522 1425.78 957.814 1412.25 977.241 C 1380.62 1022.42 1381.4 1014.38 1411.88 1060.47 C 1439.96 1102.93 1472.21 1144.24 1500.97 1186.08 C 1515.97 1207.9 1516.09 1243 1502.85 1265.48 C 1495.33 1278.24 1487.34 1289.06 1478.49 1301.38 C 1468.65 1315.17 1458.94 1329.07 1449.37 1343.06 L 1401.86 1411.99 C 1386.37 1434.46 1375.36 1457.37 1347.76 1465.78 C 1317.41 1472.6 1289.48 1450.55 1283.92 1421.23 C 1282.1 1411.96 1283.05 1402.36 1286.66 1393.64 C 1291.85 1380.75 1307.78 1361.4 1316.09 1348.95 C 1337.34 1317.14 1359.85 1285.72 1381.72 1254.37 C 1386.29 1247.82 1393.94 1233.89 1391.45 1226.65 C 1386.54 1212.38 1370.44 1192.67 1361.6 1180.51 C 1341.53 1152.71 1321.6 1124.8 1301.82 1096.79 C 1289.23 1079.24 1275.39 1061.84 1264.16 1043.41 C 1261.23 1038.6 1257.88 1032.91 1256.93 1027.32 C 1255.5 1018.93 1257.82 1010.28 1261.36 1002.71 C 1269.02 986.324 1281.57 971.397 1291.97 956.636 C 1319.03 918.268 1348.02 880.999 1374.13 842.013 C 1379.99 833.252 1387.75 821.58 1387.32 810.653 C 1385.95 775.542 1292.47 685.836 1284.7 642.416 C 1282.26 628.787 1285.43 613.709 1293.38 602.381 C 1302.67 589.157 1315.01 580.063 1331.13 577.306 z" fill="rgb(0,255,65)" transform="translate(0,0)"></path>
<path d="M 1564.94 872.753 C 1568.16 875.484 1583.65 897.089 1586.99 901.635 C 1612.36 936.195 1638.75 966.833 1643.96 1011.28 C 1651.61 1076.56 1605.55 1123.09 1567.93 1170.44 L 1563.22 1165.42 C 1547.25 1146.23 1515.8 1107.37 1502.33 1087.27 C 1540.72 1040.35 1532.3 1002.47 1498.89 956.533 C 1521.41 929.741 1543.44 900.539 1564.94 872.753 z" fill="rgb(0,255,65)" transform="translate(0,0)"></path>
<metadata><recraft-signature>{"signed_by": "recraft", "signature_b64": "EHL5WI8FxqF8WmpJ518vfpToeN/gkn8KyJkB6cn6pIY7qB6B6oyXjUdUz5qaigGCT84rNq+D/EjFn5j5URU2DA==", "signing_algo": "Ed25519", "generation_timestamp": 1772834965, "identifier": "75c2ddff-4a0a-45c0-9fe3-b97912beb5e7"}</recraft-signature></metadata></svg>