<svg xmlns="http://www.w3.org/2000/svg" height="1024" preserveAspectRatio="none" style="display: block;" version="1.1" viewBox="0 0 2048 2048" width="1024">
<path d="M 0 0 L 2048 0 L 2048 2048 L 0 2048 L 0 0 z" fill="rgb(0,0,0)" transform="translate(0,0)"></path>
<path d="M 541.176 517.457 C 546.71 520.46 555.175 527.218 560.658 530.81 C 596.875 554.947 631.267 562.42 673.896 562.876 C 753.228 563.724 832.783 561.13 911.991 561.975 C 892.812 616.309 876.213 668.473 869.653 726.097 C 867.663 743.578 864.411 760.76 864.39 778.487 C 865.068 836.55 876.293 899.033 895.854 953.861 C 915.564 1009.11 940.952 1063.56 959.287 1119.7 C 968.271 1147.21 980.205 1173.76 987.012 1202.23 C 993.307 1228.56 1001.56 1257.77 994.191 1284.69 C 991.685 1293.86 985.692 1303.79 980.973 1311.98 C 989.668 1308.06 997.064 1306.43 1006.34 1304.51 C 1008.98 1294.36 1012.26 1280.28 1011.89 1269.52 C 1008.5 1170.96 962.336 1072.6 928.199 981.771 C 918.946 957.151 909.936 935.431 903.778 910.599 C 894.154 870.593 889.322 829.585 889.385 788.438 C 889.938 723.419 911.561 617.653 945.216 561.78 C 993.795 562.426 1043.18 562.076 1091.82 562.125 C 1027.47 643.859 991.319 773.437 992.726 876.879 C 993.291 918.415 1003.05 972.041 1012.25 1013 C 1025.35 1071.48 1050.88 1128.24 1055.69 1188.41 C 1058.92 1228.86 1067.2 1270.03 1040.29 1303.8 C 1049.05 1305.68 1057.91 1307.79 1066.66 1309.79 C 1070.2 1296.8 1074.58 1280.98 1075.01 1267.47 C 1076.91 1207.43 1061.8 1145.04 1048.98 1086.7 C 1040.32 1047.26 1029.3 1010.88 1022.62 971.009 C 1015.44 928.141 1013.79 884.529 1017.72 841.242 C 1024.32 752.94 1061.19 662.532 1118.3 594.446 C 1128.47 582.327 1141.46 571.516 1153.31 561 L 1302.69 561.736 C 1389.22 562.207 1430.89 571.547 1505.65 517.052 L 1507.11 598.706 C 1507.22 607.57 1507.38 616.148 1506.81 625.189 C 1502.98 685.954 1456.66 736.994 1396.26 745.534 C 1374.28 748.644 1345.73 747.018 1322.92 747.019 L 1208.29 747.058 C 1208.11 751.022 1207.93 760.537 1206.01 763.414 C 1166.37 822.65 1140.15 881.358 1124.73 952.144 C 1115.48 992.98 1111.59 1034.85 1113.17 1076.69 C 1115.89 1163.99 1139.94 1247.29 1098.63 1330.46 C 1139.85 1371.77 1152.1 1436.57 1110.62 1483.58 C 1087.21 1508.6 1064.04 1518.96 1030.99 1521.57 C 968.074 1526.52 915.301 1478.71 913.677 1415.77 C 912.791 1381.42 925.164 1357.22 948.695 1332.28 C 953.989 1291.54 951.12 1269.27 938.209 1229.81 C 917.372 1166.12 876.53 1116.42 840.905 1060.75 C 840.715 1005.89 840.193 951.018 839.341 896.155 C 839.11 846.446 838.353 796.741 837.069 747.048 C 789.657 746.542 742.082 747.388 694.652 747.002 C 671.873 746.817 652.102 747.446 629.638 741.649 C 609.098 736.561 590.307 726.033 575.242 711.172 C 538.804 674.655 541.101 635.129 541.139 587.98 L 541.176 517.457 z" fill="rgb(0,255,65)" transform="translate(0,0)"></path>
<path d="M 1018.05 1363.8 C 1044.24 1359.59 1068.95 1377.21 1073.49 1403.35 C 1078.03 1429.48 1060.71 1454.41 1034.63 1459.27 C 1017.47 1462.47 999.919 1456.19 988.68 1442.84 C 977.441 1429.49 974.252 1411.12 980.332 1394.76 C 986.412 1378.4 1000.82 1366.57 1018.05 1363.8 z" fill="rgb(0,0,0)" transform="translate(0,0)"></path>
<path d="M 1207.02 829.559 L 1208.17 830.083 C 1209.17 832.295 1210.11 1112.03 1209.27 1132.47 C 1208.57 1150.65 1206.19 1168.73 1202.16 1186.48 C 1190.72 1237.01 1168.16 1275.42 1150.74 1323.48 C 1146.86 1334.18 1143.66 1346.47 1141.52 1357.67 C 1140.4 1363.58 1140.57 1369.12 1139.18 1374.98 L 1137.84 1374.89 L 1133.82 1369.94 C 1116.49 1344.86 1139.15 1282.79 1140.23 1251.43 C 1141.73 1208.14 1139.58 1165.92 1137.96 1122.84 C 1134.76 1038.13 1142.57 953.834 1179.32 876.237 C 1185.99 861.879 1196.09 840.751 1207.02 829.559 z" fill="rgb(0,255,65)" transform="translate(0,0)"></path>
<path d="M 840.185 1102.64 C 842.406 1104.37 848.951 1111.94 851.233 1114.53 C 872.387 1138.56 888.786 1164.29 902.551 1193.22 C 921.955 1234 939.875 1279.27 931.254 1325.24 C 929.059 1336.94 923.164 1351.68 919.156 1363.21 C 916.889 1371.16 915.481 1375.48 912.277 1383.05 C 912.119 1335.45 903.638 1299.17 873.862 1261.24 C 834.1 1210.58 840.043 1163.84 840.185 1102.64 z" fill="rgb(0,255,65)" transform="translate(0,0)"></path>
<metadata><recraft-signature>{"signed_by": "recraft", "signature_b64": "4TgSVHQQnPgbgJh3wYIZvEZejTz8ILUBPJLTaDKgYSyITWxVHJRXR6M0Ju7bxmtPdljOjdhPJOqZ3Ey4ZjnIAA==", "signing_algo": "Ed25519", "generation_timestamp": 1772834985, "identifier": "111eb0d1-dcbc-47fc-836c-52850b4d7437"}</recraft-signature></metadata></svg>